<svg width="114" height="114" viewBox="0 0 114 114" fill="none" xmlns="http://www.w3.org/2000/svg">
<circle cx="57" cy="57" r="57" fill="white"/>
<circle cx="57" cy="57" r="46" fill="#E2A257"/>
<g clip-path="url(#clip0_74_19)">
<path d="M55.6741 44.9166C55.6741 43.1763 55.6741 41.5093 55.6741 39.8438C55.6741 39.6641 55.6682 39.4845 55.677 39.3063C55.7123 38.5475 56.271 37.9971 57.0002 38C57.7279 38.0029 58.3028 38.5518 58.3101 39.3135C58.3263 40.9632 58.316 42.6115 58.316 44.2613C58.316 44.4567 58.316 44.6536 58.316 44.9151C64.1629 45.3549 69.2114 47.7174 73.9189 51.0183C74.0483 50.9019 74.1836 50.7884 74.3085 50.6663C75.4376 49.564 76.5623 48.4575 77.6958 47.3596C78.3544 46.7215 79.1263 46.6799 79.6894 47.2331C80.251 47.785 80.2069 48.5394 79.5541 49.1847C78.522 50.2035 77.4797 51.2138 76.4432 52.2298C76.3168 52.3534 76.1992 52.487 76.0948 52.5962C77.3959 53.7976 78.6999 54.9473 79.9378 56.163C80.8684 57.0756 81.727 58.0599 82.59 59.0371C83.1149 59.6306 83.1369 60.217 82.64 60.7918C78.1295 66.0284 72.8883 70.3526 66.3828 73.06C59.7818 75.8076 53.2233 75.595 46.7252 72.6907C42.0809 70.6141 38.0761 67.6581 34.4845 64.1473C33.4363 63.1213 32.4557 62.0277 31.4751 60.9384C30.8267 60.2198 30.8502 59.6694 31.4795 58.9308C33.301 56.7881 35.3019 54.8194 37.4851 53.0288C37.6248 52.9138 37.7615 52.796 37.9379 52.6465C37.8086 52.5086 37.6939 52.3764 37.5689 52.2542C36.5192 51.2267 35.4651 50.2035 34.4198 49.1717C33.7729 48.5337 33.7376 47.7706 34.3125 47.2231C34.8712 46.6914 35.6371 46.7244 36.2678 47.338C37.5278 48.5638 38.7745 49.8012 40.0476 51.0528C44.7434 47.7318 49.7861 45.3534 55.6726 44.9195L55.6741 44.9166ZM33.9905 59.8448C37.7615 63.9404 41.8133 67.3419 46.6634 69.7705C49.6155 71.2493 52.7205 72.2265 56.0475 72.3989C59.5436 72.5814 62.8515 71.7882 66.0168 70.3856C70.9712 68.1912 75.1127 64.919 78.8308 61.0936C79.1924 60.7214 79.5394 60.3362 79.9099 59.9382C76.1301 55.8469 71.9577 52.3634 66.9386 49.9305C64.0511 48.5308 61.0211 47.6197 57.7838 47.4817C54.3818 47.338 51.1695 48.1198 48.0821 49.4649C44.3097 51.1103 40.9959 53.4254 37.96 56.1343C36.6221 57.3285 35.3401 58.5802 33.992 59.8433L33.9905 59.8448Z" fill="white"/>
<path d="M68.0028 59.9669C67.969 65.9523 63.0145 70.7362 56.8883 70.6974C50.8238 70.6601 45.9649 65.8057 45.9884 59.8088C46.012 53.9384 51.0164 49.1545 57.1044 49.1861C63.1086 49.2162 68.0366 54.0908 68.0043 59.9669H68.0028ZM65.3609 59.9741C65.3638 55.4502 61.6178 51.7627 57.028 51.767C52.3675 51.7713 48.6318 55.42 48.6303 59.964C48.6303 64.4577 52.394 68.1179 57.0177 68.1179C61.5884 68.1179 65.3594 64.439 65.3609 59.9726V59.9741Z" fill="white"/>
<path d="M49.9961 59.5703C50.1887 56.0926 53.2143 53.2055 56.7707 53.1423C57.6675 53.1265 58.2555 53.582 58.3099 54.3322C58.3643 55.0924 57.8027 55.7031 56.8941 55.7103C54.7212 55.7305 52.7027 57.5498 52.6659 59.8448C52.6527 60.6337 52.1984 61.1209 51.528 61.22C50.962 61.3048 50.3548 60.9944 50.1505 60.4584C50.0446 60.1825 50.0431 59.8677 49.9946 59.5703H49.9961Z" fill="white"/>
</g>
<defs>
<clipPath id="clip0_74_19">
<rect width="52" height="37" fill="white" transform="translate(31 38)"/>
</clipPath>
</defs>
</svg>
