<svg width="365" height="331" viewBox="0 0 365 331" fill="none" xmlns="http://www.w3.org/2000/svg">
<g clip-path="url(#clip0_30_59)">
<path d="M28.1085 30.0889C28.5189 30.001 28.9587 30.0303 29.3765 30.0303C29.9335 30.426 30.0435 30.6825 30.2853 31.276C30.1754 31.7817 30.0215 32.0455 29.699 32.4558C29.1859 32.7783 29.1639 32.7856 28.5483 32.7563C28.0719 32.4119 27.6761 32.192 27.5808 31.5692C27.4782 30.895 27.6907 30.6019 28.1012 30.0889H28.1085Z" fill="#231F20"/>
<path d="M21.3214 30.6752C21.7392 30.6972 22.0837 30.7485 22.4135 31.0269C22.9852 31.5032 22.8679 32.1041 22.8679 32.749C22.4868 33.3646 22.4355 33.3865 21.7465 33.6797C21.2261 33.5771 20.757 33.3646 20.4492 32.9322C20.1121 32.4632 20.1047 32.1188 20.1487 31.5692C20.5445 30.9536 20.6544 30.9536 21.3214 30.6825V30.6752Z" fill="#231F20"/>
<path d="M226.275 317.934C226.891 317.744 227.045 317.788 227.69 317.905C228.115 318.41 228.188 318.498 228.21 319.136C228.24 320.015 227.866 320.396 227.279 320.983C226.664 321.144 226.686 321.158 226.121 320.887C225.799 320.484 225.616 320.162 225.564 319.642C225.491 318.894 225.799 318.469 226.283 317.927L226.275 317.934Z" fill="#231F20"/>
<path d="M176.537 326.017C177.087 326.12 177.446 326.354 177.732 326.808C178.025 327.27 178.121 327.871 177.915 328.384C177.681 328.963 177.322 329.131 176.779 329.41L176.516 329.395C175.892 329.263 175.541 328.904 175.24 328.384C174.991 327.959 174.962 327.446 175.204 327.006C175.533 326.398 175.936 326.266 176.545 326.017H176.537Z" fill="#231F20"/>
<path d="M236.815 317.143C237.108 317.121 237.394 317.187 237.687 317.223C237.995 317.443 238.259 317.604 238.435 317.941C238.684 318.425 238.735 318.608 238.515 319.114C238.259 319.708 237.951 319.927 237.379 320.206C236.749 320.169 236.419 320.14 235.95 319.7C235.459 319.246 235.43 318.74 235.415 318.125C235.855 317.604 236.185 317.407 236.822 317.135L236.815 317.143Z" fill="#231F20"/>
<path d="M217.421 319.114C218.044 319.077 218.535 319.085 219.034 319.51C219.613 320.001 219.51 320.623 219.525 321.283C219.202 321.877 219.026 322.045 218.418 322.375L218.213 322.39C217.568 322.39 217.106 322.302 216.703 321.767C216.432 321.4 216.241 320.939 216.351 320.492C216.52 319.803 216.864 319.524 217.421 319.114Z" fill="#231F20"/>
<path d="M122.959 32.0601L123.223 31.9795C123.765 31.8769 124.337 31.9575 124.718 32.3533C125.173 32.8149 125.414 33.4012 125.327 34.0314C125.231 34.6689 124.894 34.9254 124.41 35.3138L124.088 35.4017C123.567 35.497 123.128 35.3724 122.717 35.0646C122.277 34.7349 122.028 34.1706 122.065 33.643C122.116 32.8296 122.387 32.5804 122.966 32.0675L122.959 32.0601Z" fill="#231F20"/>
<path d="M166.181 327.204C166.855 327.248 167.134 327.27 167.698 327.666C168.013 328.135 168.248 328.596 168.175 329.183C168.087 329.93 167.654 330.399 167.075 330.861L166.65 331.015C166.152 330.963 165.8 330.744 165.485 330.37C165.067 329.871 164.957 329.102 165.118 328.494C165.301 327.805 165.58 327.585 166.174 327.211L166.181 327.204Z" fill="#231F20"/>
<path d="M81.2618 22.9881L81.5696 22.8928C82.2073 22.7902 82.7936 23.032 83.2554 23.4571C83.6439 23.8161 83.9151 24.439 83.8857 24.9666C83.8418 25.6042 83.5193 25.7507 83.0722 26.1465C82.8816 26.249 82.8156 26.2857 82.5884 26.3443C81.9581 26.5055 81.6429 26.4322 81.0932 26.1465C80.5655 25.2085 80.5142 24.4317 80.6534 23.3838L81.2618 22.9881Z" fill="#231F20"/>
<path d="M26.7892 263.516C27.2436 263.362 27.6761 263.414 28.1451 263.436C29.2885 264.308 30.5492 265.312 30.6958 266.821C30.7471 267.378 30.6078 267.444 30.2634 267.854C29.5817 268.045 29.1786 267.972 28.5556 267.656C27.8593 266.579 26.8698 265.392 26.5327 264.168C26.4594 263.89 26.6426 263.751 26.7892 263.516Z" fill="#231F20"/>
<path d="M336.466 40.5387L337.053 40.4434C338.247 40.9051 339.552 41.4254 340.571 42.1875C341.216 42.6711 341.898 43.3966 342.015 44.188C341.824 44.7743 341.736 44.8549 341.26 45.2726L340.974 45.3312C340.014 45.4998 338.731 44.8329 337.976 44.3126C337.067 43.6897 335.843 42.6052 335.638 41.528C335.858 40.9124 335.895 40.9051 336.466 40.5387Z" fill="#231F20"/>
<path d="M7.08026 255.77L7.83519 255.661C8.49484 255.661 8.79535 256.042 9.26444 256.423V256.914C8.27496 258.137 6.32532 258.291 4.78614 258.482L2.32344 258.878C1.58316 258.914 0.835554 259.002 0.249197 258.474C-0.043982 258.211 0.0366421 257.962 0.00732422 257.602C0.88686 256.782 2.05224 256.76 3.23229 256.54L7.08759 255.77H7.08026Z" fill="#231F20"/>
<path d="M17.3782 266.477L17.9425 266.293C18.4703 266.513 18.5362 266.469 18.7488 266.968C18.5436 269.005 18.1404 271.027 17.7153 273.035C17.5248 273.922 17.5028 274.713 16.8065 275.38C16.3227 275.446 16.1175 275.431 15.6704 275.226C15.2746 274.684 15.1573 274.435 15.2013 273.768C15.2746 272.683 15.707 271.526 15.9782 270.463C16.2641 269.327 16.462 267.261 17.3782 266.477Z" fill="#231F20"/>
<path d="M33.9134 252.663C34.2799 252.627 34.683 252.715 35.0495 252.759C35.5479 253.14 35.5919 253.286 35.8337 253.865C35.7605 254.231 35.7751 254.576 35.5113 254.869C34.683 255.8 32.0078 255.8 30.7691 255.895L29.2812 255.946C29.0027 255.69 28.8561 255.624 28.7462 255.25C28.5922 254.693 28.7242 253.99 29.0833 253.535C29.655 252.802 32.9313 252.751 33.9134 252.663Z" fill="#231F20"/>
<path d="M334.341 19.0456C334.649 18.965 334.971 18.9577 335.294 18.9283L335.785 19.434C335.814 19.8737 335.829 20.2254 335.638 20.6358C334.722 22.5557 331.321 25.2598 329.32 25.9486C328.873 25.8973 328.448 25.7214 328.184 25.3477C327.818 24.8347 327.847 24.5343 328.016 23.97C329.892 22.1014 331.959 20.2914 334.341 19.0383V19.0456Z" fill="#231F20"/>
<path d="M314.654 4.45542L315.013 4.3455C315.731 4.2136 316.186 4.30154 316.743 4.69725C317.095 5.75249 316.596 6.62452 316.479 7.70174C316.31 9.2333 316.332 12.3697 315.299 13.4616L314.874 13.6008C314.397 13.4396 314.287 13.4396 313.987 13.0585C312.756 11.505 312.704 8.46386 313.034 6.60254C313.217 5.59127 313.848 5.049 314.661 4.45542H314.654Z" fill="#231F20"/>
<path d="M226.283 0.117249L227.169 0C227.323 0.0586243 227.507 0.0732803 227.631 0.183201C228.078 0.586243 227.748 3.90584 227.829 4.66796C227.895 5.2542 228.13 5.81846 228.43 6.33142C229.449 8.07549 230.563 8.11946 232.432 8.56647L234.55 6.8737C235.452 6.29478 238.735 4.89513 239.776 5.22489C240.516 5.45939 240.971 5.92105 241.293 6.58057C241.264 6.96163 241.249 7.29139 241.066 7.63581C240.362 8.96951 238.655 9.68766 237.167 9.84155C236.309 9.92949 235.415 9.78293 234.587 10.098C233.334 10.567 232.659 11.2339 232.102 12.3404C232.139 12.7141 232.161 13.0439 232.131 13.4176L232.102 13.7181C233.297 15.3083 234.462 15.5867 236.031 16.6053C236.478 16.8984 236.536 17.1769 236.632 17.6606C236.339 18.2395 236.331 18.3421 235.752 18.6572C234.682 18.408 233.773 18.1076 232.85 17.5213L231.912 16.9497C230.717 16.3708 229.793 16.6713 228.606 17.067L228.364 17.1549C225.594 18.9576 225.696 21.5371 224.472 24.1752C224.223 24.7101 224.025 24.8567 223.461 25.0326L222.948 24.7248C222.163 22.4897 223.387 19.6978 222.97 17.3381C222.845 16.62 222.332 15.9092 221.87 15.3522C220.016 13.1025 216.652 13.7254 213.976 13.3224C213.302 13.2198 212.525 13.1831 211.946 12.8167C211.712 12.2451 211.814 12.1865 212.019 11.6003C212.701 11.1606 213.5 11.2559 214.292 11.2705C215.955 11.2925 217.795 11.5563 219.444 11.3951C222.779 11.0727 224.318 7.07155 224.927 4.36018C225.234 2.99717 225.308 1.19447 226.29 0.124577L226.283 0.117249Z" fill="#231F20"/>
<path d="M226.297 7.65045C227.507 8.80828 228.899 9.68765 230.255 10.6843L229.955 11.4757C229.603 12.3257 229.412 12.8973 229.405 13.828V14.0771L228.408 14.6194C227.433 15.1324 226.693 15.7479 225.872 16.4514C225.63 16.7006 225.586 16.7592 225.234 16.8691C224.575 15.0444 223.813 14.1944 222.244 13.0072C224.15 11.3291 225.168 9.87818 226.297 7.64313V7.65045Z" fill="#FEFEFE"/>
<path d="M64.0375 22.5777C66.6175 22.4824 69.0582 22.8049 71.6089 23.098C72.5177 23.2006 73.5732 23.1493 74.4161 23.4937C74.8412 23.9554 75.1197 24.3218 75.0977 24.9593C75.0757 25.5895 74.9438 26.1977 74.3794 26.5861C73.2507 27.3629 70.678 27.1211 69.2634 27.2163C57.9834 27.9785 46.696 27.8978 35.4013 27.3995L32.2496 27.2017C30.3 27.0478 28.4237 26.8133 26.5033 26.4396C25.6092 26.2637 24.715 26.249 24.092 25.5456C24.0553 25.0033 24.026 24.9959 24.3631 24.5563C27.4489 23.8015 31.1576 23.9774 34.3459 23.8235C44.2333 23.3398 54.1647 23.4937 64.0302 22.5704L64.0375 22.5777Z" fill="#231F20"/>
<path d="M20.0021 241.635C20.6838 241.525 20.6691 241.569 21.2701 241.913C21.6219 242.858 20.9256 244.265 20.8377 245.299C20.7277 246.574 20.7497 247.995 20.9256 249.263C20.9403 249.373 21.0356 250.142 21.0795 250.194C21.1968 250.311 22.179 250.56 22.4062 250.641C23.2124 250.934 23.9967 251.315 24.671 251.843C26.2175 253.052 26.9285 255.074 27.0604 256.921C27.207 258.87 27.0164 261.296 25.6091 262.82C23.5129 265.077 21.2335 265.568 18.2284 265.736C17.2169 265.597 16.2421 265.355 15.3113 264.945C13.3689 264.088 11.5219 262.512 10.7816 260.556L10.679 260.27C10.2759 259.163 10.2539 257.053 10.7816 255.983L10.9136 255.734L11.5073 254.686C13.0758 252.341 15.9416 251.308 18.6755 250.743L18.91 250.699C18.6681 249.19 18.5069 247.739 18.5216 246.207C18.5435 244.441 18.6022 242.946 20.0021 241.635Z" fill="#231F20"/>
<path d="M18.9173 252.59C19.9508 252.524 21.6952 252.436 22.5821 253.015C23.5642 253.66 24.2825 254.884 24.539 255.983C24.9861 257.866 25.1034 259.581 23.9087 261.281C22.7726 262.908 21.1235 263.296 19.2545 263.67C18.221 263.67 17.3562 263.567 16.396 263.194C14.8935 262.607 13.7721 261.823 13.1564 260.336C12.5993 258.987 12.6067 257.412 13.303 256.108C14.4024 254.056 16.7845 253.286 18.9173 252.59Z" fill="#FEFEFE"/>
<path d="M234.081 324.434L250.155 324.39C252.119 324.39 254.78 324.038 256.634 324.537C257.403 324.742 258.107 325.13 258.488 325.819C258.378 326.347 258.239 326.698 257.865 327.109C257.323 327.702 256.465 328.098 255.652 328.208C254.56 328.355 253.416 328.237 252.317 328.303C251.247 328.369 250.191 328.582 249.121 328.64L238.713 328.926L209.593 330.069L193.051 330.546C191.512 330.568 189.415 330.853 187.935 330.509C187.217 330.34 186.542 330.077 186.124 329.468C186.183 328.831 186.205 328.589 186.659 328.076C187.876 327.497 189.445 327.636 190.793 327.468C205.137 325.694 219.627 325.02 234.074 324.434H234.081Z" fill="#231F20"/>
<path d="M110.953 31.4592C112.185 31.386 113.937 31.3054 114.897 32.192C115.285 32.5511 115.476 32.9761 115.468 33.4818C115.468 34.112 115.249 34.6469 114.757 35.0866C113.284 36.4057 109.209 36.1638 107.245 36.3031C94.5428 37.1971 81.9214 36.8966 69.1975 36.8307L53.2705 36.8747C52.0758 36.7501 49.4592 36.9992 48.4771 36.4789C48.4331 35.7535 48.6237 35.2259 49.1587 34.6763C49.9283 33.8775 51.0717 33.3352 52.1711 33.0934C53.9302 32.7123 55.9824 32.749 57.8002 32.6024C65.5694 31.9942 73.1994 31.9869 80.9906 31.9795L94.7187 31.5985L110.946 31.4446L110.953 31.4592Z" fill="#231F20"/>
<path d="M284.83 17.2575C289.521 16.8911 294.161 17.6679 298.617 19.0162C305.565 21.1267 311.51 25.5748 314.859 31.8183C319.315 40.1356 320.18 48.365 317.117 57.2393C313.459 67.8136 304.964 76.512 295.37 82.499C292.46 84.3164 289.279 85.8333 286.179 87.3355C284.127 88.3321 281.987 89.3874 279.832 90.1568C279.267 90.362 278.373 90.7211 277.772 90.6331C276.746 90.4939 275.434 89.937 274.43 89.6219L280.125 137.738L310.036 127.779C314.991 126.159 319.975 124.166 325.003 122.803C325.516 122.664 326.286 122.444 326.814 122.605C327.327 122.759 327.656 123.008 327.935 123.441C328.661 124.577 328.199 125.273 327.766 126.394L324.776 133.825C320.18 146.407 316.288 159.158 313.555 172.238L310.909 186.711C310.447 189.737 310.227 192.976 309.509 195.944L309.421 196.289C309.582 196.706 309.758 197.117 309.773 197.571C309.795 198.113 309.494 198.67 309.164 199.088C307.801 200.832 305.844 202.386 304.275 203.99L295.751 213.165L312.023 213.004C313.071 212.975 314.39 213.202 315.394 212.975C316.97 212.616 318.905 212.821 320.532 212.747C322.694 212.652 324.966 212.425 327.107 212.139C337.676 210.71 348.142 208.27 357.934 204.137C359.422 203.507 360.61 202.496 362.017 201.88C362.677 201.587 363.16 201.733 363.791 201.953C364.355 202.452 364.656 202.869 364.963 203.536C364.875 204.921 363.959 206.05 363.248 207.229L360.302 212.257L341.656 245.467L336.943 254.07C336.364 255.118 335.836 256.474 335.044 257.383C334.656 257.822 334.084 258.123 333.498 258.218C332.487 258.386 331.321 258.321 330.295 258.35L324.329 258.54L308.204 259.2L293.281 259.918L294.498 272.486C294.769 276.238 294.688 280.121 294.381 283.873C293.816 290.703 292.475 297.965 287.586 303.271C284.816 306.275 280.704 308.386 276.746 309.587C269.812 311.698 262.571 312.24 255.381 312.944L236.067 314.578L211.008 316.681L163.96 320.169L142.346 321.723C126.558 322.793 110.675 324.764 94.8286 323.892C87.2133 323.467 78.6232 322.558 71.9094 318.85C71.4696 318.608 71.0592 318.366 70.6634 318.059C66.5222 314.79 63.1067 309.412 61.2597 304.641C59.4713 300.024 58.2692 295.078 57.1185 290.285L52.6842 269.107L44.937 222.215L41.3015 192.954L35.7092 158.483L31.4947 118.905L30.2121 98.5694C29.6697 91.8496 30.967 84.3677 35.6872 79.1135C39.4032 74.9804 43.559 72.6648 49.0708 71.3897C51.2403 70.8841 53.5051 70.7888 55.7186 70.5616L69.3221 69.3379L109.282 65.967L188.638 59.467L221.049 56.675L237.973 55.6198C238.215 55.6051 239.652 55.5611 239.783 55.4732C239.974 55.334 239.864 55.0262 239.908 54.8064C241.205 47.962 244.298 41.3667 249.055 36.0759C258.466 25.5968 270.091 18.3347 284.786 17.2429L284.83 17.2575Z" fill="#231F20"/>
<path d="M262.212 50.3949L262.497 50.3729C262.879 50.6734 262.893 50.732 263.047 51.179C262.615 52.2855 261.435 53.3188 260.738 54.3301C260.438 54.5646 260.621 54.4913 260.196 54.5279C260.409 52.8791 261.112 51.6553 262.204 50.3876L262.212 50.3949Z" fill="#FEFEFE"/>
<path d="M250.111 50.7906C250.331 51.2303 250.177 52.3295 250.397 52.9744L250.462 53.1576C250.279 53.9051 250.147 54.6599 249.766 55.3414L248.718 55.3267L248.102 55.1288C248.615 53.6559 249.334 52.1463 250.118 50.7906H250.111Z" fill="#FEFEFE"/>
<path d="M285.277 79.1868C284.009 80.9455 282.148 82.4697 280.74 84.1698L278.813 84.3457L278.578 84.1845C279.091 83.437 280.161 82.8508 280.902 82.3012C282.36 81.2313 283.738 80.1541 285.277 79.1794V79.1868Z" fill="#FEFEFE"/>
<path d="M257.125 47.6322L257.191 47.9327L254.838 52.7985C254.428 53.6925 254.105 54.9089 253.453 55.6564L252.632 55.6124L252.412 55.334C253.556 52.4541 254.999 49.9698 257.125 47.6322Z" fill="#FEFEFE"/>
<path d="M277.098 64.1936L279.942 64.5673L275.727 68.7223C275.309 69.0594 274.818 69.2939 274.342 69.5504L274.049 69.3745L277.098 64.1936Z" fill="#FEFEFE"/>
<path d="M258.935 40.3409L259.324 40.2749L259.514 40.4361C258.657 41.7112 257.469 42.8031 256.524 44.0342C255.153 45.8076 254.017 47.7202 252.837 49.6035L252.383 49.8013L252.617 48.5483C253.336 45.5071 256.179 41.9677 258.935 40.3409Z" fill="#FEFEFE"/>
<path d="M266.36 57.2832L269.116 60.9252L266.646 62.7059L266.052 62.684C265.107 61.8266 264.322 60.9326 263.531 59.9433L266.36 57.2905V57.2832Z" fill="#FEFEFE"/>
<path d="M283.064 64.985C284.237 64.7285 285.387 65.0656 286.538 65.0949C287.271 65.1169 287.96 64.9557 288.693 65.1095C290.049 65.4027 292.24 64.9557 293.303 65.8717C293.245 66.0329 293.223 66.2234 293.12 66.3626C292.775 66.839 291.793 67.4618 291.31 67.8502L287.667 70.906C284.794 73.4122 282.287 76.2188 279.546 78.8496C278.073 80.2639 276.372 81.4511 275.053 83.0046C274.811 83.2904 274.987 83.1951 274.562 83.2611C274.254 82.7921 274.232 82.2718 274.159 81.7369C274.349 81.3485 274.239 81.4437 274.554 81.2166C276.9 79.5604 279.047 77.6112 281.261 75.7938L289.389 68.7516C289.653 68.5097 290.709 67.711 290.811 67.4252C290.892 67.2127 290.848 66.9782 290.87 66.7583C290.562 66.326 290.335 65.9376 289.836 65.6885L288.29 66.5239C287.784 65.9449 287.352 65.7031 286.641 65.3807C285.395 65.5785 283.005 68.2533 281.972 69.1253C279.883 70.8987 277.669 72.7673 275.434 74.3649L278.762 70.6935C279.817 69.6016 282.463 67.5791 282.763 66.1574L283.064 64.985Z" fill="#FEFEFE"/>
<path d="M312.961 60.449L313.327 60.5589C312.199 62.9698 310.058 65.3881 308.197 67.33C302.568 73.2071 296.008 77.7944 288.319 80.9528H288.143C288.502 80.242 289.463 79.6631 290.1 79.1501L294.835 75.4421C298.273 72.7747 301.783 70.1073 304.95 67.1468C305.837 66.3187 306.709 65.476 307.515 64.5673C308.145 63.8565 308.754 62.9845 309.501 62.3982C310.476 61.6361 311.854 61.0572 312.961 60.4417V60.449Z" fill="#FEFEFE"/>
<path d="M64.2061 74.0498L64.382 74.0864L64.4846 74.2477C62.9894 75.0024 61.5309 75.8159 60.2555 76.8858C54.993 81.3192 52.8235 87.3135 52.3397 93.8282L35.0788 95.7261L34.9982 95.0446C34.4485 91.1827 36.3028 85.6647 38.7142 82.5723C44.849 74.702 55.0223 75.2369 64.2208 74.0498H64.2061Z" fill="#FEFEFE"/>
<path d="M285.102 19.2287C288.473 19.1701 292.028 19.2654 295.304 20.1374C302.201 21.9768 308.651 25.5602 312.316 31.6278C316.567 38.6554 317.564 47.6835 315.424 55.4879C313.54 56.2646 311.803 57.4518 310.022 58.4264C307.779 59.6575 305.184 60.764 302.692 61.4162C300.757 61.9219 298.617 62.4422 296.616 62.5374C294.234 62.64 291.801 62.0904 289.441 61.8339C284.896 61.3283 280.139 61.4968 276.042 59.2618C272.326 57.2393 269.285 54.3374 268.17 50.2996L267.628 47.984C267.174 45.6976 267.32 43.4039 267.034 41.1029C266.837 39.5127 266.133 36.0612 264.513 35.2185C263.861 34.8814 262.666 35.0939 262.014 35.3431C260.826 35.7974 259.69 36.5669 258.627 37.2484C251.98 41.528 248.315 48.5849 245.237 55.4146C244.284 55.4292 243.082 55.5831 242.166 55.356C243.976 47.5369 247.106 41.8357 252.5 35.7241C260.702 26.4322 272.4 20.2767 285.102 19.2287Z" fill="#FEFEFE"/>
<path d="M40.6199 97.1037C41.2063 97.0598 41.5874 96.9352 42.1078 97.2137L70.1796 288.497L71.1105 293.524C71.2571 294.257 71.3743 295.312 71.7848 295.95C71.8727 296.082 72.1439 296.39 72.2832 296.441C73.28 296.815 82.156 295.415 82.3978 295.62C82.5005 295.708 83.7758 301.19 83.9737 301.827C86.0772 308.51 89.632 315.149 95.6349 319.312C94.4695 319.517 92.769 319.173 91.5597 319.07C84.9265 318.535 75.8013 317.179 70.7074 312.643C68.2886 310.481 66.8081 308.166 65.694 305.205C64.6679 302.487 64.0156 299.577 63.3559 296.756L60.4388 283.111L52.2005 237.047L45.9777 197.747L42.5842 176.752L39.3006 147.081L37.219 130.065L35.6285 107.942L34.9909 97.6607L40.6052 97.0817L40.6199 97.1037Z" fill="#FEFEFE"/>
<path d="M53.5491 221.922L54.4213 221.82C54.905 222.164 54.9783 222.384 55.1249 222.948C55.5647 224.663 55.7259 226.488 56.0044 228.232L57.441 236.644L59.3833 247.284C59.7132 249.036 60.1749 250.817 60.3875 252.583C60.4901 253.462 60.5634 254.473 60.065 255.243L59.7351 255.206C59.4126 254.898 59.398 254.825 59.2661 254.415C57.8954 250.113 57.4923 245.343 56.6421 240.916C55.594 235.457 54.1721 229.998 53.4538 224.48C53.3439 223.63 53.1166 222.677 53.5417 221.915L53.5491 221.922Z" fill="#231F20"/>
<path d="M40.2168 127.09L40.8178 127.024C41.4042 127.471 41.5434 127.625 41.7267 128.321C42.6355 131.736 42.9727 135.393 43.5297 138.881L46.4761 158.176C47.0332 162.345 48.0373 166.596 48.4185 170.765C48.4991 171.667 48.631 172.583 48.1326 173.359L47.3117 173.308C47.0332 173.022 46.9232 172.861 46.828 172.473C46.139 169.813 45.8531 166.896 45.4134 164.177L42.4523 144.45C41.6607 139.159 40.2681 133.825 39.8576 128.482C39.799 127.742 39.777 127.72 40.2241 127.083L40.2168 127.09Z" fill="#231F20"/>
<path d="M356.285 209.501L356.593 209.611C356.117 211.172 354.819 212.762 353.969 214.184L350.752 219.863L331.688 253.96L249.949 257.661L249.524 257.463L268.603 219.167C268.713 218.932 269.167 217.848 269.328 217.745C269.739 217.481 274.994 217.511 275.874 217.503L300.339 217.313L319.975 217.188C332.516 216.551 344.653 214.045 356.285 209.509V209.501Z" fill="#FEFEFE"/>
<path d="M304.737 245.775C305.353 245.658 305.338 245.599 305.851 245.929C306.137 246.618 306.394 247.292 306.21 248.039C305.946 249.087 305.492 249.769 304.525 250.311C304.209 250.362 303.865 250.362 303.55 250.377C302.963 249.805 302.795 249.681 302.817 248.831C302.846 247.761 303.938 246.434 304.737 245.775Z" fill="#231F20"/>
<path d="M297.364 244.199C297.928 244.053 298.016 244.045 298.58 244.199C298.866 244.742 298.822 244.778 298.69 245.379C297.672 246.493 296.404 247.314 295.202 248.237C293.846 249.278 292.548 250.436 291.053 251.293L290.459 251.374C289.939 251.102 289.844 251.124 289.638 250.604C290.144 249.681 291.295 248.897 292.13 248.237L297.371 244.199H297.364Z" fill="#231F20"/>
<path d="M277.684 223.893C278.08 223.74 277.926 223.754 278.329 223.769C278.754 223.791 278.805 223.996 279.069 224.282C279.04 224.729 278.981 225.139 278.718 225.528C277.809 226.891 276.064 228.246 274.811 229.331C272.627 231.214 270.428 233.068 268.5 235.193L267.885 235.42C267.408 235.135 267.335 235.127 267.137 234.629C267.511 232.98 269.329 231.698 270.553 230.599C272.869 228.532 275.522 226.495 277.494 224.113L277.684 223.879V223.893Z" fill="#231F20"/>
<path d="M293.941 235.721L294.483 235.64C294.96 236.007 294.901 236.021 294.989 236.608C294.381 237.853 292.526 238.923 291.412 239.781L285.373 244.522L281.481 247.863C280.74 248.56 280.008 249.263 279.333 250.018C278.747 250.67 278.248 251.498 277.384 251.799C276.753 251.74 276.746 251.711 276.277 251.293L276.306 251C276.482 249.835 278.219 248.464 279.084 247.636C283.636 243.291 288.818 239.407 293.948 235.721H293.941Z" fill="#231F20"/>
<path d="M290.562 226.063L291.244 226.026L291.735 226.553C291.757 227.081 291.808 227.257 291.442 227.697C290.584 228.708 289.03 229.697 287.997 230.599L282.522 235.289C278.256 238.637 273.778 241.737 269.688 245.284C267.525 247.16 265.693 249.117 263.971 251.366C263.546 251.359 263.399 251.278 263.025 251.102C262.739 250.648 262.644 250.56 262.798 250.018C263.062 249.102 264.301 247.973 264.967 247.292C270.003 242.133 275.984 238.308 281.525 233.728L287.029 228.972C288.165 227.968 289.272 226.876 290.562 226.063Z" fill="#231F20"/>
<path d="M242.224 60.0459C242.906 59.8774 243.932 59.9507 244.65 59.9213C248.784 59.7748 252.463 60.1558 256.267 61.8193C259.712 63.3289 262.893 66.7877 264.586 69.9827C265.517 71.7268 266.155 73.6541 266.88 75.4861L77.5091 91.4392L54.5972 93.6596C54.8903 88.3614 56.8546 83.5982 60.6733 79.729C63.715 76.6439 67.7169 74.6727 72.056 73.7933C74.3721 73.3243 76.8128 73.1484 79.1655 72.9286L91.4277 71.866L133.997 68.3852L191.512 63.7026L242.231 60.0459H242.224Z" fill="#FEFEFE"/>
<path d="M81.6429 78.4832C82.4345 78.4612 83.2407 78.4832 84.0103 78.681C84.9925 78.9302 85.7914 79.641 86.2531 80.4911C86.7515 81.3997 86.9568 82.5429 86.6123 83.5395C86.1285 84.9538 85.0731 85.6573 83.7171 86.2656C83.0502 86.3682 82.4711 86.3975 81.8115 86.2509C80.7341 86.0091 79.8838 85.3862 79.3561 84.4629C78.7185 83.3563 78.6012 82.0959 79.0263 80.9088C79.4514 79.7216 80.5215 79.0181 81.6429 78.4832Z" fill="#231F20"/>
<path d="M95.2537 77.7358L95.4883 77.7578C96.0526 77.8018 96.6317 77.8164 97.1814 77.963C98.3394 78.2708 99.1603 79.0182 99.6807 80.0442C100.179 81.0261 100.282 82.2792 99.864 83.3051C99.2996 84.7121 98.2955 85.2691 96.9248 85.8406C96.2725 85.9139 95.5176 85.9359 94.8946 85.7087C93.7878 85.313 92.747 84.2651 92.3439 83.2099C91.9042 82.0521 92.124 80.5571 92.7324 79.4946C93.3407 78.432 94.081 78.0876 95.2537 77.7358Z" fill="#231F20"/>
<path d="M69.7105 79.4725C70.3922 79.3993 71.2497 79.348 71.9094 79.5092C73.4559 79.8756 74.3941 81.5097 75.1637 82.7115C75.105 83.4956 75.0904 84.3383 74.8412 85.1005C74.438 86.3316 73.2873 86.9691 72.1586 87.5334C71.345 87.6286 70.634 87.7092 69.8351 87.4674L69.5713 87.3795C68.6624 87.079 68.0028 86.6613 67.475 85.8699C66.8814 84.9759 66.6981 83.6642 66.9473 82.6529C67.3578 81.0261 68.2813 80.2933 69.7032 79.4872L69.7105 79.4725Z" fill="#231F20"/>
<path d="M321.551 128.666L321.654 128.754C321.807 129.582 320.943 131.113 320.649 131.949L317.791 140.332L315.834 146.817C311.011 163.129 307.354 179.903 305.192 196.736L217.407 229.411C217.363 229.338 217.275 229.272 217.275 229.192C217.267 228.928 217.568 228.254 217.656 227.982L218.623 225.051L220.28 218.83L236.903 157.296C239.967 155.779 243.426 154.805 246.651 153.662L269.812 145.872L321.551 128.666Z" fill="#FEFEFE"/>
<path d="M261.325 154.292L261.911 154.131C262.175 154.285 262.344 154.277 262.388 154.6C262.505 155.501 261.904 156.52 261.398 157.245H260.922C260.584 156.849 260.401 156.725 260.394 156.19C260.379 155.45 260.841 154.819 261.325 154.284V154.292Z" fill="#231F20"/>
<path d="M245.772 160.213C246.021 160.147 246.292 160.125 246.549 160.088L246.981 160.506C247.003 160.821 247.01 161.078 246.959 161.393C246.768 162.433 246.307 163.987 245.42 164.61C245.141 164.558 244.907 164.419 244.65 164.302C244.313 163.848 244.159 163.635 244.21 163.071C244.306 161.942 244.936 160.96 245.786 160.213H245.772Z" fill="#231F20"/>
<path d="M252.705 156.461C253.277 156.373 253.35 156.358 253.871 156.578C254.494 157.472 254.494 158.198 254.259 159.246C254.091 160 253.944 160.184 253.255 160.601L252.434 160.682L251.818 160.088C251.665 159.641 251.518 159.194 251.555 158.718C251.628 157.78 251.943 157.04 252.713 156.461H252.705Z" fill="#231F20"/>
<path d="M269.908 151.141C270.494 151.016 270.56 151.002 271.117 151.207C271.821 152.233 271.843 152.797 271.571 153.991C271.373 154.849 271.132 155.135 270.369 155.604C270.12 155.655 269.893 155.633 269.636 155.626C269.043 155.135 268.618 154.666 268.566 153.881C268.5 152.921 269.321 151.852 269.915 151.141H269.908Z" fill="#231F20"/>
<path d="M265.092 77.6258L267.54 77.4353L276.079 138.903C271.667 140.676 266.946 142.076 262.417 143.563L241.865 150.562L237.152 152.152C236.045 152.504 234.763 152.811 233.766 153.405C233.048 153.837 232.615 154.248 232.417 155.061L218.396 206.526L183.486 209.882L173.181 210.644C171.378 210.762 169.45 210.652 167.698 211.069C166.753 211.297 166.401 211.253 165.734 211.963C165.675 212.652 165.668 212.645 166.086 213.216C166.973 213.517 167.53 213.304 168.416 213.107C171.575 212.41 175.218 212.542 178.472 212.352L192.069 211.289L210.466 209.45C212.73 209.223 215.713 208.585 217.942 208.827L213.903 223.827C213.493 225.146 213.068 226.458 212.533 227.741C212.063 228.869 211.008 230.577 211.118 231.793C211.243 233.171 211.66 233.772 212.62 234.798C213.815 236.073 215.325 237.113 216.703 238.19L221.944 242.389L246.842 262.109C247.15 262.109 247.435 262.109 247.736 262.05C249.576 261.728 251.562 261.779 253.438 261.691L265.092 261.215L288.671 260.087L289.052 262.344C290.232 271.592 290.921 281.631 288.7 290.769C287.953 293.847 286.919 296.888 284.83 299.401C282.331 302.399 278.388 304.392 274.606 305.52C266.631 307.902 257.653 308.283 249.37 309.053L214.094 311.962L197.852 313.164L106.702 320.074C102.055 320.118 97.5772 318.469 94.2862 315.311C89.61 310.826 87.2426 304.773 85.5349 298.786C83.3727 291.194 82.0827 283.111 80.7414 275.351L75.5961 244.786L65.6134 177.17L62.0366 147.99L58.1007 113.328L56.9206 102.673C56.6494 100.306 56.2683 98.0564 56.283 95.6748L265.085 77.6258H265.092Z" fill="#FEFEFE"/>
<path d="M148.568 242.03C148.839 242.03 149.096 242.133 149.353 242.199C149.719 242.639 149.814 242.844 149.858 243.408C149.477 243.958 149.36 244.002 148.73 244.287C148.041 244.185 147.967 244.067 147.469 243.635L147.432 242.917C147.784 242.375 147.975 242.272 148.568 242.03Z" fill="#231F20"/>
<path d="M147.007 217.188L147.498 217.232C148.026 217.577 148.172 217.562 148.334 218.178C147.755 220.442 146.091 222.823 145.109 225C144.332 226.715 143.753 228.796 142.815 230.401C142.661 230.657 142.485 230.804 142.25 230.994C141.788 230.98 141.561 230.972 141.158 230.723C140.792 230.496 140.858 230.386 140.755 230.012C141.605 226.847 143.21 223.63 144.684 220.698C145.292 219.489 145.842 218.009 147 217.196L147.007 217.188Z" fill="#231F20"/>
<path d="M104.54 178.35C104.98 178.298 105.134 178.335 105.544 178.445C105.962 178.848 106.079 179.061 106.16 179.632C106.717 183.794 106.754 188.118 107.179 192.31C107.406 194.567 108.022 196.816 108.22 199.051C108.293 199.843 108.132 200.055 107.597 200.627C107.34 200.686 107.054 200.7 106.79 200.737L106.563 200.532C105.867 199.806 105.764 197.666 105.588 196.662C104.855 192.361 104.438 188.037 104.122 183.692C104.02 182.3 103.749 180.702 103.895 179.317C103.961 178.716 104.064 178.709 104.54 178.35Z" fill="#231F20"/>
<path d="M105.083 142.069L105.361 142.032C105.962 142.032 106.131 142.215 106.578 142.56C106.812 143.629 104.973 145.747 104.401 146.781C102.334 150.474 99.1603 156.805 100.685 160.99C100.963 161.752 101.476 162.499 101.11 163.313C100.934 163.694 100.663 163.694 100.289 163.855C99.7467 163.789 99.5635 163.84 99.2117 163.393C97.8117 161.591 97.8191 159.004 98.1635 156.901C98.8525 152.606 100.626 148.268 103.06 144.604C103.668 143.688 104.152 142.735 105.083 142.076V142.069Z" fill="#231F20"/>
<path d="M108.117 217.98C108.286 217.943 108.476 217.899 108.645 217.914C109.15 217.958 109.517 218.112 109.729 218.566C109.942 219.02 109.788 220.405 109.795 220.962L109.905 229.214C109.949 230.511 110.125 231.874 110.301 233.156C110.909 237.663 112.192 243.327 117.491 244.559C118.686 244.837 119.925 244.764 120.709 245.746C120.746 246.456 120.746 246.449 120.299 247.013L119.162 247.05C116.56 246.947 113.746 245.929 111.994 244.053C107.01 238.733 107.061 226.29 107.399 219.519C107.435 218.713 107.501 218.522 108.124 217.972L108.117 217.98Z" fill="#231F20"/>
<path d="M160.83 154.673C161.395 154.563 162.164 154.629 162.751 154.614C163.366 154.915 163.52 155.135 163.865 155.677C163.901 156.3 163.953 156.769 163.682 157.355C163.183 157.817 162.729 158.044 162.032 158.139C159.775 158.447 157.217 158.308 154.923 158.366L141.224 158.967L142.756 171.425C142.895 172.627 143.269 173.814 143.254 175.023V175.191L142.851 175.785C142.206 176.019 142.118 175.983 141.437 175.844C140.689 174.972 139.714 164.917 139.472 162.924C139.333 161.781 139.406 160.271 138.893 159.238L138.703 158.835C138.564 158.322 138.783 158.066 139.091 157.685C140.858 157.018 143.423 157.032 145.329 156.761C150.467 156.051 155.656 155.083 160.823 154.673H160.83Z" fill="#231F20"/>
<path d="M199.288 144.223C200.329 144.15 201.304 144.062 202.345 144.223C202.968 144.707 203.143 144.985 203.363 145.718C203.297 146.399 203.195 146.641 202.777 147.191C202.513 147.367 202.242 147.557 201.919 147.623C201.106 147.799 200.006 147.704 199.149 147.777L186.359 148.532L161.226 150.335L145.592 151.177L142.448 151.28C141.862 151.192 141.745 150.965 141.4 150.547C141.525 149.88 141.671 149.792 142.14 149.309C146.164 149.631 150.613 148.803 154.674 148.532L174.427 147.03L199.295 144.223H199.288Z" fill="#231F20"/>
<path d="M184.556 294.616C185.589 294.587 186.887 294.418 187.883 294.682L188.103 294.748C190.053 295.298 192.098 296.316 193.197 298.016C194.033 299.314 194.517 301.109 194.077 302.618L194.004 302.853C193.622 304.121 193.021 305.293 192.237 306.378C190.691 308.518 189.012 309.25 186.396 309.712C184.145 309.844 181.969 309.382 180.07 308.173C178.421 307.118 177.058 305.44 176.713 303.542C176.354 301.578 177.571 299.174 178.758 297.665C180.173 295.869 182.276 294.953 184.541 294.616H184.556Z" fill="#231F20"/>
<path d="M185.501 304.084L188.147 306.246C187.744 306.649 187.136 306.7 186.579 306.847C185.487 306.986 184.556 306.847 183.486 306.671C184.101 305.74 184.761 304.927 185.501 304.091V304.084Z" fill="#FEFEFE"/>
<path d="M184.483 296.991C185.589 296.844 186.681 296.954 187.796 297.042C186.975 298.332 186.168 299.541 185.113 300.662C184.263 299.878 182.555 299.013 182.042 298.119L182.328 297.613C183.046 297.254 183.684 297.122 184.483 296.983V296.991Z" fill="#FEFEFE"/>
<path d="M180.004 299.995C181.419 300.164 182.672 301.637 183.691 302.523L181.829 305.315L181.544 305.777L181.199 305.843C180.246 305.279 179.389 304.473 179.081 303.403C178.795 302.413 179.455 300.831 179.997 299.995H180.004Z" fill="#FEFEFE"/>
<path d="M189.899 298.104C190.676 298.661 191.761 299.599 191.966 300.537C192.23 301.717 191.475 303.241 190.845 304.216C190.5 304.744 190.302 305.176 189.665 305.308C188.954 304.157 188.037 303.454 186.967 302.619C187.7 300.918 188.734 299.548 189.899 298.097V298.104Z" fill="#FEFEFE"/>
<path d="M269.776 279.081C269.82 279.037 270.64 279.03 270.772 279.022L271.388 279.579C271.498 280.165 271.542 280.231 271.278 280.766C270.897 281.023 270.604 281.103 270.157 281.155L256.81 282.466L227.375 285.31L125.195 295.452C118.378 296.14 111.379 296.47 104.628 297.584L104.306 297.613C103.521 297.672 103.265 297.613 102.7 297.13C102.715 296.397 102.7 296.36 103.177 295.789C104.562 295.298 106.072 295.239 107.531 295.093L114.523 294.404L135.852 292.257L198.636 286.138L269.776 279.073V279.081Z" fill="#231F20"/>
<path d="M180.415 173.022C180.803 172.883 181.14 172.802 181.558 172.898C182.599 173.132 183.676 173.748 184.666 174.173C187.869 175.543 191.013 177.141 194.399 178.049C194.92 178.188 195.543 178.284 195.968 178.621C196.481 179.031 196.408 179.222 196.452 179.823C195.741 181.208 193.461 182.629 192.215 183.684C189.298 186.147 186.396 188.873 183.266 191.071C182.518 191.034 182.438 190.961 181.844 190.573C181.162 189.43 181.859 187.796 182.174 186.608C179.462 187.554 177.109 188.975 174.734 190.492C166.738 195.607 159.599 202.54 153.86 209.897C153.193 210.784 152.629 211.685 151.669 212.3C150.958 212.322 150.987 212.315 150.437 211.875C150.129 210.542 151.493 209.098 152.218 207.977C156.506 201.352 161.857 195.248 167.691 189.825L173.906 184.388C174.954 183.487 176.325 182.571 177.058 181.413L176.86 181.12C175.218 180.372 171.15 180.878 169.347 181.435C168.49 181.699 167.2 182.468 166.328 182.417C165.895 182.395 165.697 182.028 165.419 181.728C165.36 181.252 165.213 181.134 165.551 180.739C167.713 178.196 177.63 177.544 180.986 177.221C181.067 176.54 179.755 175.44 179.711 174.51C179.674 173.814 179.96 173.513 180.415 173.03V173.022Z" fill="#231F20"/>
<path d="M249.59 132.623C250.888 132.52 253.343 132.124 254.486 132.769C255.168 133.158 255.285 133.26 255.505 133.986L255.19 134.418C254.105 134.25 252.786 134.477 251.687 134.565L244.013 135.283L208.311 138.734L162.34 142.64L127.034 145.557L138.109 228.759L138.527 231.185C138.307 231.441 138.131 231.654 137.801 231.786C137.244 232.013 137.208 231.991 136.695 231.771C136.511 231.5 136.394 231.295 136.321 230.972C135.485 227.308 135.28 223.38 134.745 219.658L130.956 191.826L126.675 159.216C126.081 154.614 125.077 149.844 124.769 145.242C124.74 144.853 124.813 144.421 125.077 144.106C125.151 144.025 125.451 143.681 125.598 143.622C125.935 143.49 126.99 143.549 127.408 143.527L132.524 143.175L154.439 141.292L249.598 132.615L249.59 132.623Z" fill="#231F20"/>
<path d="M249.048 93.1687C252.09 92.9855 255.036 93.9455 257.286 95.9387C260.643 98.9139 260.966 103.582 261.178 107.671C261.332 110.727 260.555 114.142 258.327 116.443C256.568 118.26 254.501 119.476 251.914 119.887C249.436 120.275 246.71 120.238 244.188 120.4L229.654 121.345L207.329 122.627L188.235 123.771L106.204 131.634L82.1047 133.568C79.4001 133.458 76.6076 132.615 74.526 130.893C71.2351 128.167 69.5639 124.738 69.3221 120.605C69.1315 117.344 70.2089 114.098 72.5031 111.665C74.7385 109.305 77.8682 108.594 81.0052 108.03C82.6544 107.737 84.3548 107.656 86.0259 107.488L97.6065 106.396L139.626 102.534L214.006 95.7335L249.041 93.1687H249.048Z" fill="#231F20"/>
<path d="M240.619 102.593C241.235 102.593 241.938 102.637 242.525 102.79C243.14 102.952 243.499 103.531 243.822 104.021C243.969 105.165 243.939 105.868 243.184 106.806C242.275 107.942 241.081 108.198 239.673 108.396C239.138 108.396 238.53 108.33 238.017 108.155C237.423 107.957 236.947 107.334 236.764 106.784C236.536 106.103 236.742 105.348 237.094 104.74C237.812 103.501 239.256 102.922 240.612 102.593H240.619Z" fill="#FEFEFE"/>
<path d="M202.586 105.157C203.187 105.113 203.517 104.981 204.03 105.311C204.162 106.586 203.957 107.898 203.84 109.166L193.007 110.609L192.86 110.631C192.296 110.653 191.856 110.719 191.416 110.368L191.365 106.96C192.523 106.586 193.835 106.462 195.044 106.286L202.601 105.15L202.586 105.157Z" fill="#FEFEFE"/>
<path d="M105.713 117.608C106.336 117.476 107.142 117.527 107.787 117.49L107.494 121.543L97.3573 122.832L95.3783 123.111L95.4003 118.905L105.713 117.615V117.608Z" fill="#FEFEFE"/>
<path d="M153.802 110.917L154.146 111.049C154.454 112.302 154.315 113.826 154.329 115.123L142.543 116.53C142.162 116.42 142.36 116.508 141.957 116.245L142.016 112.251L153.794 110.924L153.802 110.917Z" fill="#FEFEFE"/>
</g>
<defs>
<clipPath id="clip0_30_59">
<rect width="365" height="331" fill="white"/>
</clipPath>
</defs>
</svg>
