<svg width="322" height="332" viewBox="0 0 322 332" fill="none" xmlns="http://www.w3.org/2000/svg">
<g clip-path="url(#clip0_148_361)">
<path d="M12.8581 132.514L13.1684 132.584C14.1905 134.146 14.2817 136.874 14.6741 138.7L23.088 136.524C23.5808 136.431 23.5078 136.353 23.9549 136.633L24.0553 137.231C23.2614 138.101 16.7091 139.609 14.957 140.145L15.9335 145.033C16.0338 145.601 16.2529 146.075 15.8787 146.549L15.6232 146.331L14.2543 140.285L6.48837 142.702C5.74919 142.927 4.82749 143.316 4.11569 142.989L4.00618 142.15C4.95525 141.513 6.09596 141.28 7.20017 140.946L13.8528 138.995C13.4604 136.99 12.63 134.527 12.8672 132.522L12.8581 132.514Z" fill="#231F20"/>
<path d="M102.043 259.277L100.866 256.045L96.6502 257.171C95.546 257.443 93.5748 258.018 92.5345 257.459C92.936 256.923 93.6296 256.783 94.2684 256.526C96.2761 255.734 98.3202 255.112 100.401 254.498C99.8351 252.563 99.0776 250.511 98.8586 248.514C98.7947 247.97 98.8404 248.001 99.2145 247.566L99.5522 247.706L102.016 253.977C102.993 254.498 112.009 250.97 114.181 251.188L114.409 252.377C113.195 252.858 111.835 253.115 110.567 253.464L102.527 255.671C102.436 256.557 103.212 258.259 103.431 259.207C103.878 260.754 104.215 262.207 104.124 263.831C102.965 262.526 102.409 260.917 102.043 259.277Z" fill="#231F20"/>
<path d="M309.872 118.479H310.219C311.177 119.241 311.487 120.873 311.861 121.992L314.49 130.276C316.26 129.763 320.001 128.022 321.635 128.558C322.027 129.141 322.046 129.118 321.927 129.794C320.303 130.944 317.109 131.395 315.101 131.791L317.136 137.122C316.689 137.557 316.671 137.557 316.023 137.651L315.448 136.672L313.613 132.009C312.299 132.421 305.273 134.239 304.314 133.944L304.004 133.252C304.105 133.112 304.159 132.918 304.314 132.833C304.771 132.584 305.847 132.444 306.386 132.312L313.267 130.626L310.757 123.321C310.264 121.883 309.616 120.305 309.416 118.806L309.854 118.487L309.872 118.479Z" fill="#231F20"/>
<path d="M182.733 7.04843C183.253 6.90855 183.162 6.85415 183.7 7.07174C184.485 8.50164 184.786 10.2812 185.279 11.8277L188.044 20.0496C190.435 19.1481 192.808 17.9048 195.089 16.7779C195.974 16.335 197.234 15.5268 198.201 15.3791C198.584 15.3247 198.657 15.519 198.922 15.7366L198.904 16.2573C195.764 18.2622 191.986 19.8398 188.555 21.4096L193.036 30.9215C193.045 31.4655 193.081 31.5043 192.735 31.9395L192.178 32.0094C191.43 31.3877 191.028 30.3386 190.581 29.5071C189.221 26.9504 188.172 24.4092 187.15 21.7282C183.353 22.8317 179.895 23.7176 175.971 24.3082C175.505 24.044 175.524 23.9663 175.323 23.4767C175.423 23.3368 175.478 23.1581 175.633 23.057C176.591 22.4353 179.347 22.3576 180.561 22.1245C182.267 21.7981 184.366 21.3008 185.954 20.6558C186.036 20.6247 186.593 20.376 186.602 20.3371C186.639 20.2128 185.972 18.6586 185.899 18.4565L183.098 9.72948C182.961 9.25544 182.468 8.12085 182.514 7.67012C182.532 7.45253 182.669 7.25048 182.751 7.04066L182.733 7.04843Z" fill="#231F20"/>
<path d="M305.875 246.043C306.623 245.903 306.632 245.927 307.317 246.253C307.445 247.053 307.006 247.597 306.669 248.336C305.911 249.975 305.035 251.584 304.406 253.262C304.36 253.395 304.041 254.125 304.068 254.218C304.114 254.428 304.99 255.135 305.19 255.322C305.939 256.006 310.31 259.697 310.493 260.28C310.566 260.513 310.511 260.769 310.511 261.01C309.981 261.624 310.018 261.57 309.178 261.663L303.009 256.122C301.221 258.524 300.235 261.376 299.012 264.049C298.629 264.88 298.246 266.077 297.598 266.753C297.279 267.087 297.142 266.994 296.685 267.025L296.01 266.404C295.682 265.277 297.507 262.479 298.091 261.345L300.217 257.389L292.916 258.562C292.104 258.656 291.475 258.726 290.781 258.228C290.763 257.583 290.781 257.521 291.155 256.977C294.167 256.223 297.388 256.317 300.399 255.609C301.139 255.431 301.13 255.314 301.504 254.723C301.084 254.032 300.308 253.488 299.697 252.936C298.182 251.584 296.485 250.263 295.152 248.755C295.143 248.188 295.353 247.955 295.672 247.496L296.12 247.411C298.31 248.6 300.473 251.032 302.252 252.734C303.329 250.675 304.296 247.737 305.866 246.028L305.875 246.043Z" fill="#231F20"/>
<path d="M154.717 276.794C158.796 281.534 162.565 286.655 166.133 291.738C171.198 298.949 175.77 306.192 179.73 313.994C182.578 319.597 185.334 325.635 186.757 331.705L186.42 332L186.036 331.495C180.99 318.066 173.379 305.174 164.646 293.525L153.102 278.806L154.717 276.786V276.794Z" fill="#231F20"/>
<path d="M278.836 290.222C283.033 290.074 287.815 289.841 291.967 290.354C292.36 290.852 292.369 290.867 292.36 291.481C291.94 291.924 291.703 292.041 291.073 292.149C288.682 292.577 286.118 292.654 283.69 292.965L255.638 295.996L200.227 301.273C196.978 301.545 193.766 301.91 190.499 301.879C189.413 301.871 188.245 301.933 187.35 301.265C186.885 300.915 186.593 300.488 186.557 299.936C186.52 299.415 186.538 299.151 186.949 298.755C189.148 296.61 202.691 295.53 206.232 295.133C230.387 292.437 254.516 290.595 278.854 290.207L278.836 290.222Z" fill="#231F20"/>
<path d="M172.503 230.835C172.32 231.2 172.065 231.402 171.691 231.589C170.596 232.14 169.026 232.296 167.849 231.9C167.018 231.62 166.243 230.835 165.896 230.081C165.503 229.242 165.513 228.263 165.869 227.423C166.352 226.265 167.292 225.481 168.515 225.038C169.555 224.657 170.806 224.742 171.8 225.201C172.658 225.597 173.306 226.258 173.552 227.128C173.844 228.177 173.507 229.203 172.977 230.128C174.255 229.926 175.797 230.431 176.856 231.115C178.672 232.296 179.94 233.936 180.278 235.995C180.807 239.166 179.721 241.924 177.714 244.427C176.755 245.631 175.569 246.68 174.264 247.551L174.292 247.792C174.885 253.13 172.211 257.669 168.679 261.655C167.256 263.256 165.65 264.888 163.76 266.007C167.338 268.261 170.751 269.535 175.067 270.025C180.059 270.592 185.151 270.211 190.134 269.807L207.856 268.175L241.311 265.766C242.287 265.712 248.082 265.253 248.684 265.727C248.812 265.829 248.803 266.007 248.867 266.147L248.757 266.691C248.009 267.103 246.959 267.095 246.102 267.196L241.165 267.779L202.289 271.719C195.509 272.263 188.655 272.947 181.848 273.063C178.517 273.126 174.985 272.885 171.755 272.115C166.37 270.833 160.758 267.732 157.893 263.179C156.04 260.225 154.872 256.55 155.83 253.161C156.898 249.385 160.612 245.188 164.217 243.207C165.759 242.36 167.675 241.808 169.464 242.305C171.59 242.896 172.722 244.535 173.826 246.191C176.39 243.595 178.791 240.665 178.562 236.92C178.462 235.249 178.079 233.811 176.628 232.716C175.368 231.767 173.908 231.488 172.503 230.827V230.835Z" fill="#231F20"/>
<path d="M169.272 226.141C169.765 226.048 170.167 226.071 170.65 226.188C171.435 226.382 171.745 226.786 172.12 227.392C172.156 227.983 172.257 228.674 171.937 229.211C171.444 230.042 170.705 230.4 169.774 230.687C169.51 230.757 169.391 230.804 169.099 230.788C168.223 230.749 167.785 230.229 167.237 229.692C167.009 228.908 166.836 228.317 167.292 227.548C167.748 226.771 168.415 226.421 169.272 226.126V226.141Z" fill="#FEFEFE"/>
<path d="M167.1 243.673C167.748 243.626 168.415 243.587 169.035 243.774C170.669 244.256 171.572 245.996 172.238 247.333L170.733 248.654C171.289 249.089 171.572 248.429 172.284 248.677L172.348 249.804C172.156 254.925 167.575 259.992 163.843 263.349C163.35 263.722 162.985 264.041 162.346 264.158C160.329 262.386 158.887 259.938 158.084 257.49C157.263 254.988 157.619 252.649 158.942 250.364C160.667 247.387 163.614 244.66 167.11 243.665L167.1 243.673Z" fill="#FEFEFE"/>
<path d="M287.925 162.379C287.651 160.513 288.162 158.936 289.394 157.436C291.201 155.237 294.678 153.675 297.616 153.434C298.565 153.356 299.961 153.481 300.692 154.118C301.148 154.514 301.349 154.957 301.358 155.524C301.376 156.496 301.057 157.358 300.29 158.027C299.487 158.726 298.164 159.41 297.078 159.363L296.813 158.897C297.434 157.755 299.487 157.902 300.025 156.387C300.253 155.742 300.071 155.548 299.752 154.996C299.168 154.708 298.757 154.584 298.082 154.576C295.873 154.545 292.761 155.921 291.201 157.351C289.722 158.711 289.202 160.032 289.202 161.928V162.215L289.348 162.518C290.471 164.788 292.533 166.435 294.231 168.316C297.342 171.758 297.498 176.569 295.955 180.633C295.034 183.081 293.455 185.521 291.575 187.441C290.452 188.583 289.221 189.648 287.906 190.596C287.56 190.844 286.017 191.722 285.899 191.994C285.415 193.067 285.388 194.714 284.986 195.903C283.508 200.387 279.657 204.693 275.076 206.721C270.139 208.905 264.964 209.371 259.79 207.576C255.93 206.239 252.663 203.356 251.002 199.836C250.345 198.452 249.944 197.046 249.734 195.546L249.679 195.15C249.095 190.914 250.564 186.803 253.375 183.485C256.697 179.568 262.154 177.152 267.428 176.646C272.101 176.203 277.029 177.136 280.715 179.972C283.791 182.335 285.515 185.583 285.862 189.251L285.926 190.067C290.16 187.052 294.367 182.576 295.161 177.493C295.636 174.494 295.061 171.502 293.035 169.077C291.11 166.777 288.746 165.332 287.916 162.371L287.925 162.379Z" fill="#231F20"/>
<path d="M267.602 178.356C271.836 178.076 276.189 178.698 279.584 181.27C282.969 183.827 283.763 186.928 284.265 190.759C282.294 191.567 279.876 192.585 277.713 192.725C276.253 192.818 274.473 192.787 273.351 191.769C272.667 191.155 272.493 190.557 272.484 189.694C273.369 187.86 274.838 188.179 276.691 188.404C277.311 188.482 277.503 188.622 278.06 188.326L278.005 188.016C277.795 187.821 277.594 187.619 277.33 187.479C276.435 187.005 274.619 186.92 273.643 187.138C272.721 187.34 271.818 187.829 271.343 188.614C270.86 189.407 270.832 190.44 271.097 191.303C271.407 192.313 272.384 193.362 273.397 193.813C276.946 195.39 280.861 193.689 284.21 192.492L283.344 195.756C282.787 197.038 282.166 198.281 281.354 199.447C278.762 203.185 274.756 205.633 270.12 206.604L268.815 206.845C264.672 207.436 260.42 206.503 257.071 204.172C254.059 202.074 252.097 198.911 251.577 195.445C251.02 191.761 252.097 187.907 254.543 184.938C257.792 180.983 262.4 179.017 267.593 178.348L267.602 178.356Z" fill="#FEFEFE"/>
<path d="M61.0509 70.6321C66.5902 74.3467 73.7721 76.1807 80.1874 78.209C81.9852 78.7763 84.3214 79.227 85.9457 80.0974C86.4568 80.3694 86.7123 80.5636 86.8492 81.0921C86.1648 82.0324 85.0332 82.6852 84.075 83.3768C85.3343 83.7964 87.78 84.2161 88.6287 85.1642C89.0302 85.6149 89.2584 86.2521 89.0759 86.8505C88.7382 87.9463 86.4659 89.3062 85.4895 90.0445L77.8056 96.0671L67.1286 104.545C62.1824 108.571 57.1907 112.713 51.8522 116.28C51.0035 116.07 50.2187 115.495 49.4612 115.083L45.0535 112.791L24.685 102.719C23.818 102.307 22.8507 101.973 22.2941 101.204C22.8964 99.8517 24.8766 99.0435 26.1542 98.2897C34.4677 102.082 42.6717 105.097 49.5981 111.011L49.7624 110.832C47.5357 108.4 44.1501 106.317 41.2299 104.693C36.3841 101.989 31.3376 99.7817 26.2911 97.4504C24.4477 96.6033 21.8104 95.7174 20.3138 94.4429L20.5145 93.7669C21.2629 93.0441 22.3214 92.6633 23.2614 92.1893L26.7565 90.2698L50.7297 76.6936C54.2066 74.7275 57.4827 72.4816 61.0417 70.6399L61.0509 70.6321Z" fill="#231F20"/>
<path d="M61.1421 72.4585C64.3726 74.3469 67.886 75.5281 71.445 76.7637L84.6225 81.3021L84.0294 81.7062C83.6917 81.9238 82.3411 82.8563 82.0217 82.8796C81.5928 82.9107 80.4795 82.4056 79.9867 82.2579C77.4406 81.4731 74.9219 80.5017 72.2755 80.0432L64.7741 86.2601L52.1077 95.6321C51.1586 96.3238 48.0376 98.0567 47.6635 99.0048L48.0285 99.5099C48.9958 99.4944 49.6073 99.0126 50.3921 98.523C52.4818 97.2252 54.4256 95.6865 56.4059 94.2333C62.0273 90.1146 67.5849 86.1513 72.7774 81.543L87.2507 86.1902C84.2027 89.3142 80.2878 92.0807 76.8383 94.8395L54.2613 112.674C53.7047 113.156 52.9746 113.832 52.1989 113.918L52.0803 113.599L52.6005 112.721C52.7739 111.12 51.8065 109.644 51.0582 108.253L58.9976 102.813L69.4556 94.4043L77.0391 88.4127C77.906 87.7133 79.4391 86.773 79.9137 85.8094C79.7403 85.3664 79.6125 85.2032 79.2019 84.9157C78.1342 85.4208 77.2033 86.2756 76.2999 86.9984L71.8374 90.5731C64.8015 96.1994 57.6561 102.58 49.6346 106.963L23.2888 94.1323L61.1421 72.474V72.4585Z" fill="#FEFEFE"/>
<path d="M64.0715 77.8437L64.2084 77.867C64.6646 78.0846 64.8654 78.3644 65.0753 78.784C63.1589 80.9522 59.7641 82.7629 57.2455 84.3326L41.5219 93.728L41.1386 93.7047L40.8466 93.184C40.9743 92.6789 41.02 92.64 41.4763 92.3136C43.42 90.9148 45.6467 89.7181 47.7091 88.4669C53.221 85.1331 59.0888 81.8148 64.0806 77.8359L64.0715 77.8437Z" fill="#231F20"/>
<path d="M296.594 44.9562C298.264 45.4535 299.934 46.4949 301.038 47.7771C303.155 50.2328 304.533 54.0096 304.077 57.1647L304.022 57.5222C303.493 60.957 301.385 64.05 298.93 66.5756C293.701 71.961 286.948 75.5746 280.743 79.8488L260.913 93.9223L256.359 97.0308C255.939 97.3106 255.255 97.6214 255.063 98.0566C257.354 97.3883 259.735 95.733 261.853 94.6295L278.826 85.4285C286.036 81.4652 293.227 76.6781 301.44 74.7431C303.776 74.1913 306.696 73.8183 309.06 74.4167C312.208 75.2171 314.435 77.2299 315.959 79.841C317.465 82.421 318.14 85.6616 317.191 88.5292L317.081 88.8478C316.16 91.591 314.307 93.7281 312.272 95.8341C305.364 102.96 296.037 107.973 287.569 113.296L276.536 120.64C279.967 119.987 283.38 119.396 286.811 120.337C288.883 120.904 290.863 122.272 291.876 124.067C293.218 126.445 293.199 129.289 292.323 131.783C291.155 135.11 289.02 137.938 286.51 140.503C282.732 144.365 278.142 147.52 273.607 150.559C260.794 159.154 246.777 166.256 232.65 172.784L217.018 179.755C218.487 182.304 220.249 185.117 220.659 188.031C221.07 190.938 220.23 193.168 218.323 195.422C219.245 197.225 220.614 198.748 221.453 200.613C219.646 202.602 216.671 203.985 214.308 205.33C215.348 207.622 216.699 209.822 217.985 212.005C218.615 213.078 219.245 214.414 220.121 215.324C221.252 216.505 222.895 217.002 223.835 218.455C225.587 221.168 226.363 224.797 227.221 227.82L228.863 233.928C229 234.48 229.429 235.684 229.283 236.213C229.21 236.484 228.982 236.694 228.836 236.935L228.288 236.982C226.545 236.181 224.884 234.581 223.388 233.399C220.376 231.014 217.164 228.636 214.49 225.916C212.966 224.369 212.419 223.087 212.519 220.997C212.565 220.01 206.441 211.827 205.438 210.56C203.722 211.469 201.568 213.435 199.597 213.272C198.885 212.767 198.548 211.865 198.128 211.15L196.221 208.252C194.861 208.252 193.355 208.337 192.014 208.128C188.546 207.568 187.268 205.485 185.398 202.991C184.302 203.232 183.299 203.659 182.267 204.063C182.14 204.289 182.03 204.498 181.939 204.739L181.866 204.949C180.232 205.843 178.216 206.309 176.427 206.876C169.199 209.177 161.707 210.723 154.279 212.332C146.559 214.003 138.583 215.852 130.68 216.528C124.474 217.064 117.822 216.924 111.653 216.147C111.352 219.209 110.978 222.038 109.746 224.921C108.952 226.771 107.838 228.434 106.743 230.128L111.945 233.951C119.145 239.609 126.327 245.623 132.779 252.027L145.29 265.354L152.855 274.144C152.016 274.734 151.131 275.2 150.218 275.674C148.648 273.203 146.166 270.849 144.222 268.587C132.596 255.05 119.391 243.541 105.201 232.389C103.449 234.394 101.587 236.415 99.3697 237.984C96.5224 240.005 92.3064 242.367 88.5922 241.878C87.2599 241.699 86.0279 241.489 84.732 241.155L68.1507 258.477L35.2343 291.901L27.9429 299.229C26.72 300.465 25.4607 302.003 23.9914 302.967L23.6629 302.718L23.7633 302.198L48.5852 274.602L63.2958 259.58L81.1091 241.373L86.7762 235.451C87.0865 235.125 87.9443 233.998 88.3093 233.835C89.012 233.516 91.0014 233.617 91.8957 233.462C96.7871 232.638 101.496 228.845 104.215 225.123C105.776 222.994 107.145 220.81 108.085 218.37C108.368 217.639 108.769 216.909 108.614 216.14L108.167 216.186C107.93 216.171 107.72 216.039 107.492 216.015C106.807 215.93 105.913 216.085 105.21 216.116C102.299 216.264 99.2145 216.474 96.9148 214.43C96.276 213.863 96.0205 213.56 95.9658 212.751C97.8457 210.311 106.214 210.785 109.262 211.073C114.701 211.586 120.112 212.487 125.606 212.417C132.286 212.324 138.911 210.824 145.381 209.386L166.882 204.164L182.997 199.09C179.922 193.005 175.788 187.285 172.202 181.449L162.346 165.557L155.137 153.465L143.611 135.389L124.602 101.81C122.595 98.383 120.87 94.544 118.479 91.3734C109.59 97.5282 101.496 105.152 95.5277 113.879C92.7444 117.951 90.4265 122.435 88.2363 126.802C84.7686 133.703 81.6293 140.728 75.8801 146.292C71.8648 150.178 66.5719 152.96 61.2516 155.027C59.8554 155.571 58.2858 156.27 56.7527 156.294L56.4333 155.991C56.7253 155.214 57.2181 155.074 57.939 154.615C57.6379 152.47 57.3823 150.263 57.7017 148.103C57.9025 146.759 58.3314 145.391 59.5908 144.583C60.5216 143.984 61.6167 143.844 62.7118 144.031C65.6685 144.536 67.6123 147.303 69.191 149.432L72.5766 146.968C70.35 143.596 65.4312 138.537 61.133 137.495C59.5999 137.122 57.8204 137.223 56.4607 138.008C54.2979 139.252 53.294 141.202 52.7647 143.448C52.0347 146.549 52.3997 150.054 52.9016 153.162C55.0279 166.202 62.0365 178.581 69.7477 189.492C73.6991 195.072 78.0977 200.053 82.989 204.934C86.5572 208.493 90.2348 211.912 94.4418 214.834C95.8198 215.798 97.2799 216.924 98.8404 217.616C100.246 218.238 102.18 218.308 103.713 218.603C103.449 219.528 102.92 221.509 102.162 222.147C101.24 222.932 98.9042 223.623 97.7453 224.222C94.3688 225.947 91.2113 227.897 88.3549 230.306C84.7959 233.306 81.6749 236.702 78.3623 239.927L64.619 253.814L57.1177 261.578C54.2979 260.816 51.3868 260.194 48.6582 259.176C32.9894 253.332 19.8393 241.528 10.7136 228.496C2.39093 216.621 -2.15366 202.991 1.10421 188.839C4.07918 175.932 13.2779 163.544 23.8728 154.98C29.3391 150.566 35.6815 146.774 41.9052 143.363C46.0756 141.086 50.6111 139.586 54.6811 137.184C57.3367 135.615 60.2387 135.335 63.2684 136.003C68.105 137.083 72.9599 140.06 75.579 144.062L75.7615 144.349C80.7076 138.645 83.7008 131.644 87.0865 125.085C89.0941 121.207 91.1565 117.205 93.6205 113.56C98.1468 106.854 103.859 100.784 110.257 95.5776C112.502 93.7436 114.883 91.762 117.475 90.3787L117.794 90.2077L101.04 61.4466C99.6434 59.0065 97.8 56.6907 96.5772 54.1883C95.3726 51.7327 94.8798 48.562 94.2684 45.9354L91.4851 33.9678L87.8987 18.7285L86.1283 8.94458C85.6446 6.31015 84.8598 3.58247 84.6773 0.92473C84.6408 0.380748 84.6043 0.411833 84.9784 0.0155029L85.2431 0.0388164C85.9184 0.178698 86.5116 0.769307 87.0317 1.18118L91.0014 4.39067L100.355 11.6723L121.874 28.5357L128.617 33.8123C129.703 34.6672 130.945 35.4754 131.894 36.4545C133.043 37.6357 133.965 39.0812 134.887 40.4101L140.536 49.2847L150.227 65.5653C153.339 71.0285 156.323 76.647 159.8 81.9159L214.317 43.6273C223.771 37.3482 234.001 31.0769 245.235 28.0228C248.41 27.1602 252.079 26.3986 255.392 26.9659C257.865 27.3933 260.155 28.8232 261.551 30.766L261.67 30.9448C263.742 33.1673 264.873 36.4934 264.627 39.4153C264.152 44.9329 257.837 49.8132 253.53 53.0615L239.257 63.234L208.358 87.7676C206.733 89.1353 205.109 90.4719 203.622 91.9718C203.412 92.1816 202.8 92.679 202.755 92.951L209.508 89.1897L256.979 61.299L257.016 61.2368L274.3 51.0721C279.009 48.4843 283.59 45.8576 288.938 44.5754C291.557 43.9459 294.103 44.0625 296.621 44.964L296.594 44.9562Z" fill="#231F20"/>
<path d="M215.667 222.372H216.251L220.623 227.983C219.017 226.965 217.155 225.496 215.978 224.043C215.476 223.429 215.585 223.079 215.667 222.364V222.372Z" fill="#FEFEFE"/>
<path d="M221.499 219.645L221.946 219.66C223.443 222.131 224.136 225.007 225.012 227.703C225.295 228.558 226.053 230.081 225.797 230.944L225.021 230.011L219.29 221.23C219.957 220.857 220.778 220.476 221.271 219.917L221.499 219.645Z" fill="#FEFEFE"/>
<path d="M128.764 93.767L129.138 93.7048C129.849 94.4042 130.333 95.6476 130.862 96.4947C132.313 98.8027 134.011 101.087 135.215 103.512C135.051 104.173 134.467 104.312 133.865 104.662L133.655 104.678C132.806 104.258 132.222 102.89 131.711 102.09L127.185 94.8006L128.764 93.7825V93.767Z" fill="#FEFEFE"/>
<path d="M111.032 61.7188L111.279 61.7731L121.207 78.4734C121.791 79.4681 123.534 81.5896 123.507 82.5533L122.293 83.2993C122.111 83.2294 121.892 83.1983 121.737 83.0817C121.226 82.7087 110.64 64.2599 109.709 62.4959L109.846 62.1384L111.032 61.7188Z" fill="#FEFEFE"/>
<path d="M173.233 138.591L173.698 138.708L186.52 160.786L184.75 161.772L175.432 146.09C174.219 144.039 172.859 142.01 171.809 139.881C171.627 139.516 171.673 139.718 171.809 139.228L173.233 138.591Z" fill="#FEFEFE"/>
<path d="M49.0962 175.38C50.2095 175.294 51.186 175.24 52.2355 175.644C53.7321 176.219 55.0462 177.952 55.5937 179.312C56.05 180.439 55.9496 182.071 55.4021 183.159C54.6264 184.698 53.3944 185.335 51.7244 185.84H51.4689C50.7571 185.855 49.9358 185.925 49.2422 185.739C47.7182 185.327 46.468 183.812 45.8201 182.529C45.1722 181.255 44.7706 179.561 45.4003 178.216C46.103 176.701 47.554 175.986 49.0871 175.388L49.0962 175.38Z" fill="#FEFEFE"/>
<path d="M216.087 196.821L216.507 196.89L218.569 200.053C216.571 201.608 214.271 202.828 212.09 204.141L200.674 210.964L197.936 207.032L216.096 196.821H216.087Z" fill="#FEFEFE"/>
<path d="M141.375 114.92C141.631 114.881 141.841 114.889 142.087 114.897L154.416 135.242L170.368 161.275C171.198 162.689 173.078 164.982 173.361 166.505L172.457 167.15L172.074 167.274C170.915 166.451 169.902 163.979 169.181 162.697L164.929 155.587L148.685 129.491C145.929 125.054 142.844 120.702 140.453 116.078C140.554 115.386 140.791 115.363 141.357 114.936L141.375 114.92Z" fill="#FEFEFE"/>
<path d="M117.785 53.5512C118.187 53.4502 118.296 53.4579 118.698 53.5201L128.782 70.1426L157.701 117.78C158.504 119.132 162.136 124.246 162.136 125.349L161.351 125.815L160.676 126.111L160.275 125.909L151.304 110.871L127.121 70.9975L119.775 58.9988C118.853 57.4678 117.429 55.6572 116.991 53.9708L117.794 53.5512H117.785Z" fill="#FEFEFE"/>
<path d="M210.384 173.989L210.959 173.965C213.368 177.688 216.151 181.83 217.876 185.855C218.706 187.798 219.135 190.254 218.159 192.212C217.876 192.772 217.502 193.347 216.991 193.751C215.312 195.072 212.921 196.136 211.05 197.232L202.116 202.509C200.072 203.721 197.936 205.143 195.646 205.897C193.821 206.503 191.859 206.208 190.152 205.454C187.907 204.048 186.383 200.341 185.087 198.126L180.853 190.906L210.384 173.989Z" fill="#FEFEFE"/>
<path d="M97.4532 11.4314C98.8312 12.3173 100.081 13.4441 101.35 14.4622L108.997 20.5781L129.959 37.084L128.627 49.2226C126.71 48.5154 115.759 45.1738 114.427 45.5857L114.245 46.425L112.784 54.9111C112.666 55.5872 112.611 57.1103 112.191 57.5533L98.0555 53.5201L89.4409 18.4565C89.4409 18.3322 89.4409 18.2079 89.4865 18.0913C89.7329 17.5318 94.1589 14.4622 94.9528 13.8016C95.8471 13.0711 96.6502 12.2551 97.4441 11.4392L97.4532 11.4314Z" fill="#FEFEFE"/>
<path d="M304.424 75.5046C305.555 75.3803 306.87 75.3803 308.001 75.559C310.273 75.932 312.318 77.0044 313.568 78.8462C314.946 80.8745 315.174 83.1981 314.563 85.4828C312.774 92.0727 304.698 97.2484 299.104 101.08L279.529 113.622C273.643 117.531 268.04 122.147 261.853 125.621C263.586 123.686 265.412 121.658 266.133 119.171L266.242 118.782C267.063 115.853 266.662 113.443 265.083 110.817C263.659 108.82 261.634 107.467 259.306 106.488C251.878 103.349 244.596 107.188 237.761 109.566L242.67 106.535C244.395 105.416 246.065 104.079 247.854 103.069L255.702 99.129L267.593 92.8421L283.718 84.0451C287.313 82.1023 290.881 80.1129 294.65 78.4654C297.853 77.0666 300.929 76.0486 304.424 75.4968V75.5046Z" fill="#FEFEFE"/>
<path d="M295.964 45.6168L297.58 46.3784C299.596 47.5363 300.838 49.5024 301.349 51.6161C302.206 55.1753 300.774 58.7423 298.41 61.5244C294.148 66.529 288.372 70.1348 282.787 73.7096L274.848 79.0639L256.131 92.3837L250.372 96.1683C245.6 99.471 240.863 102.844 235.835 105.812C231.656 108.284 227.129 110.452 222.758 112.628C217.566 115.2 212.364 117.555 206.806 119.389L203.357 120.414C201.942 120.764 199.36 121.02 198.575 122.272C198.183 122.901 198.137 123.678 198.393 124.354C198.584 124.844 199.113 125.248 199.624 125.403C200.948 125.792 203.439 124.875 204.762 124.494C212.035 122.396 219.026 119.42 225.678 115.993C227.138 119.668 229.602 122.715 233.07 124.953C239.276 128.963 247.178 131.006 254.662 129.74C253.931 130.299 252.891 130.657 252.042 131.045L246.439 133.602L217.246 146.09L209.809 148.981C208.194 149.603 206.378 150.131 205.018 151.165C204.698 151.895 204.735 152.463 205.063 153.201C205.319 153.784 205.93 154.468 206.642 154.584C207.153 154.662 207.892 154.39 208.367 154.242C210.128 153.69 211.816 152.929 213.532 152.268L239.531 141.443L255.629 133.944C261.214 131.061 266.196 127.471 271.644 124.44C275.286 122.419 281.728 120.795 285.917 121.922C287.423 122.326 289.056 123.142 289.75 124.518C290.471 125.947 290.316 127.781 289.75 129.227C283.17 146.207 232.285 167.585 214.636 175.613L160.457 82.965L203.43 52.8518C210.32 47.9093 217.374 43.0523 224.729 38.7238C231.747 34.5895 239.403 30.7272 247.525 28.8855C249.871 28.3492 252.608 27.813 255.017 28.1783C257.892 28.6135 259.507 29.8646 261.123 31.9939C261.488 32.9731 261.798 33.8823 261.962 34.9159L262.017 35.2267C262.455 38.0477 260.922 40.8064 259.17 43.0057C257.144 45.5469 254.041 47.7694 251.367 49.6889L241.63 56.5819L225.021 68.9303C214.919 76.5771 205.374 84.7602 196.075 93.2385L191.868 96.9687C190.809 97.909 189.705 98.7172 189.239 100.062C189.331 100.683 189.413 101.103 189.96 101.53C190.362 101.841 190.836 101.888 191.329 101.802C192.881 101.523 194.952 99.5954 196.23 98.6861L201.24 95.2901L210.11 89.8969L246.175 68.7283L254.333 64.0578C255.647 63.304 257.235 62.5502 258.357 61.571C260.493 60.6307 262.519 59.1542 264.526 57.9807L275.76 51.6783C281.354 48.7097 289.284 43.9382 295.983 45.6401L295.964 45.6168Z" fill="#FEFEFE"/>
</g>
<defs>
<clipPath id="clip0_148_361">
<rect width="322" height="332" fill="white"/>
</clipPath>
</defs>
</svg>
