<svg width="382" height="332" viewBox="0 0 382 332" fill="none" xmlns="http://www.w3.org/2000/svg">
<g clip-path="url(#clip0_150_410)">
<path d="M282.739 10.3703C283.138 10.3424 283.241 10.3796 283.598 10.5236C283.905 11.3831 282.302 12.9071 281.828 13.7806C281.489 14.4078 281.313 15.1466 281.252 15.8528C281.122 17.4232 281.387 18.9611 282.493 20.1366C283.152 20.8381 284.063 20.9496 284.992 20.9311C287.004 20.88 288.839 20.0576 290.154 18.5522C290.461 18.2037 290.935 18.2084 291.381 18.1062L291.576 18.3849L290.73 19.8624C289.713 20.8381 288.463 22.0276 287.092 22.4504C285.452 22.9521 283.506 22.8964 282.019 21.9904C280.62 21.1401 279.923 19.7649 279.593 18.2037C279.055 15.6391 279.672 13.5483 281.131 11.4203C281.67 10.6351 281.786 10.5375 282.739 10.3749V10.3703Z" fill="#231F20"/>
<path d="M282.065 0.0557576C283.496 -0.0418123 284.974 -0.0325199 286.382 0.269482C287.446 0.497145 288.509 1.31023 289.072 2.23946C287.757 3.01073 286.772 2.04897 285.406 1.81666C283.966 1.57041 282.311 1.54718 280.922 2.03503C275.138 4.06541 271.5 10.4446 268.884 15.6205C267.56 18.2409 266.212 21.5908 267.262 24.5504L268.182 26.8642C269.957 30.4557 273.126 32.37 276.82 33.5826C280.309 34.7256 283.928 33.8335 287.12 32.2306C291.757 29.8982 296.427 26.0326 297.974 20.8614C298.578 18.8356 298.559 15.7366 297.407 13.9293C296.501 12.5029 295.158 11.6341 293.523 11.3228L293.258 11.2763L292.905 11.3181L292.25 10.7466C292.082 10.1937 291.989 10.282 292.278 9.72911C293.323 9.49216 295.298 9.94284 296.217 10.5097C297.616 11.3692 299.145 12.8746 299.516 14.5147L299.595 14.8817C299.99 16.5962 300.083 18.2502 299.921 20.0111C299.591 23.663 296.213 28.063 293.407 30.3628C289.476 33.5873 284.128 36.3378 278.901 35.6595L278.488 35.5991C276.327 35.311 274.106 34.5258 272.206 33.4525C268.731 31.4826 266.593 28.4811 265.553 24.6573C264.447 20.5965 266.51 15.8388 268.498 12.3774C271.913 6.43962 275.184 1.91423 282.065 0.0557576Z" fill="#231F20"/>
<path d="M369.39 59.3503C370.598 59.2992 371.978 59.3922 373.144 59.7081C376.099 60.5072 378.297 62.5655 379.821 65.1534C381.981 68.8239 382.585 74.2925 381.419 78.4044L381.303 78.79C380.439 81.6892 378.947 84.2539 376.792 86.3818C373.326 89.8061 368.898 91.1581 364.126 91.0791C361.366 90.7121 358.848 90.0152 356.558 88.3704C353.946 86.4934 351.99 83.5895 351.54 80.3697C350.829 75.2542 352.209 70.7103 355.391 66.7006C359.066 62.0684 363.657 59.9962 369.395 59.355L369.39 59.3503Z" fill="#231F20"/>
<path d="M368.758 61.2135L369.028 61.1856C371.453 60.9672 374.101 61.6502 375.941 63.2996C378.204 65.3254 379.849 69.0609 380.039 72.0995C380.323 76.6063 379.087 81.0109 376.006 84.3747C372.991 87.6689 369.339 89.1092 364.939 89.2904C362.282 88.9373 359.917 88.3611 357.696 86.7861C355.15 84.988 353.668 82.2746 353.235 79.2175C352.715 75.533 354.29 71.2028 356.534 68.3036C359.717 64.1871 363.666 61.9476 368.763 61.2089L368.758 61.2135Z" fill="#FEFEFE"/>
<path d="M364.595 67.9225L365.26 67.8854C366.607 67.8296 367.634 68.0712 368.614 69.0562C369.237 69.6835 369.716 70.701 369.674 71.593C369.623 72.7313 369.153 73.405 368.363 74.1856C367.225 75.3146 365.938 76.4018 365.915 78.1302C365.906 78.7621 365.901 79.1245 365.678 79.7192C365.093 80.0537 365.107 80.0212 364.442 79.8818L364.094 79.1384C364.043 77.7028 364.052 76.6295 364.814 75.3704C365.78 73.7674 367.546 73.0194 367.801 71.0076C367.42 70.3943 367.267 70.2271 366.612 69.9111C365.72 69.4837 364.925 69.8554 364.061 70.1945L363.773 70.3107C363.35 70.2642 363.188 70.2317 362.839 69.9576C362.481 69.6742 362.565 69.5719 362.509 69.1491C363.09 68.3965 363.722 68.2292 364.6 67.9272L364.595 67.9225Z" fill="#231F20"/>
<path d="M357.998 2.23944C358.927 2.035 360.103 1.99783 360.957 2.46245C362.537 3.32664 364.019 4.70656 365.381 5.86346C369.139 9.06004 372.805 12.5447 375.598 16.6333C376.336 17.7112 377.126 18.7566 377.535 20.0064C377.456 20.6104 377.363 20.8985 376.977 21.3957C374.32 24.792 371.667 28.207 368.749 31.3896L356.548 43.4372L342.935 56.9436C340.012 59.9172 337.411 62.9465 334.869 66.2499C334.679 66.4962 333.085 68.5405 332.95 68.5637C332.513 68.6334 331.7 68.1084 331.222 68.1223C330.729 68.1363 329.893 68.5312 329.396 68.6892L325.832 69.6277C322.376 70.6638 318.71 71.0216 315.239 72.0576C313.952 72.4433 311.42 73.9301 310.281 73.5863C310.086 73.2703 309.873 73.0891 309.901 72.7035C310.105 69.7903 311.959 66.2035 312.874 63.425C313.775 60.6838 314.384 57.6545 314.774 54.7971C314.891 53.9654 315.22 52.618 314.983 51.8096L314.891 51.5959C315.374 50.8385 315.611 49.9418 316.066 49.1566C317.121 47.3492 318.584 45.5233 319.899 43.8878C323.444 39.4786 327.403 35.3621 331.213 31.1898L337.16 24.3274L345.746 15.1744C349.063 11.5643 351.869 7.79163 355.498 4.4696C356.334 3.70763 357.059 2.88526 357.998 2.23944Z" fill="#231F20"/>
<path d="M358.853 3.86561C359.15 3.80986 359.313 3.73552 359.615 3.83309C361.208 4.35346 362.858 6.01215 364.098 7.10865C368.484 10.9743 372.596 14.8399 375.402 20.0343C374.06 22.1065 372.503 24.0486 370.97 25.9814C370.013 27.1848 369.037 28.588 367.736 29.4243L367.234 29.0758L350.057 13.0604C351.735 10.8674 353.612 8.88813 355.531 6.90886C356.571 5.83559 357.57 4.66011 358.853 3.87026V3.86561Z" fill="#FEFEFE"/>
<path d="M348.942 14.6122C351.21 16.2198 353.319 18.3292 355.396 20.1784C359.025 23.4121 363.55 26.906 366.203 31.0179C365.46 32.1702 364.27 33.1598 363.308 34.1355L356.734 40.5937C349.04 48.1205 340.918 55.6148 334.098 63.9408C333.717 64.5216 333.406 65.0094 332.839 65.4276C333.178 63.0905 333.08 60.5258 332.407 58.2585C330.255 51.0012 323.068 52.9897 317.841 50.1881C319.244 47.5909 321.247 45.3468 323.156 43.1073L332.249 32.9043L338.368 25.6469L348.938 14.6122H348.942Z" fill="#FEFEFE"/>
<path d="M355.442 29.1873L356.311 29.1037L356.808 29.5358L356.697 30.0236C354.82 31.1294 353.491 33.1552 351.944 34.6698L333.215 53.5751L332.606 53.6913C332.109 53.3382 332.016 53.3335 331.844 52.7621C333.382 50.2578 335.64 48.0508 337.703 45.974L344.626 39.0651C348.064 35.6873 351.386 31.8403 355.438 29.1827L355.442 29.1873Z" fill="#231F20"/>
<path d="M351.874 19.6627L352.362 19.7881L352.492 20.3596C351.99 22.0462 350.513 23.44 349.37 24.7363L341.745 32.8207L332.76 42.4987C330.836 44.7103 329.391 46.9915 327.742 49.3843L327.045 49.454C326.529 48.994 326.306 48.929 326.19 48.2274C326.873 46.3318 328.527 44.3943 329.823 42.8704C334.154 37.7689 339.074 33.2899 343.669 28.4486L348.547 22.9893C349.588 21.8139 350.564 20.5315 351.883 19.6534L351.874 19.6627Z" fill="#231F20"/>
<path d="M149.626 95.0006L150.188 95.8601H150.448C151.266 94.9216 151.823 94.2525 153.096 94.0063C154.927 93.6532 157.887 97.2865 159.062 98.5921L161.45 101.282C161.594 101.445 162.059 102.053 162.208 102.132C162.328 102.198 163.053 102.1 163.244 102.091L168.866 101.593L190.605 100.214L222.733 99.2379C224.462 99.2054 231.301 98.6618 232.393 99.433C232.913 99.8001 233.48 100.311 233.824 100.845C234.837 102.416 235.181 104.744 235.552 106.546C236.746 112.349 237.16 118.25 238.075 124.09C240.212 121.168 241.625 117.748 243.785 114.793C248.97 107.713 254.969 101.245 261.529 95.4373C267.611 90.0524 274.204 85.211 281.624 81.8286C285.703 79.9655 290.359 78.3347 294.879 78.3022C295.943 78.2929 297.049 78.2511 298.048 78.6646L298.345 78.7993C298.652 78.9341 298.945 79.0595 299.233 79.2407C301.853 80.9273 303.126 84.3562 303.754 87.2647C305.487 95.284 303.196 103.573 301.031 111.271C300.306 113.836 299.4 116.424 299.024 119.063C298.712 121.252 298.392 123.849 299.888 125.698C303.215 129.796 311.22 126.353 315.109 124.955C317.706 124.021 320.345 123.036 323.012 122.315C326.882 121.27 331.175 120.657 335.18 121.112C338.665 121.512 342.173 123.249 344.38 126.018C349.611 132.579 349.574 142.35 348.626 150.244C346.847 165.06 336.5 177.312 326.371 187.511C323.04 190.865 319.69 194.215 316.057 197.254L304.432 206.518L295.07 213.39L311.016 204.734C319.62 199.716 327.835 194.791 337.815 192.989C340.942 192.426 345.263 192.148 348.338 192.933C350.894 193.583 353.054 194.355 355.229 195.902C359.856 199.187 362.5 204.781 363.397 210.254C364.14 214.807 364.182 219.314 362.821 223.751C359.884 233.345 352.831 241.843 345.012 247.999C344.022 248.78 343.023 249.561 341.973 250.262C341.815 250.369 340.886 250.88 340.826 250.992C340.779 251.075 340.844 251.182 340.858 251.28L342.001 265.399L342.475 287.929L342.061 319.328C341.992 320.74 342.345 324.048 341.555 325.149C340.482 325.707 339.134 325.47 337.954 325.512L333.489 325.856L307.726 328.694L290.075 329.433C287.371 329.498 284.662 329.442 281.968 329.651L271.407 330.897C269.692 331.129 267.904 331.552 266.171 331.566C265.181 331.575 264.721 331.408 264.043 330.692C263.611 330.237 263.397 329.726 263.281 329.117C262.862 326.957 263.374 324.29 263.439 322.078L263.504 311.443C262.579 311.127 261.088 311.313 260.075 311.313L251.656 311.48L200.548 314.807L165.372 317.966L146.383 318.561L134.228 318.826L112.716 317.966C100.766 317.325 88.7607 315.578 77.0337 313.204C63.9826 310.56 51.1359 307.113 39.093 301.319C30.3535 297.114 22.1716 291.646 16.3313 283.78C13.0186 279.315 11.1322 274.515 10.2866 269.051C10.1473 268.164 10.0404 262.189 9.92424 262.026C9.77092 261.808 7.68943 261.13 7.27592 260.93C5.44997 260.038 3.83774 258.727 2.49964 257.199C0.83166 255.294 -0.255547 252.669 0.0464545 250.109C0.139378 249.3 0.520365 248.701 1.21265 248.26C1.83059 247.865 2.62973 247.767 3.3406 247.93C6.77878 248.706 8.88814 254.643 10.5979 257.436L10.8256 251.163C11.2112 246.369 12.8978 240.686 16.7867 237.518C17.9993 236.533 19.9182 235.589 21.5211 235.845C22.6362 236.022 23.6165 236.639 24.267 237.564C25.4007 239.176 25.2148 241.555 24.8292 243.367C23.7188 248.585 19.5511 253.765 16.1827 257.752C14.9793 259.178 13.8131 260.744 12.2288 261.761L12.0057 261.901C11.9546 263.629 11.8478 265.385 12.0615 267.105C13.0418 275.063 16.3639 281.419 22.0229 287.116C33.5129 298.68 50.7085 304.706 66.2081 308.502C99.0148 316.54 133.174 317.748 166.775 315.611L202.365 312.484L245.5 309.622L264.187 309.013L264.177 269.525C262.728 269.195 261.274 268.917 259.787 268.838L249.946 268.596C248.204 268.549 245.37 268.814 243.976 267.75C243.153 265.804 243.172 263.086 242.954 260.976L241.388 243.655H230.795C230.223 245.291 229.912 246.987 228.885 248.418C228.346 249.166 227.305 249.969 226.334 249.974C223.872 249.983 220.68 245.639 219.295 243.883C217.098 243.706 214.919 244.027 212.73 244.092L192.998 245.017L158.268 246.708C153.97 246.973 149.663 246.973 145.388 247.479L155.187 279.789L168.633 278.32L178.455 276.936C179.431 276.783 181.517 276.234 182.377 276.629C185.034 277.837 187.539 279.83 190.15 281.238L201.328 287.06C202.699 287.775 204.167 288.37 205.496 289.155C206.012 289.462 206.374 289.843 206.528 290.447C206.658 290.953 206.528 291.581 206.184 291.98C205.701 292.552 204.957 292.672 204.26 292.77C193.054 294.34 181.471 294.438 170.176 295.251L147.196 297.458L115.527 299.558L97.1099 300.971L79.5194 301.853L72.6292 302.392C71.2074 302.522 69.6835 302.801 68.2524 302.727C67.5973 302.694 67.365 302.457 66.9143 302.011C66.8075 301.305 66.7006 300.766 67.1838 300.153C67.7599 299.419 68.9261 298.908 69.7253 298.443L74.3111 295.669C77.3079 293.727 80.3372 291.674 83.1156 289.425C84.4072 288.375 85.7175 287.315 86.9208 286.172C87.5155 285.61 88.7375 283.989 89.3415 283.738C90.0384 283.445 91.9341 283.664 92.7657 283.612L107.815 282.423L108.502 250.49C93.4348 251.693 78.409 253.129 63.2764 253.231C59.9915 253.254 56.2746 253.593 53.0455 252.985C51.2474 252.646 49.4958 251.833 48.469 250.248C46.9172 247.86 46.2946 244.18 45.7556 241.406L43.6602 229.968L36.3332 183.074L30.5254 132.672L30.0004 122.046C29.9772 120.49 29.8053 118.659 30.1955 117.154L30.2745 116.866C30.623 115.602 31.2363 113.901 32.1934 112.953C33.0018 112.159 34.1959 111.62 35.2971 111.402C36.7095 111.123 38.2195 111.369 39.6459 111.225L59.5362 109.892L109.724 107.661L102.653 89.1138C102.211 87.9012 100.785 85.0345 100.915 83.7614C100.938 83.5152 101.087 83.2968 101.171 83.0645C101.691 82.6603 101.812 82.4094 102.504 82.5209L102.862 82.5999C102.815 82.2932 102.788 81.9866 102.806 81.6753C102.876 80.6438 103.498 79.6263 103.94 78.711L105.887 74.6085C108.386 69.3072 110.588 63.7317 113.701 58.751C114.319 57.766 115.012 57.0505 115.88 56.2978L116.187 56.335C116.773 56.4465 117.177 56.7114 117.497 57.2131C117.841 57.7521 117.469 57.2875 117.971 57.8497C118.798 56.4976 119.226 54.9551 119.63 53.4358C118.882 54.2907 118.468 55.4476 117.623 56.2003L117.13 56.0237L116.931 55.4197C117.112 54.3697 117.572 53.3243 118.106 52.3997C118.348 51.9862 118.682 51.2428 119.184 51.1638C120.429 50.964 120.852 51.7678 121.688 52.4462L122.074 51.4705C122.887 50.8665 122.989 50.8897 124.011 50.8943C124.759 51.2985 125.108 51.647 125.596 52.3439L125.828 52.6831C127.51 55.0666 128.156 58.3422 128.044 61.2507C128.021 61.8036 128.667 62.4912 128.964 62.9744C132.165 68.1456 130.539 75.0963 129.224 80.6113C130.511 79.4916 132.161 77.7028 133.884 77.3636C136.217 77.9165 137.634 82.6835 138.935 84.621C142.884 84.621 146.438 83.5802 149.57 81.1456C152.79 78.6413 154.839 75.1009 155.522 71.1052C155.875 69.0284 155.898 67.1513 155.308 65.0931C154.156 61.0509 150.708 56.9111 147.033 54.9365C143.572 53.0734 140.44 52.7342 136.57 53.1849C135.497 53.3103 134.154 53.4497 133.146 53.8586C131.956 54.3418 131.306 55.6427 130.047 56.033C129.605 55.8565 129.224 55.6799 128.829 55.4244L128.894 55.0016C129.15 53.5287 131.115 52.6134 132.295 51.8236C132.221 49.7188 132.3 47.4747 132.69 45.4072C133.982 38.5587 137.973 32.9786 143.762 29.1362C145.848 27.7517 148.72 26.3207 151.308 26.855L151.74 27.5519C151.717 27.7889 151.791 28.0583 151.661 28.2581C151.433 28.6205 150.086 28.8668 149.681 28.969C147.4 29.5498 145.611 30.6509 143.79 32.1237C137.439 37.281 135.041 42.875 134.2 50.8757L136.589 49.6817L137.397 47.9115C141.337 40.0734 150.578 34.5351 158.616 31.8728C159.192 32.1563 159.164 32.291 159.434 32.8857C159.29 33.5919 159.118 33.7081 158.486 34.0473C156.711 35.0044 154.723 35.627 152.911 36.5609C147.089 39.5623 142.41 43.9251 138.754 49.2914C140.11 49.3657 141.425 49.4494 142.759 49.7374L143.051 49.8025L143.911 48.9615C148.664 44.5616 154.537 41.1792 161.195 41.4951C164.257 41.6391 166.793 42.6288 168.884 44.9054C168.954 45.5559 168.977 45.6348 168.68 46.2063C168.364 46.276 168.248 46.3922 167.964 46.2156C164.099 43.8228 161.153 42.9633 156.637 44.0598C153.575 44.8032 150.917 46.2249 148.334 47.9998C147.461 48.5991 146.318 49.3564 145.769 50.2671C148.506 51.2335 150.773 52.3346 152.994 54.2349C156.902 57.5709 159.522 62.3843 159.884 67.5323C160.256 72.8801 158.133 77.3125 154.648 81.2293C150.811 85.5456 146.081 87.2786 140.463 87.6178L143.488 94.4848C144.259 93.4023 145.282 91.7296 146.369 90.9816C147.651 92.1989 148.748 93.4162 149.621 94.968L149.626 95.0006Z" fill="#231F20"/>
<path d="M139.311 125.131L139.799 125.275L140.171 129.145C140.208 129.768 140.073 130.483 140.268 131.074L140.608 131.91L140.779 132.333L140.264 132.839C139.776 133.057 139.734 133.211 139.209 133.03L138.712 125.489L139.316 125.131H139.311Z" fill="#FEFEFE"/>
<path d="M142.643 124.434C143.154 124.355 143.181 124.29 143.674 124.513C144.376 125.614 145.509 127.566 145.486 128.885C145.477 129.415 144.822 129.852 144.45 130.223L142.875 131.343C142.74 129.568 142.006 126.009 142.638 124.434H142.643Z" fill="#FEFEFE"/>
<path d="M144.134 95.2096C144.561 95.2143 144.835 95.3397 145.161 95.0377C145.653 94.5777 145.978 94.2664 146.652 94.1038C147.029 94.4383 147.358 94.7311 147.66 95.1399L149.064 97.0588C148.292 98.5177 145.974 100.223 144.743 101.417C144.385 99.8 143.456 96.701 144.134 95.2143V95.2096Z" fill="#FEFEFE"/>
<path d="M125.633 127.454L126.441 127.287L126.845 127.57L128.239 134.828C128.411 135.72 128.899 137.058 128.606 137.871L127.185 138.447L126.32 138.67C126.334 134.962 124.903 131.348 124.927 127.738L125.628 127.454H125.633Z" fill="#FEFEFE"/>
<path d="M153.505 98.4805L159.875 105.431C159.197 106.147 158.463 106.737 157.692 107.341L157.171 107.541L157.199 107.085C157.208 106.806 157.218 106.458 157.106 106.198C156.827 105.557 155.917 104.85 155.424 104.353L151.517 100.293L153.51 98.4805H153.505Z" fill="#FEFEFE"/>
<path d="M133.564 126.005L135.501 125.851L135.808 126.176L136.612 132.435C136.668 132.978 136.923 133.726 136.747 134.252C136.64 134.567 135.687 134.893 135.367 135.046L134.577 135.176C134.028 134.238 132.361 127.431 132.546 126.293L133.559 126.005H133.564Z" fill="#FEFEFE"/>
<path d="M121.846 128.616L122.608 128.541C123.273 131.403 123.008 134.795 124.002 137.583C124.309 138.447 124.852 138.512 125.628 138.819L125.558 139.07L123.37 140.143C122.854 140.357 122.478 140.552 121.911 140.524C121.414 139.413 121.34 137.978 121.145 136.77L119.927 129.215L121.846 128.611V128.616Z" fill="#FEFEFE"/>
<path d="M1.96998 249.881C2.48106 249.7 2.6762 249.718 3.20122 249.76C5.01323 250.852 6.17943 253.092 7.183 254.894L10.1147 260.126C6.50931 258.449 3.32202 256.609 1.95604 252.608C1.57506 251.489 1.43103 250.922 1.96534 249.881H1.96998Z" fill="#FEFEFE"/>
<path d="M116.554 130.242L117.381 130.047C117.469 130.112 117.581 130.154 117.646 130.242C117.823 130.493 117.818 132.491 117.864 132.913C118.176 135.622 118.631 138.87 119.597 141.425L119.676 141.625C119.319 142.178 118.566 142.364 117.981 142.61C117.423 142.782 117.191 142.949 116.605 142.787C115.62 138.893 115.69 134.995 115.174 131.064C115.123 130.688 115.095 130.902 115.342 130.474L116.554 130.242Z" fill="#FEFEFE"/>
<path d="M312.558 214.338L313.334 214.157C313.831 214.403 314.077 214.412 314.249 214.979C314.612 216.201 313.761 232.23 313.227 233.317L312.349 233.429C311.661 233.461 310.658 233.647 310.082 233.243L311.308 220.717C311.517 218.724 311.568 216.108 312.558 214.342V214.338Z" fill="#FEFEFE"/>
<path d="M324.369 216.921C325.707 217.618 327.565 218.347 328.639 219.379C326.562 223.607 324.643 228.29 322.078 232.226C321.098 232.96 319.388 232.839 318.203 232.909L324.373 216.921H324.369Z" fill="#FEFEFE"/>
<path d="M149.937 102.132L150.23 102.109C150.931 102.695 151.447 103.526 152.074 104.2C153.371 105.594 154.699 106.932 155.907 108.409C155.921 108.981 155.949 109.222 155.605 109.715C154.978 110.621 153.784 111.476 152.943 112.21C150.536 114.319 147.832 116.405 145.899 118.97L145.658 119.291L142.512 112.229C143.474 113.121 144.218 114.226 145.077 115.221C145.69 115.927 145.937 116.354 146.884 116.429C147.372 116.029 147.414 115.983 147.6 115.379C147.265 114.384 146.276 113.432 145.616 112.614L143.646 109.878C143.767 109.283 144.794 108.419 145.226 107.94C146.109 109.585 147.173 111.327 148.501 112.651C148.78 112.93 148.613 112.823 149.133 112.823L149.575 111.722C149.417 110.156 147.623 107.824 146.68 106.495L148.167 104.604C149.356 106.281 150.806 107.931 152.255 109.39C152.753 109.887 153.18 110.486 153.863 110.681C154.304 110.194 154.476 109.71 154.704 109.106C153.947 107.22 151.48 105.269 150.285 103.531C149.895 102.959 149.812 102.82 149.942 102.137L149.937 102.132Z" fill="#FEFEFE"/>
<path d="M331.77 202.258C331.988 202.174 332.142 202.1 332.388 202.067C333.048 201.984 333.61 202.16 334.135 202.569C334.391 202.769 334.762 203.187 334.799 203.503C335.06 205.719 330.98 215.523 329.438 217.4L328.862 217.13C327.691 216.28 326.538 215.574 325.251 214.923L328.866 206.625C329.61 205.083 330.423 203.336 331.779 202.262L331.77 202.258Z" fill="#FEFEFE"/>
<path d="M19.6348 237.959C20.708 237.82 21.4096 237.75 22.3946 238.266C22.9057 238.832 23.1566 239.213 23.2356 239.989C23.8396 245.885 17.9575 252.669 14.51 256.915L12.4471 259.429C12.3263 254.546 12.4657 249.193 14.1848 244.566C15.1884 241.866 16.9586 239.195 19.6301 237.954L19.6348 237.959Z" fill="#FEFEFE"/>
<path d="M180.685 281.447C181.159 281.41 182.261 281.192 182.683 281.289C182.906 281.34 183.51 281.819 183.738 281.963L186.93 283.979L196.543 289.192L89.7922 298.025L74.4133 298.866C74.6967 298.318 77.805 296.677 78.5345 296.166C81.4709 294.117 84.3515 292.054 87.0927 289.741C88.1242 288.867 89.3601 287.13 90.5495 286.697C93.0817 286.953 95.7346 286.656 98.2761 286.567L117.558 285.652L144.343 285.118C156.479 284.514 168.647 283.013 180.69 281.443L180.685 281.447Z" fill="#FEFEFE"/>
<path d="M335.975 234.289C336.737 234.358 337.267 234.307 337.852 234.888C339.13 236.156 338.73 246.968 338.577 249.338L290.173 249.639L280.69 249.969C279.919 250.007 279.152 249.867 278.39 249.974C275.547 250.374 272.011 250.086 269.13 249.825L265.757 249.486C266.138 244.905 266.575 240.315 267.699 235.845L335.97 234.289H335.975Z" fill="#FEFEFE"/>
<path d="M299.047 240.589C299.335 240.505 299.637 240.459 299.934 240.445C300.822 240.398 301.324 240.812 301.946 241.379C302.188 241.904 302.295 242.21 302.202 242.796C302.039 243.822 301.63 244.296 300.785 244.868L300.12 245.063C299.335 245.221 298.731 244.835 298.113 244.422C297.769 243.804 297.662 243.595 297.695 242.889C297.741 241.853 298.294 241.225 299.047 240.584V240.589Z" fill="#231F20"/>
<path d="M287.761 240.589C288.184 240.477 288.561 240.37 289.002 240.412C290.224 240.524 290.781 241.016 291.497 241.955C291.613 242.456 291.674 242.81 291.539 243.316C291.279 244.329 290.73 244.794 289.871 245.332C289.55 245.425 289.169 245.569 288.825 245.555C287.901 245.523 287.176 245.105 286.618 244.38C286.098 243.711 286.052 243.019 286.103 242.21C286.586 241.453 286.99 241.044 287.761 240.584V240.589Z" fill="#231F20"/>
<path d="M275.407 240.041C276.086 240.003 276.889 239.892 277.549 240.05C278.33 240.236 279.017 240.816 279.394 241.513C279.868 242.396 279.719 243.488 279.375 244.389C278.999 245.37 278.246 245.899 277.321 246.299C276.82 246.415 276.425 246.489 275.914 246.396C274.826 246.192 274.027 245.583 273.437 244.659C272.977 243.934 272.94 242.963 273.168 242.155C273.521 240.909 274.353 240.589 275.407 240.041Z" fill="#231F20"/>
<path d="M141.667 247.786C142.187 247.688 142.206 247.66 142.67 247.906L151.94 280.053C148.297 280.639 144.524 280.783 140.844 280.987L120.694 281.703L110.816 282.274L110.793 250.262L141.667 247.79V247.786Z" fill="#FEFEFE"/>
<path d="M122.446 55.5405C122.938 56.1305 123.863 57.3339 123.895 58.1191C123.979 60.117 122.204 62.7792 121.447 64.6284L118.506 72.6152C118.046 73.8232 116.466 76.7085 116.8 77.8747L117.381 78.1906C118.055 77.8515 118.25 77.0941 118.571 76.4204L121.563 69.6091C122.58 67.3883 123.602 65.0745 125.126 63.1509C126.111 64.2567 127.134 65.5158 127.477 66.9887C128.04 69.3768 127.459 72.4805 127.106 74.8825C126.604 78.2928 126.111 81.8286 125.219 85.1506C124.694 87.1067 123.426 89.8711 123.598 91.8736C125.456 93.839 127.152 98.146 129.582 99.1496C130.316 98.9777 130.432 99.0381 130.892 98.4108C130.781 96.1017 128.081 93.0213 126.785 91.1117C127.923 88.4029 128.918 85.3225 130.414 82.8089C131.194 81.4941 132.453 80.3232 133.517 79.236C135.088 85.0019 137.968 90.1546 140.092 95.6928C141.095 98.3133 141.62 101.073 142.364 103.773C140.909 104.618 139.883 107.104 139.399 108.684C138.373 112.033 139.07 114.208 140.631 117.186C141.393 118.501 142.201 119.681 143.149 120.866C135.357 122.288 127.496 123.152 119.923 125.647C118.859 119.867 116.735 114.738 114.384 109.394L106.058 90.963C105.032 88.5749 103.299 85.7593 102.959 83.1899C103.368 82.9948 103.703 83.1435 104.144 83.2085C107.801 82.1074 111.606 71.3886 113.218 67.8529C113.999 66.1431 114.928 64.503 115.843 62.8629H116.09L110.956 76.8154C110.649 77.9583 110.054 79.2267 110.672 80.2861L111.23 80.4347C112.545 79.1431 113.288 75.9326 113.994 74.1996L117.614 66.0037C119.082 62.533 120.239 58.593 122.45 55.5312L122.446 55.5405Z" fill="#FEFEFE"/>
<path d="M148.176 134.888C148.511 134.846 148.715 134.758 149.026 134.967C149.18 135.074 154.895 147.159 155.601 148.446C162.524 161.097 170.626 173.056 183.106 180.797C182.423 181.294 181.759 181.893 181.289 182.604C179.7 185.02 178.567 188.11 177.336 190.735L171.379 203.833C169.953 207.062 168.466 210.305 167.449 213.687L156.874 208.367L151.531 204.962C147.591 202.36 143.93 198.917 140.607 195.581C138.038 193.002 135.399 190.303 133.197 187.404C124.127 175.477 119.602 160.981 116.666 146.499C119.951 145.965 122.952 144.678 126.074 143.581L141.894 137.666C144.013 136.788 145.992 135.617 148.176 134.897V134.888Z" fill="#FEFEFE"/>
<path d="M265.567 251.07C272.554 252.502 280.221 251.972 287.315 251.651L299.753 251.359L327.602 251.781L338.976 251.609L340.561 299.521C340.77 302.183 340.463 305.101 340.384 307.786L339.78 323.323L336.272 323.597C331.933 323.881 327.723 324.634 323.412 325.14L305.654 326.729L297.416 327.008L291.497 327.342C287.947 327.398 284.402 327.282 280.862 327.561L269.892 328.75C269.037 328.852 267.118 329.377 266.347 329.085C266.124 329.001 266.157 328.959 266.054 328.722C265.762 328.039 265.594 326.692 265.887 326.004C266.087 325.53 266.171 325.289 266.106 324.782C265.785 322.218 266.087 319.342 266.073 316.744L266.189 293.704L266.138 273.07L265.646 264.01L265.567 251.075V251.07Z" fill="#FEFEFE"/>
<path d="M280.49 291.162L282.088 291.381C282.804 291.604 283.445 292.607 283.77 293.249C284.305 294.303 284.374 295.534 283.914 296.631C283.492 297.644 282.651 298.057 281.68 298.429C281.034 298.387 280.281 298.364 279.668 298.136C278.78 297.802 278.083 296.9 277.786 296.027C277.479 295.135 277.591 293.834 278.009 292.998C278.567 291.887 279.347 291.516 280.486 291.158L280.49 291.162Z" fill="#231F20"/>
<path d="M291.506 276.364C294.22 275.886 297.969 277.08 300.673 277.596L315.281 280.295L323.091 281.145C323.5 281.206 323.83 281.299 324.067 281.652C325.479 283.71 323.895 309.696 323.165 313.302C322.255 314.37 319.207 314.263 317.748 314.421L307.991 315.211H292.542L286.567 315.323C285.945 315.332 284.635 315.448 284.063 315.239C283.919 315.188 283.436 314.881 283.315 314.742C282.925 314.287 282.86 314.012 282.841 313.446C282.785 311.685 283.19 309.831 283.468 308.093L284.816 299.177C286.154 300.106 287.264 301.296 288.482 302.374L293.695 306.746L294.726 307.54L295.065 307.48C295.809 307.178 296.849 306.072 297.458 305.528L304.023 299.619L318.566 286.711C319.523 285.819 321.377 284.495 321.92 283.329C321.483 282.874 321.172 282.497 320.54 282.321C318.073 284.049 315.848 286.159 313.571 288.129L294.814 304.841C293.439 303.907 292.273 302.648 290.991 301.579C289.457 300.302 287.594 299.08 286.237 297.649C285.703 297.082 285.443 296.19 285.592 295.409L285.745 295.005C287.204 289.206 288.259 283.255 290.373 277.605C290.661 276.834 290.749 276.708 291.506 276.36V276.364Z" fill="#231F20"/>
<path d="M219.086 102.825L230.205 102.88C230.999 104.502 231.352 106.556 231.747 108.317C233.085 114.319 233.619 120.406 234.093 126.525C234.247 128.5 234.651 130.655 234.423 132.625C231.826 132.551 229.271 134.874 227.305 136.398C224.322 138.712 221.716 141.453 219.188 144.245C211.058 153.217 204.302 164.154 200.232 175.589C199.34 178.093 198.281 181.029 197.993 183.678C197.858 184.89 197.495 186.07 197.351 187.278C196.91 190.93 196.673 194.378 197.481 197.997C198.476 202.434 201.054 206.727 204.966 209.153C207.87 210.951 211.081 211.671 214.426 212.075C215.369 212.187 216.628 212.419 217.539 212.168C218.092 212.015 218.129 211.787 218.412 211.322C218.403 211.09 218.45 210.291 218.361 210.128C218.129 209.701 215.904 209.111 215.444 208.967C213.659 208.423 211.973 207.777 210.296 206.955C208.307 205.979 206.607 204.813 205.138 203.136C202.146 199.712 200.92 194.201 201.277 189.746L201.301 189.485L201.719 185.42C203.117 177.359 206.114 170.222 210.17 163.155C216.568 152.019 224.369 143.316 234.86 135.873L241.267 237.239L232.918 237.462L233.392 235.171C234.312 230.339 234.697 225.405 234.725 220.489C234.735 218.956 235.009 217.088 234.121 215.773C233.527 215.732 233.48 215.773 232.96 216.08C232.5 217.39 232.634 218.775 232.532 220.146C232.384 222.148 232.049 224.164 231.756 226.148C231.013 231.138 229.986 235.789 228.69 240.654C228.272 242.22 227.542 245.769 226.227 246.745C225.73 246.596 225.438 246.257 225.084 245.899C221.474 242.22 219.593 236.862 217.943 232.086L214.5 217.014C214.38 216.354 214.356 215.648 213.683 215.327C213.148 215.072 212.688 215.169 212.159 215.346C211.341 216.749 211.912 219.82 212.033 221.437C201.51 220.545 190.977 219.988 180.653 217.553C177.879 216.898 175.198 216.312 172.527 215.286L186.312 182.753C189.016 183.738 194.053 186.177 196.798 185.304C197.296 185.146 197.602 184.147 197.816 183.673C197.732 183.027 197.756 182.902 197.203 182.484C196.52 181.963 195.442 181.717 194.638 181.373C191.934 180.221 189.174 179.189 186.609 177.744C177.717 172.731 171.342 165.204 165.664 156.869C162.036 151.54 158.69 145.886 156.024 140.008C153.227 133.847 151.006 127.319 147.744 121.391C153.213 117.874 158.175 113.376 163.169 109.213C168.615 113.223 173.247 118.445 178.307 122.915L200.385 141.955C202.039 143.516 203.675 145.184 205.124 146.936C205.993 147.986 206.82 149.709 207.856 150.513C208.321 150.876 208.586 150.745 209.129 150.68L209.506 150.086C209.171 146.248 201.496 139.344 198.601 136.593L178.153 118.589L171.895 113.037L164.48 106.941L164.438 106.723L164.377 106.425C164.247 105.687 163.876 105.162 163.49 104.53L219.086 102.825Z" fill="#FEFEFE"/>
<path d="M222.078 217.818C222.738 217.808 223.365 217.771 224.011 217.952L224.388 218.631L224.127 219.346L223.43 219.588L221.107 219.463C220.847 218.803 220.908 218.724 221.079 218.027L222.078 217.818Z" fill="#231F20"/>
<path d="M210.444 188.087C210.993 187.938 211.072 187.803 211.61 188.05C211.578 188.37 211.587 188.449 211.466 188.784C211.183 189.583 210.068 190.34 209.32 190.656C207.582 191.386 206.077 191.311 204.353 190.665C203.963 190.331 203.656 190.117 203.438 189.639C203.275 189.276 203.396 189.202 203.526 188.863C204.864 188.198 206.016 189.169 207.378 189.276C208.061 189.332 209.766 188.384 210.444 188.082V188.087Z" fill="#231F20"/>
<path d="M208.711 175.078C209.297 174.915 209.71 174.961 210.305 175.003C212.916 176.745 215.225 179.38 216.619 182.205C217.093 183.162 217.418 183.817 217.079 184.839C216.833 184.951 216.494 184.992 216.229 185.058C215.406 184.296 215.276 183.092 214.756 182.126C213.511 179.807 211.346 177.359 209.143 175.923L208.846 175.733L208.711 175.087V175.078Z" fill="#231F20"/>
<path d="M223.788 153.222C225.396 153.408 227.282 154.258 228.323 155.526C229.336 156.762 229.949 158.254 229.763 159.857C229.271 160.386 228.983 160.605 228.309 160.869C227.705 160.386 227.175 159.787 226.632 159.234C224.741 157.571 223.022 158.068 220.759 157.928C219.881 157.873 219.546 157.678 218.947 157.074C218.854 156.005 218.766 155.28 219.509 154.435C220.489 153.319 222.418 153.324 223.793 153.222H223.788Z" fill="#231F20"/>
<path d="M221.223 162.068C222.106 161.971 222.334 162.073 223.142 162.449C224.322 162.997 225.122 163.718 225.535 164.986C226.218 167.091 225.647 169.544 224.62 171.444C223.393 173.716 221.521 174.655 219.17 175.389C218.445 175.431 217.716 175.472 217.042 175.147C216.275 174.775 215.221 173.735 214.97 172.917C214.398 171.04 214.719 168.605 215.583 166.877C216.833 164.368 218.649 162.988 221.228 162.068H221.223Z" fill="#231F20"/>
<path d="M110.152 109.799L110.519 109.961C113.167 115.397 115.03 121.335 116.861 127.087C114.793 127.816 111.908 128.904 110.988 131.101C110.356 132.607 112.219 141.3 112.833 143.214C113.302 144.673 113.785 146.201 115.179 146.926C115.667 148.241 115.481 149.849 115.639 151.247C117.934 171.356 128.211 192.389 144.278 204.99C160.07 217.376 179.965 222.91 199.767 224.109C203.707 224.346 208.005 224.82 211.922 224.304L212.238 224.257C212.925 227.435 213.501 230.506 214.468 233.624C214.686 234.33 215.876 236.96 215.736 237.522L146.104 241.355L57.5616 248.636L41.6298 113.66C44.162 113.715 46.657 113.409 49.1799 113.279L67.7274 112.321L92.0781 111.216L102.281 110.658C104.785 110.519 107.28 110.537 109.729 109.905L110.152 109.794V109.799Z" fill="#FEFEFE"/>
<path d="M62.7978 178.794L64.9955 178.711C65.7528 178.72 66.3893 178.818 66.9144 179.408C67.4673 180.026 67.458 180.04 67.3929 180.885C66.8168 181.656 66.2825 182.033 65.4369 182.484L63.2625 182.456C62.5423 182.414 61.8268 182.335 61.3761 181.698C60.9672 181.118 61.0509 180.602 61.167 179.956C61.6642 179.301 62.0359 179.101 62.7932 178.794H62.7978Z" fill="#231F20"/>
<path d="M58.7649 133.68C59.9451 133.606 61.0927 133.383 62.2078 133.843C62.7235 134.53 62.7328 134.609 62.7746 135.473C62.1706 136.37 61.6316 136.686 60.6373 137.002L58.1145 137.323C57.2828 137.346 56.9762 137.095 56.4 136.528C56.1259 135.748 56.1445 135.459 56.3582 134.66C57.1574 133.829 57.6917 133.88 58.7649 133.685V133.68Z" fill="#231F20"/>
<path d="M64.5634 156.024C65.1395 155.926 65.8225 156.024 66.3847 156.181C67.0398 156.363 67.3418 156.874 67.6577 157.422C67.602 158.017 67.6856 158.235 67.2814 158.709C66.3522 159.782 64.4008 159.722 63.0812 159.857L61.0462 159.792C60.3028 159.211 60.1495 159.174 59.8661 158.235C59.9822 157.831 60.0705 157.427 60.3493 157.097C61.2228 156.047 63.3043 156.149 64.568 156.024H64.5634Z" fill="#231F20"/>
<path d="M69.0005 205.482C70.1109 205.361 70.7521 205.333 71.6581 206.058C72.0252 206.955 71.9694 207.145 71.83 208.065C70.6824 209.273 69.0516 209.157 67.4905 209.269L65.5763 209.348C64.8003 209.264 64.6656 208.865 64.2428 208.298C64.1824 207.722 64.043 207.183 64.3822 206.672C65.6924 205.677 67.4208 205.673 69.0005 205.482Z" fill="#231F20"/>
</g>
<defs>
<clipPath id="clip0_150_410">
<rect width="382" height="331.57" fill="white"/>
</clipPath>
</defs>
</svg>
