<svg width="177" height="153" viewBox="0 0 177 153" fill="none" xmlns="http://www.w3.org/2000/svg">
<g clip-path="url(#clip0_162_419)">
<path d="M130.467 4.78527C130.652 4.77241 130.699 4.78956 130.864 4.85602C131.005 5.25265 130.266 5.95586 130.047 6.35892C129.891 6.64836 129.809 6.98924 129.781 7.31512C129.721 8.03977 129.843 8.74942 130.354 9.29183C130.658 9.61557 131.078 9.66702 131.507 9.65844C132.435 9.63486 133.282 9.25538 133.889 8.56075C134.03 8.39995 134.249 8.4021 134.455 8.35493L134.545 8.48357L134.155 9.16534C133.685 9.61557 133.109 10.1644 132.476 10.3595C131.719 10.5911 130.821 10.5653 130.135 10.1473C129.49 9.75492 129.168 9.12032 129.016 8.39995C128.767 7.2165 129.052 6.25173 129.725 5.2698C129.974 4.90748 130.028 4.86246 130.467 4.78742V4.78527Z" fill="#231F20"/>
<path d="M130.156 0.0257347C130.817 -0.019288 131.499 -0.0150001 132.148 0.124356C132.639 0.229409 133.13 0.604598 133.389 1.03339C132.783 1.38928 132.328 0.945484 131.698 0.838287C131.033 0.724659 130.27 0.713939 129.629 0.939052C126.96 1.87595 125.281 4.81958 124.074 7.20793C123.463 8.41711 122.841 9.96289 123.326 11.3286L123.75 12.3963C124.569 14.0535 126.031 14.9368 127.736 15.4964C129.346 16.0238 131.016 15.6122 132.489 14.8725C134.629 13.7962 136.783 12.0125 137.497 9.62629C137.776 8.69153 137.767 7.26153 137.236 6.42753C136.818 5.76934 136.198 5.36843 135.443 5.22478L135.321 5.20334L135.158 5.22264L134.856 4.95894C134.779 4.70381 134.736 4.74454 134.869 4.48941C135.351 4.38007 136.262 4.58804 136.687 4.8496C137.332 5.24622 138.038 5.94086 138.209 6.69767L138.245 6.86704C138.428 7.65815 138.471 8.4214 138.396 9.23395C138.243 10.9191 136.685 12.9494 135.39 14.0106C133.576 15.4985 131.108 16.7677 128.696 16.4547L128.506 16.4269C127.509 16.2939 126.484 15.9316 125.607 15.4364C124.003 14.5273 123.017 13.1423 122.537 11.3779C122.027 9.50408 122.979 7.30869 123.896 5.71146C125.472 2.97151 126.981 0.88331 130.156 0.0257347Z" fill="#231F20"/>
<path d="M170.452 27.3867C171.009 27.3631 171.646 27.406 172.184 27.5518C173.548 27.9205 174.562 28.8703 175.265 30.0644C176.262 31.7582 176.54 34.2816 176.002 36.179L175.949 36.3569C175.55 37.6947 174.862 38.8782 173.867 39.8601C172.268 41.4402 170.224 42.0641 168.023 42.0276C166.749 41.8583 165.587 41.5367 164.53 40.7777C163.325 39.9116 162.423 38.5716 162.215 37.0858C161.887 34.7254 162.523 32.6286 163.992 30.7784C165.688 28.6409 167.806 27.6847 170.454 27.3888L170.452 27.3867Z" fill="#231F20"/>
<path d="M170.16 28.2464L170.284 28.2335C171.404 28.1328 172.626 28.4479 173.475 29.209C174.519 30.1438 175.278 31.8675 175.366 33.2696C175.496 35.3492 174.926 37.3817 173.505 38.9339C172.113 40.454 170.428 41.1186 168.398 41.2022C167.171 41.0393 166.08 40.7734 165.055 40.0466C163.881 39.2169 163.197 37.9649 162.997 36.5541C162.757 34.854 163.484 32.8558 164.519 31.518C165.988 29.6185 167.81 28.5851 170.162 28.2442L170.16 28.2464Z" fill="#FEFEFE"/>
<path d="M168.239 31.3422L168.546 31.3251C169.167 31.2993 169.641 31.4108 170.094 31.8653C170.381 32.1548 170.602 32.6243 170.582 33.0359C170.559 33.5612 170.342 33.8721 169.978 34.2323C169.452 34.7532 168.859 35.2549 168.848 36.0525C168.844 36.344 168.841 36.5113 168.739 36.7857C168.468 36.94 168.475 36.925 168.168 36.8607L168.007 36.5177C167.984 35.8552 167.988 35.36 168.34 34.779C168.786 34.0393 169.6 33.6941 169.718 32.7658C169.543 32.4828 169.472 32.4056 169.169 32.2598C168.758 32.0626 168.391 32.2341 167.992 32.3906L167.86 32.4442C167.664 32.4228 167.589 32.4078 167.429 32.2813C167.264 32.1505 167.302 32.1033 167.276 31.9082C167.544 31.5609 167.836 31.4837 168.241 31.3444L168.239 31.3422Z" fill="#231F20"/>
<path d="M165.195 1.03337C165.623 0.939039 166.166 0.921888 166.56 1.13628C167.289 1.53505 167.973 2.1718 168.601 2.70564C170.336 4.18067 172.027 5.78863 173.316 7.67529C173.657 8.17269 174.021 8.65507 174.21 9.23179C174.174 9.5105 174.131 9.64343 173.953 9.87283C172.726 11.44 171.502 13.0158 170.156 14.4844L164.526 20.0437L158.244 26.2761C156.896 27.6482 155.695 29.0461 154.522 30.5704C154.434 30.684 153.699 31.6274 153.637 31.6381C153.435 31.6702 153.06 31.428 152.839 31.4344C152.612 31.4408 152.226 31.6231 151.997 31.696L150.352 32.129C148.757 32.6071 147.066 32.7722 145.464 33.2503C144.87 33.4283 143.702 34.1143 143.176 33.9557C143.086 33.8099 142.988 33.7263 143.001 33.5483C143.095 32.2041 143.95 30.549 144.373 29.2669C144.789 28.002 145.07 26.6041 145.25 25.2856C145.303 24.9018 145.455 24.2801 145.346 23.907L145.303 23.8084C145.526 23.459 145.636 23.0452 145.846 22.6829C146.332 21.8489 147.008 21.0063 147.614 20.2516C149.25 18.217 151.077 16.3175 152.835 14.3922L155.579 11.2257L159.541 7.0021C161.072 5.33626 162.367 3.59538 164.041 2.06246C164.427 1.71086 164.762 1.33138 165.195 1.03337Z" fill="#231F20"/>
<path d="M165.589 1.78376C165.726 1.75803 165.801 1.72373 165.941 1.76875C166.676 2.00887 167.437 2.77426 168.01 3.28022C170.034 5.06398 171.931 6.84774 173.226 9.24466C172.606 10.2009 171.888 11.097 171.181 11.9889C170.739 12.5442 170.289 13.1916 169.688 13.5776L169.457 13.4168L161.531 6.02661C162.305 5.01467 163.171 4.10135 164.056 3.18804C164.537 2.69279 164.998 2.15037 165.589 1.7859V1.78376Z" fill="#FEFEFE"/>
<path d="M161.016 6.74269C162.062 7.48449 163.036 8.45784 163.994 9.31113C165.668 10.8033 167.757 12.4156 168.981 14.3129C168.638 14.8446 168.089 15.3013 167.645 15.7515L164.611 18.7316C161.061 22.2048 157.313 25.6629 154.166 29.5049C153.99 29.7729 153.847 29.998 153.585 30.1909C153.742 29.1125 153.697 27.9291 153.386 26.8828C152.393 23.534 149.076 24.4516 146.665 23.1588C147.312 21.9604 148.236 20.9248 149.117 19.8915L153.313 15.1834L156.136 11.8345L161.014 6.74269H161.016Z" fill="#FEFEFE"/>
<path d="M164.016 13.4682L164.416 13.4296L164.646 13.629L164.594 13.8541C163.728 14.3644 163.115 15.2991 162.401 15.9981L153.759 24.7217L153.478 24.7753C153.249 24.6124 153.206 24.6103 153.126 24.3466C153.836 23.191 154.878 22.1726 155.83 21.2143L159.024 18.0262C160.611 16.4676 162.144 14.6924 164.013 13.4661L164.016 13.4682Z" fill="#231F20"/>
<path d="M162.369 9.07315L162.594 9.13104L162.654 9.39474C162.423 10.173 161.741 10.8162 161.213 11.4143L157.695 15.1448L153.549 19.6106C152.661 20.6311 151.995 21.6838 151.233 22.7879L150.912 22.8201C150.674 22.6078 150.571 22.5778 150.517 22.2541C150.832 21.3794 151.596 20.4853 152.194 19.7821C154.192 17.4281 156.462 15.3613 158.583 13.1273L160.834 10.6082C161.314 10.0658 161.764 9.47407 162.373 9.06886L162.369 9.07315Z" fill="#231F20"/>
<path d="M69.0435 43.8371L69.3029 44.2337H69.4229C69.8003 43.8007 70.0575 43.4919 70.645 43.3783C71.4897 43.2154 72.8554 44.8919 73.3978 45.4944L74.4998 46.7357C74.5662 46.8107 74.7806 47.0916 74.8492 47.1281C74.905 47.1581 75.2394 47.113 75.3273 47.1088L77.9215 46.8794L87.953 46.2426L102.778 45.7924C103.576 45.7774 106.732 45.5265 107.236 45.8824C107.476 46.0518 107.737 46.2876 107.896 46.5342C108.363 47.2588 108.522 48.3329 108.693 49.1648C109.244 51.8426 109.435 54.5654 109.858 57.2603C110.844 55.9118 111.496 54.3338 112.493 52.9703C114.885 49.7029 117.653 46.7186 120.68 44.0386C123.487 41.5538 126.529 39.3198 129.953 37.759C131.835 36.8993 133.983 36.1468 136.069 36.1318C136.56 36.1275 137.071 36.1082 137.532 36.299L137.669 36.3612C137.81 36.4234 137.945 36.4813 138.078 36.5649C139.287 37.3431 139.875 38.9253 140.164 40.2675C140.964 43.9679 139.907 47.7927 138.908 51.3452C138.574 52.5286 138.155 53.7228 137.982 54.9406C137.838 55.9504 137.69 57.1488 138.381 58.0021C139.916 59.8931 143.61 58.3044 145.404 57.6591C146.603 57.2281 147.82 56.7736 149.051 56.4413C150.837 55.9589 152.818 55.6759 154.666 55.886C156.274 56.0704 157.893 56.8723 158.911 58.15C161.325 61.1773 161.308 65.686 160.87 69.3285C160.049 76.1655 155.275 81.8191 150.601 86.5251C149.064 88.073 147.518 89.6188 145.841 91.0209L140.477 95.2959L136.157 98.4668L143.515 94.4726C147.486 92.1572 151.276 89.8846 155.882 89.0528C157.324 88.7933 159.318 88.6647 160.738 89.027C161.917 89.3272 162.914 89.6831 163.917 90.397C166.052 91.9128 167.272 94.4941 167.686 97.0196C168.029 99.1207 168.048 101.2 167.42 103.248C166.065 107.675 162.811 111.596 159.202 114.437C158.746 114.797 158.285 115.157 157.8 115.481C157.727 115.53 157.299 115.766 157.271 115.818C157.249 115.856 157.279 115.906 157.286 115.951L157.813 122.466L158.032 132.862L157.841 147.351C157.809 148.002 157.972 149.529 157.607 150.037C157.112 150.294 156.49 150.185 155.946 150.204L153.886 150.363L141.997 151.673L133.853 152.014C132.605 152.044 131.355 152.018 130.111 152.115L125.238 152.689C124.447 152.796 123.622 152.991 122.822 152.998C122.365 153.002 122.153 152.925 121.84 152.595C121.641 152.385 121.542 152.149 121.488 151.868C121.296 150.871 121.531 149.64 121.561 148.62L121.591 143.712C121.165 143.567 120.477 143.652 120.009 143.652L116.124 143.73L92.541 145.265L76.3093 146.723L67.547 146.997L61.9384 147.119L52.012 146.723C46.4978 146.427 40.9579 145.621 35.5466 144.525C29.5243 143.305 23.5963 141.714 18.0392 139.041C14.0064 137.101 10.2309 134.577 7.53602 130.947C6.00739 128.887 5.13695 126.672 4.74675 124.151C4.68244 123.742 4.63313 120.985 4.57953 120.91C4.50878 120.809 3.54829 120.496 3.35748 120.404C2.51492 119.992 1.77097 119.387 1.15351 118.682C0.383841 117.803 -0.117841 116.592 0.0215154 115.41C0.0643942 115.037 0.240197 114.761 0.559644 114.557C0.844788 114.375 1.21355 114.33 1.54157 114.405C3.12808 114.763 4.10143 117.503 4.8904 118.791L4.99545 115.897C5.1734 113.684 5.95165 111.062 7.74612 109.6C8.30569 109.146 9.19114 108.711 9.9308 108.828C10.4453 108.91 10.8977 109.195 11.1979 109.622C11.721 110.366 11.6352 111.463 11.4573 112.299C10.9449 114.707 9.02177 117.098 7.46741 118.937C6.91213 119.595 6.374 120.318 5.64292 120.787L5.54001 120.852C5.51643 121.649 5.46712 122.46 5.56574 123.253C6.01811 126.925 7.55103 129.858 10.1623 132.487C15.4643 137.823 23.399 140.604 30.5512 142.355C45.6895 146.064 61.4518 146.622 76.9567 145.636L93.3793 144.193L113.284 142.872L121.907 142.591L121.902 124.37C121.233 124.218 120.562 124.089 119.876 124.053L115.335 123.941C114.531 123.92 113.224 124.042 112.58 123.551C112.201 122.653 112.209 121.398 112.109 120.425L111.386 112.432H106.498C106.234 113.187 106.091 113.97 105.617 114.63C105.368 114.975 104.888 115.346 104.44 115.348C103.304 115.352 101.831 113.348 101.192 112.537C100.178 112.456 99.1722 112.604 98.1624 112.634L89.0571 113.061L73.0312 113.841C71.048 113.963 69.0606 113.963 67.0882 114.197L71.6098 129.106L77.8143 128.428L82.3466 127.789C82.7968 127.719 83.7595 127.466 84.1561 127.648C85.3824 128.205 86.538 129.125 87.7429 129.775L92.9012 132.461C93.5337 132.791 94.2112 133.066 94.8243 133.428C95.0623 133.569 95.2295 133.745 95.3003 134.024C95.3603 134.258 95.3003 134.547 95.1416 134.732C94.9186 134.995 94.5756 135.051 94.254 135.096C89.0828 135.821 83.738 135.866 78.5261 136.241L67.9222 137.259L53.3091 138.228L44.8105 138.88L36.6936 139.287L33.5141 139.536C32.8581 139.596 32.1549 139.725 31.4945 139.69C31.1922 139.675 31.085 139.566 30.8771 139.36C30.8278 139.034 30.7785 138.786 31.0014 138.503C31.2673 138.164 31.8054 137.928 32.1742 137.714L34.2902 136.434C35.6731 135.538 37.0709 134.59 38.353 133.552C38.949 133.068 39.5536 132.579 40.1089 132.052C40.3833 131.792 40.9472 131.044 41.2259 130.928C41.5475 130.793 42.4222 130.894 42.8059 130.87L49.7502 130.321L50.0675 115.586C43.1147 116.141 36.1812 116.804 29.1984 116.851C27.6826 116.862 25.9675 117.018 24.4774 116.737C23.6477 116.581 22.8394 116.206 22.3656 115.475C21.6496 114.373 21.3623 112.675 21.1136 111.395L20.1467 106.116L16.7657 84.4776L14.0857 61.2202L13.8435 56.317C13.8328 55.5987 13.7534 54.754 13.9335 54.0594L13.97 53.9265C14.1308 53.3433 14.4138 52.5586 14.8554 52.1213C15.2285 51.7547 15.7795 51.506 16.2876 51.4052C16.9393 51.2766 17.6361 51.3902 18.2943 51.3237L27.4725 50.7084L50.6313 49.6793L47.3682 41.1207C47.1646 40.5612 46.5064 39.2384 46.5664 38.6509C46.5771 38.5373 46.6457 38.4365 46.6843 38.3293C46.9244 38.1428 46.9802 38.027 47.2996 38.0785L47.4647 38.1149C47.4433 37.9734 47.4304 37.8319 47.439 37.6883C47.4712 37.2123 47.7584 36.7428 47.9621 36.3205L48.8604 34.4274C50.0139 31.9811 51.0301 29.4084 52.4665 27.1101C52.7517 26.6556 53.0711 26.3254 53.472 25.9781L53.6135 25.9953C53.8837 26.0467 54.0702 26.1689 54.2181 26.4005C54.3768 26.6492 54.2053 26.4348 54.4368 26.6942C54.8184 26.0703 55.0157 25.3585 55.2022 24.6574C54.857 25.0519 54.6662 25.5858 54.276 25.9331L54.0488 25.8516L53.9566 25.5729C54.0402 25.0884 54.2524 24.606 54.499 24.1793C54.6105 23.9885 54.7648 23.6455 54.9964 23.6091C55.5709 23.5169 55.7661 23.8878 56.152 24.2008L56.3299 23.7506C56.7051 23.4718 56.7523 23.4826 57.2239 23.4847C57.5691 23.6712 57.7299 23.832 57.955 24.1536L58.0622 24.3101C58.8383 25.41 59.1363 26.9214 59.0849 28.2635C59.0741 28.5187 59.3722 28.836 59.5094 29.0589C60.9865 31.4451 60.2362 34.6525 59.6294 37.1973C60.2233 36.6806 60.9844 35.8552 61.7798 35.6987C62.8561 35.9538 63.51 38.1535 64.1103 39.0476C65.9326 39.0476 67.5727 38.5673 69.0177 37.4439C70.5035 36.2883 71.449 34.6546 71.7641 32.8108C71.9271 31.8525 71.9378 30.9863 71.6655 30.0366C71.1338 28.1714 69.543 26.2611 67.8471 25.3499C66.2499 24.4902 64.8049 24.3337 63.019 24.5417C62.5237 24.5996 61.9041 24.6639 61.4389 24.8525C60.8901 25.0755 60.5899 25.6758 60.0089 25.8559C59.8052 25.7744 59.6294 25.693 59.4472 25.575L59.4772 25.3799C59.5951 24.7003 60.502 24.278 61.0466 23.9135C61.0123 22.9423 61.0487 21.9068 61.2288 20.9527C61.8248 17.7925 63.6665 15.2177 66.3378 13.4446C67.3004 12.8057 68.6254 12.1454 69.8196 12.392L70.019 12.7136C70.0082 12.8229 70.0425 12.9472 69.9825 13.0394C69.8775 13.2067 69.2557 13.3203 69.0692 13.3675C68.0165 13.6355 67.1911 14.1436 66.3507 14.8232C63.4199 17.203 62.3136 19.7843 61.9256 23.4761L63.0276 22.9251L63.4006 22.1083C65.2187 18.4915 69.483 15.9359 73.192 14.7074C73.4578 14.8382 73.445 14.9004 73.5693 15.1748C73.5028 15.5007 73.4235 15.5543 73.1319 15.7108C72.313 16.1524 71.3954 16.4397 70.5592 16.8707C67.8729 18.2556 65.7139 20.2688 64.0266 22.745C64.6527 22.7793 65.2594 22.8179 65.8747 22.9509L66.0098 22.9809L66.4064 22.5928C68.5997 20.5625 71.3096 19.0017 74.3819 19.1475C75.7947 19.214 76.9653 19.6706 77.9301 20.7212C77.9622 21.0213 77.973 21.0578 77.8357 21.3215C77.69 21.3536 77.6364 21.4072 77.5056 21.3258C75.7218 20.2216 74.3626 19.825 72.2787 20.331C70.8658 20.674 69.6395 21.33 68.4474 22.149C68.0444 22.4256 67.517 22.7751 67.264 23.1953C68.5268 23.6412 69.573 24.1493 70.5978 25.0262C72.4009 26.5655 73.61 28.7867 73.7773 31.1621C73.9488 33.6298 72.969 35.6751 71.3611 37.4825C69.5902 39.4742 67.4076 40.2739 64.8156 40.4304L66.2113 43.5991C66.5672 43.0996 67.0389 42.3278 67.5406 41.9826C68.1323 42.5443 68.6383 43.106 69.0413 43.8221L69.0435 43.8371Z" fill="#231F20"/>
<path d="M64.2839 57.7405L64.509 57.807L64.6805 59.5929C64.6977 59.8802 64.6355 60.2104 64.7255 60.4826L64.8821 60.8685L64.9614 61.0636L64.7234 61.2973C64.4983 61.3981 64.479 61.4688 64.2367 61.3852L64.0073 57.9056L64.286 57.7405H64.2839Z" fill="#FEFEFE"/>
<path d="M65.8211 57.419C66.0569 57.3825 66.0698 57.3525 66.297 57.4554C66.6208 57.9635 67.1439 58.864 67.1332 59.4729C67.1289 59.7173 66.8266 59.9188 66.6551 60.0903L65.9283 60.607C65.8661 59.788 65.5273 58.1458 65.8189 57.419H65.8211Z" fill="#FEFEFE"/>
<path d="M66.5094 43.9336C66.7066 43.9357 66.8331 43.9936 66.9832 43.8543C67.2104 43.642 67.3605 43.4984 67.6714 43.4233C67.845 43.5777 67.9973 43.7128 68.1366 43.9014L68.7841 44.7869C68.4282 45.4601 67.3584 46.2469 66.7902 46.7979C66.6251 46.0518 66.1964 44.6218 66.5094 43.9357V43.9336Z" fill="#FEFEFE"/>
<path d="M57.972 58.8125L58.3451 58.7353L58.5316 58.8661L59.1748 62.2149C59.2541 62.6266 59.4792 63.244 59.3441 63.6192L58.6881 63.8851L58.2893 63.988C58.2957 62.2771 57.6354 60.6091 57.6461 58.9433L57.9699 58.8125H57.972Z" fill="#FEFEFE"/>
<path d="M70.8336 45.4429L73.773 48.6502C73.4599 48.9804 73.1212 49.2527 72.7653 49.5314L72.5252 49.6236L72.5381 49.4135C72.5423 49.2848 72.5466 49.1241 72.4952 49.004C72.3665 48.7081 71.9463 48.3822 71.7191 48.1528L69.916 46.279L70.8358 45.4429H70.8336Z" fill="#FEFEFE"/>
<path d="M61.6317 58.1436L62.5257 58.0729L62.6672 58.2229L63.0381 61.1108C63.0638 61.3617 63.1817 61.7068 63.1003 61.9491C63.051 62.0949 62.6115 62.245 62.4635 62.3157L62.099 62.3757C61.8461 61.9427 61.0764 58.8018 61.1621 58.2765L61.6295 58.1436H61.6317Z" fill="#FEFEFE"/>
<path d="M56.2248 59.3485L56.5764 59.3142C56.883 60.6349 56.7608 62.1999 57.2196 63.4863C57.3611 63.8851 57.6119 63.9151 57.97 64.0566L57.9378 64.1724L56.928 64.6676C56.69 64.7662 56.5164 64.8563 56.2548 64.8434C56.0254 64.331 55.9911 63.6685 55.9011 63.1111L55.3394 59.6251L56.2248 59.3464V59.3485Z" fill="#FEFEFE"/>
<path d="M0.909125 115.305C1.14496 115.222 1.235 115.23 1.47727 115.25C2.3134 115.753 2.85153 116.787 3.31462 117.619L4.66745 120.033C3.00375 119.259 1.53301 118.41 0.902693 116.564C0.72689 116.047 0.660428 115.786 0.906981 115.305H0.909125Z" fill="#FEFEFE"/>
<path d="M53.7828 60.0989L54.1644 60.0088C54.2051 60.0388 54.2566 60.0581 54.2866 60.0989C54.3681 60.2146 54.3659 61.1365 54.3874 61.3316C54.531 62.5815 54.7411 64.0802 55.1871 65.2593L55.2235 65.3515C55.0584 65.6066 54.7111 65.6924 54.441 65.806C54.1837 65.8854 54.0765 65.9625 53.8064 65.8875C53.3519 64.0909 53.384 62.2921 53.146 60.4783C53.1225 60.3047 53.1096 60.4033 53.2232 60.2061L53.7828 60.0989Z" fill="#FEFEFE"/>
<path d="M144.227 98.9042L144.585 98.8205C144.814 98.9342 144.928 98.9385 145.007 99.2C145.175 99.7639 144.782 107.16 144.536 107.662L144.13 107.714C143.813 107.729 143.35 107.814 143.084 107.628L143.65 101.848C143.747 100.928 143.77 99.721 144.227 98.9063V98.9042Z" fill="#FEFEFE"/>
<path d="M149.677 100.096C150.294 100.418 151.152 100.754 151.647 101.23C150.689 103.181 149.803 105.342 148.62 107.158C148.167 107.497 147.378 107.441 146.832 107.473L149.679 100.096H149.677Z" fill="#FEFEFE"/>
<path d="M69.187 47.128L69.3221 47.1173C69.6458 47.3875 69.8838 47.7712 70.1732 48.0821C70.7714 48.7253 71.3845 49.3427 71.942 50.0245C71.9484 50.2882 71.9613 50.3997 71.8026 50.627C71.5132 51.045 70.9622 51.4395 70.5741 51.7782C69.4636 52.7516 68.2158 53.7142 67.3239 54.8977L67.2124 55.0456L65.761 51.7868C66.2048 52.1985 66.5478 52.7087 66.9444 53.1675C67.2274 53.4934 67.3411 53.6906 67.7784 53.7249C68.0035 53.5406 68.0228 53.5191 68.1086 53.2404C67.9542 52.7816 67.4976 52.3421 67.1931 51.9648L66.2841 50.702C66.3399 50.4276 66.8137 50.0288 67.013 49.808C67.4204 50.5669 67.9114 51.3709 68.5245 51.9819C68.6532 52.1106 68.576 52.0612 68.8161 52.0612L69.0198 51.5531C68.9469 50.8306 68.1193 49.7544 67.6841 49.1412L68.3702 48.2686C68.919 49.0426 69.5879 49.8037 70.2568 50.4769C70.4862 50.7063 70.6835 50.9828 70.9986 51.0729C71.2023 50.8478 71.2816 50.6248 71.3867 50.3461C71.0372 49.4757 69.8988 48.5752 69.3478 47.7734C69.1677 47.5097 69.1291 47.4453 69.1891 47.1302L69.187 47.128Z" fill="#FEFEFE"/>
<path d="M153.092 93.3299C153.193 93.2913 153.264 93.257 153.377 93.242C153.682 93.2034 153.941 93.2849 154.183 93.4736C154.301 93.5658 154.473 93.7587 154.49 93.9045C154.61 94.9272 152.728 99.4509 152.016 100.317L151.75 100.193C151.21 99.8003 150.678 99.4744 150.084 99.1743L151.752 95.3452C152.095 94.6334 152.47 93.8273 153.096 93.3321L153.092 93.3299Z" fill="#FEFEFE"/>
<path d="M9.06024 109.804C9.55549 109.74 9.87922 109.707 10.3337 109.945C10.5696 110.207 10.6853 110.383 10.7218 110.741C11.0005 113.462 8.28628 116.592 6.69548 118.551L5.74357 119.711C5.68783 117.458 5.75214 114.988 6.5454 112.853C7.00849 111.607 7.82533 110.374 9.0581 109.802L9.06024 109.804Z" fill="#FEFEFE"/>
<path d="M83.3757 129.871C83.5944 129.854 84.1025 129.753 84.2976 129.798C84.4005 129.822 84.6792 130.043 84.7843 130.109L86.2571 131.04L90.693 133.445L41.4338 137.521L34.3374 137.909C34.4682 137.656 35.9025 136.899 36.2391 136.663C37.594 135.718 38.9233 134.766 40.1882 133.698C40.6642 133.295 41.2345 132.493 41.7833 132.294C42.9517 132.412 44.1759 132.275 45.3487 132.234L54.246 131.811L66.6058 131.565C72.2058 131.286 77.8208 130.594 83.3778 129.869L83.3757 129.871Z" fill="#FEFEFE"/>
<path d="M155.032 108.11C155.384 108.142 155.628 108.119 155.899 108.387C156.488 108.972 156.304 113.961 156.233 115.054L133.897 115.194L129.522 115.346C129.166 115.363 128.812 115.299 128.46 115.348C127.148 115.533 125.517 115.4 124.188 115.28L122.631 115.123C122.807 113.009 123.008 110.891 123.527 108.828L155.03 108.11H155.032Z" fill="#FEFEFE"/>
<path d="M137.992 111.017C138.125 110.979 138.265 110.957 138.402 110.951C138.811 110.93 139.043 111.12 139.33 111.382C139.442 111.624 139.491 111.766 139.448 112.036C139.373 112.51 139.184 112.728 138.794 112.992L138.488 113.082C138.125 113.155 137.847 112.977 137.561 112.786C137.403 112.501 137.354 112.405 137.369 112.079C137.39 111.601 137.645 111.311 137.992 111.015V111.017Z" fill="#231F20"/>
<path d="M132.785 111.017C132.98 110.966 133.153 110.917 133.357 110.936C133.921 110.987 134.178 111.215 134.508 111.648C134.562 111.879 134.59 112.042 134.528 112.276C134.408 112.743 134.155 112.958 133.758 113.206C133.61 113.249 133.434 113.316 133.276 113.309C132.849 113.294 132.515 113.101 132.257 112.767C132.017 112.458 131.996 112.139 132.019 111.766C132.242 111.416 132.429 111.228 132.785 111.015V111.017Z" fill="#231F20"/>
<path d="M127.084 110.764C127.397 110.747 127.768 110.696 128.072 110.769C128.433 110.854 128.75 111.122 128.924 111.444C129.142 111.851 129.074 112.355 128.915 112.771C128.741 113.224 128.394 113.468 127.967 113.652C127.736 113.706 127.554 113.74 127.318 113.697C126.816 113.603 126.447 113.322 126.175 112.895C125.963 112.561 125.946 112.113 126.051 111.74C126.214 111.165 126.597 111.017 127.084 110.764Z" fill="#231F20"/>
<path d="M65.3707 114.338C65.6109 114.293 65.6194 114.28 65.8338 114.394L70.111 129.228C68.4301 129.498 66.6893 129.565 64.9913 129.659L55.693 129.989L51.135 130.253L51.1243 115.481L65.3707 114.341V114.338Z" fill="#FEFEFE"/>
<path d="M56.5014 25.6286C56.7287 25.9009 57.1553 26.4562 57.1704 26.8185C57.2089 27.7404 56.39 28.9689 56.0405 29.8222L54.6834 33.5076C54.4711 34.065 53.7422 35.3964 53.8966 35.9345L54.1645 36.0803C54.4754 35.9238 54.5655 35.5744 54.7134 35.2635L56.0941 32.1205C56.5636 31.0957 57.0353 30.028 57.7385 29.1404C58.193 29.6507 58.6647 30.2317 58.8233 30.9113C59.0827 32.0133 58.8148 33.4454 58.6518 34.5538C58.4203 36.1275 58.193 37.759 57.7814 39.292C57.5391 40.1945 56.9538 41.4702 57.0331 42.3942C57.8907 43.3011 58.6732 45.2885 59.7945 45.7516C60.1333 45.6723 60.1869 45.7002 60.3991 45.4107C60.3477 44.3452 59.102 42.9238 58.5039 42.0426C59.0291 40.7927 59.4879 39.3713 60.1783 38.2114C60.5385 37.6047 61.1195 37.0644 61.6104 36.5627C62.3351 39.2233 63.6643 41.601 64.6441 44.1565C65.1072 45.3657 65.3495 46.6392 65.6925 47.8849C65.0215 48.2751 64.5476 49.4221 64.3247 50.151C63.8509 51.6968 64.1724 52.7001 64.8928 54.0744C65.2444 54.6811 65.6175 55.2257 66.0548 55.7724C62.4594 56.4284 58.8319 56.8272 55.3373 57.9785C54.8463 55.3115 53.8665 52.9445 52.7817 50.479L48.9398 41.974C48.466 40.872 47.6663 39.5728 47.5098 38.3872C47.6984 38.2972 47.8528 38.3658 48.0565 38.3958C49.7437 37.8877 51.4996 32.9416 52.2436 31.3101C52.6038 30.5211 53.0325 29.7643 53.4549 29.0075H53.5685L51.1995 35.4457C51.058 35.9731 50.7836 36.5584 51.0687 37.0472L51.326 37.1159C51.9327 36.5198 52.2757 35.0384 52.6016 34.2387L54.2717 30.4568C54.9492 28.8553 55.4831 27.0372 56.5036 25.6243L56.5014 25.6286Z" fill="#FEFEFE"/>
<path d="M68.3744 62.2428C68.5288 62.2235 68.6231 62.1828 68.7668 62.2793C68.8375 62.3286 71.4745 67.905 71.8004 68.4988C74.9949 74.3368 78.7339 79.8553 84.4925 83.4271C84.1774 83.6565 83.8708 83.933 83.6543 84.2611C82.921 85.3759 82.3979 86.8016 81.8298 88.0129L79.0812 94.0567C78.423 95.5467 77.737 97.0432 77.2675 98.604L72.3879 96.1492L69.9223 94.5777C68.1043 93.3771 66.4149 91.7884 64.8819 90.2491C63.6963 89.0592 62.4786 87.8136 61.4624 86.4757C57.2774 80.9723 55.1892 74.2832 53.8342 67.6005C55.35 67.354 56.735 66.7601 58.1757 66.2541L65.4758 63.5249C66.4534 63.1197 67.3668 62.5794 68.3744 62.2471V62.2428Z" fill="#FEFEFE"/>
<path d="M122.543 115.854C125.768 116.514 129.305 116.27 132.579 116.122L138.318 115.987L151.169 116.182L156.417 116.103L157.149 138.211C157.245 139.44 157.103 140.786 157.067 142.025L156.788 149.195L155.17 149.321C153.167 149.452 151.225 149.799 149.235 150.033L141.041 150.766L137.24 150.895L134.509 151.049C132.871 151.075 131.235 151.021 129.601 151.15L124.539 151.699C124.145 151.746 123.259 151.988 122.903 151.853C122.8 151.814 122.815 151.795 122.768 151.686C122.633 151.371 122.556 150.749 122.691 150.432C122.783 150.213 122.822 150.101 122.792 149.868C122.644 148.684 122.783 147.357 122.777 146.159L122.83 135.527L122.807 126.006L122.58 121.825L122.543 115.856V115.854Z" fill="#FEFEFE"/>
<path d="M129.429 134.354L130.167 134.455C130.497 134.558 130.793 135.021 130.943 135.317C131.19 135.803 131.222 136.372 131.009 136.878C130.814 137.345 130.426 137.536 129.978 137.707C129.68 137.688 129.333 137.677 129.05 137.572C128.64 137.418 128.319 137.002 128.182 136.599C128.04 136.187 128.092 135.587 128.285 135.201C128.542 134.689 128.902 134.517 129.427 134.352L129.429 134.354Z" fill="#231F20"/>
<path d="M134.513 127.526C135.765 127.305 137.495 127.856 138.743 128.094L145.483 129.34L149.087 129.732C149.276 129.76 149.428 129.803 149.538 129.966C150.189 130.915 149.458 142.906 149.122 144.57C148.701 145.063 147.295 145.014 146.622 145.087L142.12 145.451H134.991L132.234 145.503C131.947 145.507 131.342 145.561 131.078 145.464C131.012 145.44 130.789 145.299 130.733 145.235C130.553 145.025 130.523 144.898 130.514 144.637C130.489 143.824 130.675 142.969 130.804 142.167L131.426 138.052C132.043 138.481 132.555 139.03 133.117 139.527L135.523 141.545L135.999 141.912L136.155 141.884C136.498 141.744 136.978 141.234 137.259 140.983L140.289 138.256L146.999 132.3C147.441 131.889 148.296 131.278 148.547 130.739C148.345 130.529 148.202 130.356 147.91 130.274C146.772 131.072 145.745 132.045 144.694 132.954L136.039 140.666C135.405 140.235 134.867 139.654 134.275 139.161C133.567 138.571 132.708 138.007 132.082 137.347C131.835 137.086 131.715 136.674 131.784 136.314L131.854 136.127C132.528 133.452 133.014 130.705 133.99 128.098C134.123 127.742 134.163 127.684 134.513 127.524V127.526Z" fill="#231F20"/>
<path d="M101.095 47.4475L106.226 47.4732C106.592 48.2215 106.755 49.1691 106.937 49.9816C107.555 52.7516 107.801 55.5602 108.02 58.3837C108.091 59.2949 108.277 60.2897 108.172 61.1987C106.974 61.1644 105.795 62.2364 104.888 62.9396C103.511 64.0073 102.309 65.2722 101.142 66.5607C97.3905 70.7006 94.2732 75.7475 92.3951 81.0237C91.9835 82.1793 91.4947 83.5343 91.3617 84.7563C91.2996 85.3159 91.1323 85.8604 91.0659 86.4179C90.8622 88.103 90.7529 89.6938 91.1259 91.3639C91.5847 93.4114 92.7746 95.3924 94.5798 96.5115C95.9198 97.3412 97.4012 97.6735 98.9449 97.8601C99.3801 97.9115 99.9611 98.0187 100.381 97.9029C100.636 97.8322 100.654 97.7271 100.784 97.5127C100.78 97.4055 100.802 97.0368 100.761 96.9617C100.654 96.7645 99.6266 96.4922 99.4144 96.4258C98.5911 96.1749 97.8128 95.8769 97.0389 95.4974C96.1213 95.0472 95.3366 94.5091 94.6591 93.7351C93.2784 92.155 92.7124 89.6123 92.8775 87.5563L92.8882 87.4362L93.0812 85.5603C93.7265 81.8405 95.1093 78.5475 96.981 75.2865C99.9332 70.1475 103.533 66.1319 108.374 62.6973L111.33 109.472L107.478 109.575L107.696 108.518C108.121 106.288 108.299 104.011 108.312 101.743C108.316 101.035 108.442 100.173 108.033 99.5666C107.759 99.5473 107.737 99.5666 107.497 99.7081C107.285 100.313 107.347 100.952 107.3 101.584C107.231 102.508 107.077 103.439 106.942 104.354C106.599 106.657 106.125 108.803 105.527 111.047C105.334 111.77 104.997 113.408 104.39 113.858C104.161 113.79 104.026 113.633 103.863 113.468C102.197 111.77 101.329 109.298 100.568 107.094L98.9792 100.139C98.9234 99.8346 98.9127 99.5087 98.6018 99.3608C98.3553 99.2429 98.143 99.2879 97.8986 99.3694C97.5213 100.017 97.785 101.434 97.8407 102.18C92.9847 101.768 88.1244 101.511 83.3606 100.388C82.0806 100.085 80.8436 99.8153 79.6108 99.3415L85.9719 84.3297C87.2197 84.7842 89.5437 85.9097 90.8107 85.5067C91.0402 85.4338 91.1817 84.9728 91.2803 84.7542C91.2417 84.4562 91.2524 84.3983 90.9973 84.2053C90.6821 83.9652 90.1847 83.8516 89.8138 83.6929C88.566 83.1612 87.2925 82.6853 86.1091 82.0185C82.0056 79.7052 79.0641 76.232 76.4442 72.3858C74.7698 69.9267 73.2262 67.3175 71.9955 64.6054C70.7049 61.7626 69.6801 58.7503 68.175 56.0147C70.6985 54.3917 72.9882 52.3164 75.2929 50.3954C77.8056 52.2456 79.9431 54.6554 82.2779 56.7179L92.4659 65.5037C93.2291 66.2241 93.9838 66.9938 94.6527 67.802C95.0536 68.2866 95.4352 69.082 95.9133 69.4529C96.1277 69.6201 96.2499 69.5601 96.5008 69.5301L96.6744 69.2556C96.5201 67.4847 92.9783 64.2988 91.6426 63.0296L82.2071 54.7219L79.3192 52.1599L75.8975 49.347L75.8782 49.2463L75.8504 49.109C75.7903 48.7682 75.6188 48.5259 75.4409 48.2343L101.095 47.4475Z" fill="#FEFEFE"/>
<path d="M102.476 100.51C102.78 100.506 103.07 100.489 103.368 100.572L103.541 100.885L103.421 101.215L103.1 101.327L102.028 101.269C101.908 100.964 101.936 100.928 102.015 100.606L102.476 100.51Z" fill="#231F20"/>
<path d="M97.1076 86.7909C97.3606 86.7223 97.397 86.6601 97.6457 86.7737C97.6307 86.9217 97.635 86.9581 97.5793 87.1125C97.4485 87.4812 96.9339 87.8307 96.5888 87.9765C95.7869 88.3131 95.0923 88.2788 94.2969 87.9808C94.1168 87.8264 93.9753 87.7278 93.8745 87.507C93.7995 87.3397 93.8552 87.3054 93.9153 87.1489C94.5327 86.8423 95.0644 87.2904 95.6926 87.3397C96.0078 87.3655 96.7946 86.9281 97.1076 86.7887V86.7909Z" fill="#231F20"/>
<path d="M96.3079 80.7879C96.578 80.7128 96.7688 80.7343 97.0432 80.7536C98.2481 81.5575 99.3137 82.7732 99.9568 84.0767C100.176 84.5183 100.326 84.8206 100.169 85.2923C100.055 85.3437 99.899 85.363 99.7768 85.393C99.3973 85.0414 99.3372 84.4862 99.0971 84.0402C98.5226 82.9704 97.5235 81.8405 96.5073 81.1781L96.37 81.0902L96.3079 80.7922V80.7879Z" fill="#231F20"/>
<path d="M103.265 70.7028C104.007 70.7885 104.877 71.1809 105.357 71.7662C105.825 72.3365 106.108 73.0247 106.022 73.7643C105.795 74.0087 105.662 74.1095 105.351 74.2317C105.072 74.0087 104.828 73.7322 104.577 73.477C103.704 72.7095 102.911 72.9389 101.867 72.8746C101.462 72.8489 101.308 72.7588 101.031 72.4801C100.988 71.987 100.947 71.6526 101.29 71.2624C101.743 70.7478 102.632 70.75 103.267 70.7028H103.265Z" fill="#231F20"/>
<path d="M102.082 74.7848C102.489 74.7398 102.594 74.787 102.967 74.9606C103.512 75.2136 103.88 75.5459 104.071 76.1312C104.386 77.1024 104.123 78.2344 103.649 79.1113C103.083 80.1597 102.219 80.5928 101.134 80.9315C100.799 80.9508 100.463 80.9701 100.152 80.82C99.7982 80.6485 99.3116 80.1683 99.1958 79.7909C98.9321 78.9248 99.08 77.8014 99.4788 77.0038C100.056 75.8461 100.894 75.2093 102.084 74.7848H102.082Z" fill="#231F20"/>
<path d="M50.8285 50.6656L50.9979 50.7406C52.2199 53.249 53.0797 55.9889 53.9244 58.6431C52.9703 58.9797 51.6389 59.4814 51.2144 60.4955C50.9228 61.1901 51.7826 65.2014 52.0656 66.0848C52.2821 66.7579 52.5051 67.4633 53.1483 67.7978C53.3734 68.4045 53.2876 69.1463 53.3605 69.7916C54.4196 79.0706 59.162 88.7762 66.5757 94.5906C73.863 100.306 83.0433 102.86 92.1808 103.413C93.9988 103.522 95.982 103.741 97.7893 103.503L97.9351 103.481C98.2524 104.948 98.5183 106.365 98.9642 107.804C99.065 108.13 99.6138 109.343 99.5495 109.602L67.4183 111.371L26.5613 114.731L19.2097 52.4472C20.3782 52.4729 21.5295 52.3314 22.6936 52.2714L31.2522 51.8297L42.4886 51.3195L47.1967 51.0622C48.3523 50.9979 49.5036 51.0064 50.6334 50.7149L50.8285 50.6634V50.6656Z" fill="#FEFEFE"/>
<path d="M28.9774 82.503L29.9915 82.4644C30.3409 82.4687 30.6347 82.5137 30.8769 82.786C31.132 83.0712 31.1278 83.0776 31.0977 83.4678C30.8319 83.8237 30.5853 83.9973 30.1951 84.2053L29.1918 84.1924C28.8595 84.1731 28.5293 84.1367 28.3213 83.843C28.1327 83.575 28.1713 83.337 28.2249 83.039C28.4543 82.7367 28.6258 82.6445 28.9752 82.503H28.9774Z" fill="#231F20"/>
<path d="M27.1165 61.6854C27.6611 61.6511 28.1906 61.5482 28.7052 61.7604C28.9432 62.0777 28.9475 62.1142 28.9667 62.5129C28.688 62.9267 28.4393 63.0725 27.9805 63.2183L26.8164 63.3662C26.4326 63.3769 26.2911 63.2612 26.0253 62.9996C25.8988 62.6394 25.9073 62.5065 26.006 62.1378C26.3747 61.754 26.6213 61.7776 27.1165 61.6875V61.6854Z" fill="#231F20"/>
<path d="M29.7923 71.9956C30.0581 71.9506 30.3733 71.9956 30.6327 72.0685C30.935 72.1521 31.0744 72.3879 31.2201 72.6409C31.1944 72.9153 31.233 73.0161 31.0465 73.2348C30.6177 73.73 29.7172 73.7022 29.1084 73.7643L28.1693 73.7343C27.8263 73.4663 27.7555 73.4492 27.6248 73.0161C27.6784 72.8296 27.7191 72.6431 27.8477 72.4908C28.2508 72.0063 29.2113 72.0535 29.7944 71.9956H29.7923Z" fill="#231F20"/>
<path d="M31.8396 94.8178C32.352 94.7621 32.6478 94.7492 33.0659 95.0837C33.2353 95.4974 33.2095 95.5853 33.1452 96.0098C32.6157 96.5673 31.8631 96.5137 31.1428 96.5651L30.2595 96.6016C29.9014 96.563 29.8393 96.3786 29.6442 96.117C29.6163 95.8512 29.552 95.6025 29.7085 95.3667C30.3131 94.9079 31.1106 94.9057 31.8396 94.8178Z" fill="#231F20"/>
</g>
<defs>
<clipPath id="clip0_162_419">
<rect width="176.27" height="153" fill="white"/>
</clipPath>
</defs>
</svg>
