<svg width="147" height="152" viewBox="0 0 147 152" fill="none" xmlns="http://www.w3.org/2000/svg">
<g clip-path="url(#clip0_162_544)">
<path d="M5.8702 60.4955L6.01184 60.5275C6.47844 61.2405 6.5201 62.4858 6.69924 63.3195L10.5404 62.3261C10.7653 62.2836 10.732 62.2481 10.9361 62.3758L10.982 62.649C10.6195 63.0463 7.62828 63.7346 6.82839 63.9794L7.27416 66.2109C7.31999 66.4699 7.41998 66.6863 7.24917 66.9027L7.13252 66.8034L6.5076 64.0432L2.96227 65.1466C2.62482 65.2495 2.20405 65.4268 1.87909 65.2778L1.8291 64.8947C2.26237 64.6038 2.78313 64.4973 3.28723 64.3448L6.3243 63.4543C6.14516 62.539 5.76604 61.4144 5.87436 60.4991L5.8702 60.4955Z" fill="#231F20"/>
<path d="M46.5852 118.366L46.0478 116.89L44.123 117.404C43.6189 117.529 42.7191 117.791 42.2441 117.536C42.4274 117.291 42.7441 117.227 43.0357 117.11C43.9522 116.748 44.8854 116.464 45.8353 116.184C45.577 115.301 45.2312 114.364 45.1312 113.452C45.1021 113.204 45.1229 113.218 45.2937 113.019L45.4479 113.083L46.5727 115.946C47.0185 116.184 51.1345 114.573 52.1261 114.673L52.2302 115.215C51.6761 115.435 51.0554 115.552 50.4763 115.712L46.806 116.72C46.7643 117.124 47.1184 117.901 47.2184 118.334C47.4226 119.04 47.5767 119.703 47.5351 120.445C47.006 119.849 46.7518 119.114 46.5852 118.366Z" fill="#231F20"/>
<path d="M141.463 54.0884H141.622C142.059 54.4361 142.201 55.1811 142.372 55.6919L143.571 59.4738C144.38 59.2396 146.088 58.445 146.834 58.6898C147.013 58.9558 147.021 58.9452 146.967 59.2538C146.225 59.7789 144.767 59.9847 143.851 60.1656L144.78 62.5993C144.576 62.798 144.567 62.798 144.271 62.8406L144.009 62.3936L143.172 60.2649C142.572 60.453 139.364 61.2831 138.926 61.1483L138.785 60.8326C138.83 60.7687 138.855 60.68 138.926 60.641C139.135 60.5275 139.626 60.4636 139.872 60.4033L143.013 59.6334L141.868 56.2986C141.643 55.6423 141.347 54.9221 141.255 54.2374L141.455 54.0919L141.463 54.0884Z" fill="#231F20"/>
<path d="M83.4214 3.21776C83.6589 3.15391 83.6172 3.12907 83.863 3.22841C84.2213 3.88119 84.3588 4.69361 84.5838 5.39961L85.8461 9.15308C86.9376 8.74155 88.0208 8.17391 89.0623 7.6595C89.4664 7.45728 90.0413 7.08832 90.4829 7.02091C90.6579 6.99608 90.6912 7.08477 90.812 7.1841L90.8037 7.4218C89.3706 8.33711 87.6458 9.05729 86.0794 9.77393L88.1249 14.1163C88.1291 14.3647 88.1458 14.3824 87.9874 14.5811L87.7333 14.613C87.3917 14.3292 87.2084 13.8502 87.0043 13.4706C86.3835 12.3034 85.9044 11.1433 85.4378 9.91939C83.7047 10.4232 82.1258 10.8276 80.3344 11.0972C80.1219 10.9766 80.1302 10.9411 80.0386 10.7176C80.0844 10.6538 80.1094 10.5722 80.1802 10.526C80.6177 10.2422 81.8758 10.2068 82.4299 10.1003C83.209 9.95132 84.1672 9.72426 84.8921 9.4298C84.9296 9.41561 85.1837 9.30209 85.1878 9.28435C85.2045 9.22758 84.9004 8.51804 84.8671 8.4258L83.5881 4.44172C83.5256 4.22531 83.3006 3.70735 83.3214 3.50158C83.3298 3.40225 83.3923 3.31001 83.4298 3.21422L83.4214 3.21776Z" fill="#231F20"/>
<path d="M139.638 112.324C139.98 112.26 139.984 112.271 140.297 112.42C140.355 112.785 140.155 113.034 140.001 113.371C139.655 114.119 139.255 114.854 138.968 115.62C138.947 115.68 138.801 116.014 138.814 116.056C138.834 116.152 139.234 116.475 139.326 116.56C139.668 116.872 141.663 118.557 141.746 118.823C141.78 118.93 141.755 119.047 141.755 119.157C141.513 119.437 141.53 119.412 141.147 119.455L138.33 116.925C137.514 118.022 137.064 119.324 136.506 120.544C136.331 120.924 136.156 121.47 135.86 121.779C135.714 121.931 135.651 121.889 135.443 121.903L135.135 121.619C134.985 121.105 135.818 119.827 136.085 119.309L137.055 117.504L133.723 118.039C133.352 118.082 133.064 118.114 132.748 117.887C132.739 117.592 132.748 117.564 132.919 117.316C134.293 116.972 135.764 117.014 137.139 116.691C137.476 116.61 137.472 116.556 137.643 116.287C137.451 115.971 137.097 115.723 136.818 115.471C136.126 114.854 135.352 114.25 134.743 113.562C134.739 113.303 134.835 113.197 134.981 112.987L135.185 112.948C136.185 113.491 137.172 114.602 137.984 115.379C138.476 114.438 138.918 113.097 139.634 112.317L139.638 112.324Z" fill="#231F20"/>
<path d="M70.6314 126.362C72.4937 128.526 74.2143 130.864 75.8432 133.185C78.1554 136.477 80.2426 139.783 82.0506 143.345C83.3505 145.903 84.6086 148.66 85.2585 151.43L85.1044 151.565L84.9294 151.335C82.6256 145.204 79.1511 139.319 75.1641 134.001L69.894 127.281L70.6314 126.359V126.362Z" fill="#231F20"/>
<path d="M127.294 132.493C129.211 132.425 131.394 132.319 133.289 132.553C133.468 132.78 133.473 132.787 133.468 133.067C133.277 133.27 133.168 133.323 132.881 133.373C131.789 133.568 130.619 133.603 129.511 133.745L116.704 135.129L91.4077 137.538C89.9246 137.662 88.4581 137.829 86.9666 137.814C86.4709 137.811 85.9376 137.839 85.5294 137.534C85.3169 137.374 85.1836 137.179 85.1669 136.927C85.1502 136.69 85.1586 136.569 85.346 136.388C86.3501 135.409 92.5325 134.916 94.149 134.735C105.177 133.504 116.192 132.663 127.303 132.486L127.294 132.493Z" fill="#231F20"/>
<path d="M78.7512 105.381C78.6679 105.548 78.5512 105.64 78.3804 105.725C77.8805 105.977 77.1639 106.048 76.6265 105.867C76.2474 105.739 75.8933 105.381 75.735 105.037C75.5558 104.654 75.56 104.207 75.7225 103.824C75.9433 103.295 76.3724 102.937 76.9306 102.735C77.4056 102.561 77.9763 102.6 78.4304 102.809C78.822 102.99 79.1178 103.292 79.2303 103.689C79.3636 104.168 79.2095 104.636 78.9679 105.058C79.5511 104.966 80.2552 105.197 80.7384 105.509C81.5675 106.048 82.1466 106.797 82.3007 107.737C82.5424 109.184 82.0466 110.444 81.1301 111.586C80.6926 112.136 80.151 112.615 79.5553 113.012L79.5678 113.122C79.8386 115.56 78.6179 117.631 77.0056 119.451C76.3557 120.182 75.6225 120.927 74.7601 121.438C76.3932 122.467 77.9513 123.049 79.9219 123.272C82.2007 123.531 84.5254 123.357 86.8001 123.173L94.8906 122.428L110.163 121.328C110.609 121.303 113.255 121.094 113.53 121.31C113.588 121.356 113.584 121.438 113.613 121.502L113.563 121.75C113.221 121.938 112.742 121.935 112.351 121.981L110.097 122.247L92.3493 124.046C89.2539 124.294 86.1252 124.606 83.0173 124.659C81.4967 124.688 79.8844 124.578 78.4096 124.227C75.9516 123.641 73.3895 122.226 72.0813 120.147C71.2356 118.799 70.7024 117.121 71.1398 115.574C71.6272 113.85 73.3228 111.934 74.9684 111.029C75.6725 110.642 76.5474 110.391 77.3639 110.618C78.3346 110.887 78.8512 111.636 79.3553 112.391C80.526 111.206 81.6216 109.869 81.5175 108.159C81.4717 107.396 81.2967 106.74 80.6343 106.24C80.0594 105.807 79.3928 105.679 78.7512 105.378V105.381Z" fill="#231F20"/>
<path d="M77.2768 103.238C77.5017 103.196 77.685 103.206 77.9058 103.26C78.2641 103.348 78.4058 103.533 78.5766 103.81C78.5932 104.079 78.6391 104.395 78.4933 104.64C78.2683 105.019 77.9308 105.182 77.5059 105.314C77.3851 105.346 77.3309 105.367 77.1976 105.36C76.7977 105.342 76.5977 105.104 76.3477 104.86C76.2436 104.501 76.1644 104.232 76.3727 103.88C76.581 103.526 76.8851 103.366 77.2768 103.231V103.238Z" fill="#FEFEFE"/>
<path d="M76.2848 111.242C76.5806 111.221 76.8847 111.203 77.168 111.288C77.9137 111.508 78.3262 112.303 78.6303 112.913L77.9429 113.516C78.197 113.715 78.3262 113.413 78.6511 113.527L78.6803 114.041C78.5928 116.379 76.5014 118.692 74.7975 120.225C74.5725 120.395 74.4059 120.541 74.1143 120.594C73.1936 119.785 72.5353 118.667 72.1687 117.55C71.7938 116.407 71.9563 115.34 72.5603 114.297C73.3477 112.938 74.6934 111.693 76.289 111.238L76.2848 111.242Z" fill="#FEFEFE"/>
<path d="M131.444 74.1294C131.319 73.2779 131.552 72.5578 132.114 71.8731C132.939 70.869 134.527 70.156 135.868 70.046C136.301 70.0105 136.939 70.0673 137.272 70.3582C137.48 70.5391 137.572 70.7413 137.576 71.0003C137.584 71.4438 137.439 71.8376 137.089 72.1427C136.722 72.462 136.118 72.7742 135.622 72.7529L135.501 72.54C135.785 72.0185 136.722 72.0859 136.968 71.3941C137.072 71.0997 136.989 71.011 136.843 70.7591C136.576 70.6278 136.389 70.571 136.081 70.5675C135.072 70.5533 133.652 71.1812 132.939 71.834C132.264 72.4549 132.027 73.058 132.027 73.9236V74.0549L132.094 74.1933C132.606 75.2292 133.548 75.9813 134.322 76.8398C135.743 78.4115 135.814 80.6075 135.11 82.463C134.689 83.5805 133.968 84.6945 133.11 85.5708C132.598 86.0923 132.035 86.5783 131.435 87.0111C131.277 87.1247 130.573 87.5255 130.519 87.6497C130.298 88.1393 130.285 88.8914 130.102 89.4342C129.427 91.4812 127.669 93.4467 125.578 94.3726C123.324 95.3695 120.962 95.5824 118.6 94.7629C116.837 94.1527 115.346 92.8365 114.588 91.2294C114.288 90.5979 114.104 89.9557 114.009 89.271L113.984 89.0901C113.717 87.1566 114.388 85.2798 115.671 83.765C117.187 81.9769 119.679 80.8736 122.087 80.643C124.22 80.4408 126.469 80.8665 128.152 82.1614C129.556 83.2399 130.344 84.7229 130.502 86.3974L130.531 86.7699C132.464 85.3934 134.385 83.3499 134.747 81.0297C134.964 79.6603 134.702 78.2944 133.777 77.1875C132.898 76.1374 131.819 75.4775 131.439 74.1258L131.444 74.1294Z" fill="#231F20"/>
<path d="M122.166 81.4235C124.099 81.2958 126.086 81.5796 127.636 82.7539C129.182 83.9211 129.544 85.3366 129.773 87.0856C128.873 87.4546 127.769 87.9193 126.782 87.9832C126.115 88.0258 125.303 88.0116 124.79 87.5468C124.478 87.2665 124.399 86.9934 124.395 86.5996C124.799 85.7623 125.47 85.9078 126.315 86.0107C126.599 86.0461 126.686 86.11 126.94 85.9752L126.915 85.8333C126.819 85.7446 126.728 85.6523 126.607 85.5885C126.199 85.3721 125.37 85.333 124.924 85.4324C124.503 85.5246 124.091 85.7481 123.874 86.1064C123.653 86.4683 123.641 86.9402 123.761 87.334C123.903 87.7952 124.349 88.2741 124.811 88.4799C126.432 89.2 128.219 88.4231 129.748 87.8768L129.352 89.3668C129.098 89.9522 128.815 90.5198 128.444 91.052C127.261 92.7584 125.432 93.8759 123.316 94.3194L122.72 94.4294C120.829 94.699 118.887 94.2733 117.358 93.209C115.983 92.2511 115.088 90.8072 114.85 89.2249C114.596 87.5433 115.088 85.7836 116.204 84.4284C117.687 82.6226 119.791 81.725 122.162 81.4199L122.166 81.4235Z" fill="#FEFEFE"/>
<path d="M27.8713 32.2451C30.4001 33.9409 33.6788 34.7782 36.6076 35.7041C37.4283 35.9631 38.4948 36.1689 39.2363 36.5662C39.4697 36.6904 39.5863 36.7791 39.6488 37.0203C39.3363 37.4496 38.8197 37.7476 38.3823 38.0634C38.9572 38.2549 40.0737 38.4465 40.4612 38.8793C40.6445 39.0851 40.7486 39.376 40.6653 39.6492C40.5112 40.1494 39.4738 40.7703 39.028 41.1073L35.5202 43.8568L30.6459 47.7273C28.3879 49.565 26.109 51.456 23.6719 53.0844C23.2844 52.9886 22.9262 52.726 22.5804 52.538L20.5682 51.4914L11.2695 46.8936C10.8737 46.7056 10.4321 46.553 10.178 46.2018C10.4529 45.5845 11.357 45.2156 11.9402 44.8714C15.7355 46.6027 19.4808 47.9792 22.6429 50.679L22.7179 50.5974C21.7013 49.487 20.1557 48.5362 18.8226 47.7947C16.6104 46.5601 14.3065 45.5526 12.0027 44.4883C11.1612 44.1016 9.95716 43.6971 9.27393 43.1153L9.36558 42.8067C9.7072 42.4767 10.1905 42.3029 10.6196 42.0865L12.2152 41.2102L23.1595 35.0123C24.7467 34.1148 26.2424 33.0895 27.8671 32.2487L27.8713 32.2451Z" fill="#231F20"/>
<path d="M27.9127 33.0788C29.3875 33.9409 30.9914 34.4802 32.6162 35.0443L38.632 37.1161L38.3612 37.3006C38.2071 37.4 37.5905 37.8257 37.4447 37.8363C37.2489 37.8505 36.7406 37.6199 36.5157 37.5525C35.3533 37.1942 34.2035 36.7507 32.9953 36.5414L29.5708 39.3796L23.7883 43.6581C23.355 43.9739 21.9302 44.765 21.7594 45.1978L21.9261 45.4284C22.3677 45.4213 22.6468 45.2014 23.0051 44.9779C23.9591 44.3854 24.8465 43.6829 25.7505 43.0195C28.3168 41.1392 30.854 39.3299 33.2245 37.2261L39.8319 39.3476C38.4404 40.7738 36.6531 42.0368 35.0784 43.2962L24.7715 51.4382C24.5174 51.6582 24.1841 51.9668 23.83 52.0059L23.7758 51.8604L24.0133 51.4595C24.0924 50.7287 23.6508 50.0546 23.3092 49.4196L26.9337 46.9362L31.708 43.0976L35.17 40.3623C35.5658 40.043 36.2657 39.6137 36.4823 39.1738C36.4032 38.9716 36.3449 38.8971 36.1574 38.7658C35.67 38.9964 35.245 39.3867 34.8326 39.7166L32.7954 41.3486C29.5833 43.9171 26.3213 46.8298 22.6593 48.8307L10.6318 42.9734L27.9127 33.0859V33.0788Z" fill="#FEFEFE"/>
<path d="M29.2501 35.5374L29.3126 35.548C29.5209 35.6474 29.6126 35.7751 29.7084 35.9667C28.8335 36.9565 27.2837 37.7831 26.1339 38.4997L18.9558 42.7889L18.7808 42.7783L18.6475 42.5406C18.7058 42.31 18.7266 42.2922 18.9349 42.1432C19.8223 41.5047 20.8388 40.9583 21.7804 40.3871C24.2967 38.8652 26.9754 37.3503 29.2543 35.5339L29.2501 35.5374Z" fill="#231F20"/>
<path d="M135.402 20.5236C136.164 20.7506 136.927 21.226 137.431 21.8114C138.397 22.9325 139.027 24.6566 138.818 26.097L138.793 26.2602C138.552 27.8283 137.589 29.2403 136.469 30.3933C134.081 32.8518 130.999 34.5015 128.166 36.4528L119.113 42.8777L117.034 44.2968C116.842 44.4245 116.53 44.5664 116.442 44.7651C117.488 44.46 118.575 43.7043 119.542 43.2005L127.291 39C130.582 37.1907 133.865 35.0053 137.614 34.1219C138.681 33.87 140.014 33.6998 141.093 33.9729C142.53 34.3383 143.547 35.2572 144.242 36.4492C144.93 37.6271 145.238 39.1065 144.805 40.4156L144.755 40.561C144.334 41.8134 143.488 42.789 142.559 43.7504C139.406 47.0037 135.148 49.2919 131.282 51.7221L126.245 55.0747C127.811 54.7767 129.37 54.5071 130.936 54.9363C131.882 55.1953 132.786 55.8197 133.248 56.6392C133.861 57.7248 133.852 59.0233 133.452 60.1621C132.919 61.6805 131.944 62.9719 130.799 64.1426C129.074 65.9059 126.978 67.3462 124.908 68.7334C119.059 72.6572 112.659 75.8997 106.21 78.8798L99.0739 82.0621C99.7446 83.2258 100.549 84.51 100.736 85.8404C100.924 87.1673 100.54 88.1855 99.6696 89.2143C100.09 90.0374 100.715 90.7327 101.099 91.5842C100.274 92.4924 98.9156 93.1239 97.8365 93.7376C98.3115 94.7842 98.9281 95.7882 99.5155 96.7851C99.8029 97.2747 100.09 97.8849 100.49 98.3C101.007 98.8392 101.757 99.0663 102.186 99.7297C102.986 100.968 103.34 102.625 103.732 104.005L104.481 106.793C104.544 107.045 104.74 107.595 104.673 107.836C104.64 107.96 104.536 108.056 104.469 108.166L104.219 108.187C103.423 107.822 102.665 107.091 101.982 106.552C100.607 105.463 99.1405 104.377 97.9199 103.136C97.2241 102.43 96.9742 101.844 97.02 100.89C97.0408 100.439 94.2454 96.7035 93.7871 96.1253C93.0039 96.5403 92.0207 97.4379 91.1208 97.3634C90.7959 97.1328 90.6417 96.7213 90.4501 96.3949L89.5794 95.0716C88.9586 95.0716 88.2712 95.1106 87.6588 95.0148C86.0757 94.7594 85.4925 93.8086 84.6384 92.6698C84.1385 92.7798 83.6802 92.9749 83.2094 93.1594C83.1511 93.2622 83.1011 93.358 83.0595 93.468L83.0261 93.5638C82.2804 93.9718 81.3597 94.1846 80.5432 94.4436C77.2436 95.4938 73.8233 96.1998 70.4321 96.9341C66.9076 97.6969 63.2664 98.5412 59.6586 98.8499C56.8257 99.0947 53.7886 99.0308 50.9724 98.6761C50.8349 100.074 50.6641 101.365 50.1016 102.681C49.7392 103.526 49.2309 104.285 48.731 105.058L51.1057 106.804C54.3927 109.387 57.6714 112.133 60.6168 115.056L66.3285 121.14L69.7822 125.153C69.3989 125.422 68.9948 125.635 68.5782 125.852C67.8616 124.723 66.7284 123.648 65.8411 122.616C60.5335 116.436 54.5052 111.182 48.0269 106.091C47.2271 107.006 46.3772 107.928 45.3648 108.645C44.065 109.568 42.1403 110.646 40.4447 110.423C39.8364 110.341 39.274 110.245 38.6824 110.093L31.1127 118L16.0856 133.259L12.7569 136.605C12.1987 137.169 11.6238 137.871 10.953 138.311L10.803 138.198L10.8489 137.96L22.1806 125.362L28.8963 118.504L37.0285 110.192L39.6156 107.489C39.7573 107.34 40.1489 106.825 40.3155 106.751C40.6363 106.605 41.5445 106.651 41.9528 106.58C44.1858 106.204 46.3355 104.473 47.577 102.774C48.2894 101.802 48.9143 100.805 49.3434 99.6907C49.4726 99.3572 49.6559 99.0237 49.585 98.6725L49.3809 98.6938C49.2726 98.6867 49.1768 98.6264 49.0726 98.6157C48.7602 98.5767 48.3519 98.6477 48.0311 98.6619C46.7021 98.7293 45.294 98.8251 44.2441 97.892C43.9525 97.633 43.8359 97.4947 43.8109 97.1257C44.6691 96.0117 48.4894 96.2281 49.8808 96.3594C52.3638 96.5935 54.8343 97.0051 57.3423 96.9732C60.3918 96.9306 63.4164 96.2459 66.3702 95.5895L76.1854 93.2055L83.5427 90.8888C82.1388 88.111 80.2515 85.4999 78.6143 82.8355L74.1149 75.5805L70.8237 70.0602L65.562 61.8083L56.884 46.4786C55.9675 44.9141 55.1801 43.1615 54.0886 41.714C50.0308 44.5238 46.3355 48.0041 43.6109 51.9882C42.3402 53.8472 41.2821 55.8942 40.2822 57.888C38.6991 61.0384 37.266 64.2455 34.6413 66.7857C32.8083 68.5595 30.3919 69.8296 27.9631 70.7733C27.3257 71.0217 26.6091 71.3409 25.9092 71.3516L25.7634 71.2132C25.8967 70.8585 26.1217 70.7946 26.4508 70.5853C26.3133 69.6061 26.1967 68.5986 26.3425 67.6123C26.4342 66.9986 26.63 66.3742 27.2049 66.0052C27.6298 65.732 28.1298 65.6682 28.6297 65.7533C29.9795 65.9839 30.8669 67.2469 31.5876 68.219L33.1332 67.0943C32.1167 65.5546 29.8712 63.2451 27.909 62.7697C27.2091 62.5994 26.3967 62.6455 25.7759 63.0038C24.7886 63.5715 24.3303 64.4619 24.0887 65.4872C23.7554 66.9028 23.922 68.5028 24.1512 69.9219C25.1218 75.8749 28.3214 81.5264 31.8417 86.5074C33.6456 89.0547 35.6537 91.3287 37.8867 93.5567C39.5156 95.1816 41.1946 96.7426 43.1151 98.0765C43.7442 98.5164 44.4108 99.0308 45.1232 99.3466C45.7648 99.6304 46.648 99.6623 47.3479 99.7971C47.2271 100.219 46.9854 101.124 46.6396 101.415C46.2189 101.773 45.1523 102.089 44.6233 102.362C43.0818 103.15 41.6403 104.04 40.3364 105.14C38.7116 106.509 37.2868 108.06 35.7745 109.532L29.5004 115.872L26.0759 119.416C24.7886 119.068 23.4596 118.784 22.2139 118.32C15.0608 115.652 9.05745 110.263 4.89138 104.313C1.09192 98.8925 -0.98279 92.6698 0.504499 86.2094C1.86264 80.3167 6.06205 74.6616 10.8989 70.752C13.3943 68.7369 16.2898 67.0056 19.131 65.4482C21.0349 64.4087 23.1055 63.724 24.9635 62.6278C26.1759 61.9111 27.5007 61.7834 28.8838 62.0885C31.0918 62.5816 33.3082 63.9404 34.5039 65.7675L34.5872 65.8988C36.8452 63.2947 38.2117 60.0983 39.7573 57.104C40.6738 55.3337 41.6153 53.5066 42.7402 51.8427C44.8066 48.7811 47.4145 46.0103 50.3349 43.6333C51.3598 42.7961 52.4471 41.8914 53.6303 41.2599L53.7761 41.1819L46.1272 28.0518C45.4898 26.9378 44.6483 25.8806 44.09 24.7382C43.5401 23.6172 43.3151 22.1697 43.036 20.9706L41.7653 15.5071L40.1281 8.55004L39.3198 4.08347C39.099 2.8808 38.7408 1.63556 38.6574 0.422238C38.6408 0.173899 38.6241 0.18809 38.7949 0.00715637L38.9157 0.0177995C39.224 0.0816583 39.4948 0.351284 39.7323 0.539313L41.5445 2.00452L45.8148 5.32872L55.6384 13.0272L58.7171 15.4361C59.2129 15.8264 59.7794 16.1954 60.2127 16.6424C60.7376 17.1816 61.1584 17.8415 61.5792 18.4481L64.158 22.4996L68.5824 29.9321C70.003 32.4261 71.3653 34.9911 72.9526 37.3965L97.8407 19.9169C102.157 17.0504 106.827 14.1874 111.955 12.7931C113.405 12.3993 115.08 12.0516 116.592 12.3106C117.721 12.5057 118.767 13.1585 119.404 14.0454L119.458 14.127C120.404 15.1417 120.921 16.6601 120.808 17.994C120.592 20.5129 117.709 22.7409 115.742 24.2238L109.227 28.8678L95.1203 40.0679C94.3787 40.6923 93.6371 41.3025 92.9581 41.9872C92.8623 42.083 92.5831 42.31 92.5623 42.4342L95.6452 40.7171L117.317 27.9844L117.334 27.956L125.224 23.3156C127.374 22.1342 129.465 20.9351 131.907 20.3497C133.102 20.0624 134.265 20.1156 135.415 20.5271L135.402 20.5236Z" fill="#231F20"/>
<path d="M98.4567 101.518H98.7233L100.719 104.079C99.9856 103.614 99.1357 102.944 98.5983 102.28C98.3692 102 98.4192 101.841 98.4567 101.514V101.518Z" fill="#FEFEFE"/>
<path d="M101.119 100.272L101.323 100.28C102.006 101.408 102.323 102.72 102.723 103.951C102.852 104.342 103.198 105.037 103.081 105.431L102.727 105.005L100.111 100.996C100.415 100.826 100.79 100.652 101.015 100.397L101.119 100.272Z" fill="#FEFEFE"/>
<path d="M58.7832 42.8067L58.954 42.7783C59.279 43.0976 59.4998 43.6652 59.7414 44.0519C60.4038 45.1056 61.1787 46.1486 61.7286 47.2555C61.6537 47.557 61.387 47.6209 61.1121 47.7805L61.0163 47.7876C60.6288 47.5961 60.3622 46.9717 60.1289 46.6063L58.0625 43.2785L58.7832 42.8138V42.8067Z" fill="#FEFEFE"/>
<path d="M50.6886 28.1759L50.801 28.2007L55.3337 35.8248C55.6004 36.2789 56.3961 37.2474 56.3836 37.6873L55.8295 38.0279C55.7462 37.996 55.6462 37.9818 55.5754 37.9286C55.3421 37.7583 50.5094 29.336 50.0845 28.5307L50.147 28.3675L50.6886 28.1759Z" fill="#FEFEFE"/>
<path d="M79.0847 63.2698L79.2972 63.3231L85.1506 73.4021L84.3423 73.8527L80.0888 66.6934C79.5347 65.7568 78.9139 64.8308 78.4348 63.8588C78.3515 63.692 78.3723 63.7843 78.4348 63.5608L79.0847 63.2698Z" fill="#FEFEFE"/>
<path d="M22.4135 80.0647C22.9217 80.0257 23.3675 80.0008 23.8466 80.1853C24.5299 80.4479 25.1298 81.239 25.3797 81.8598C25.588 82.3743 25.5422 83.1193 25.2922 83.616C24.9381 84.3184 24.3757 84.6093 23.6133 84.8399H23.4967C23.1717 84.847 22.7968 84.8789 22.4801 84.7938C21.7844 84.6058 21.2137 83.914 20.9179 83.3286C20.6221 82.7468 20.4388 81.9734 20.7262 81.3596C21.047 80.6678 21.7094 80.3414 22.4093 80.0682L22.4135 80.0647Z" fill="#FEFEFE"/>
<path d="M98.6486 89.8528L98.8403 89.8848L99.7818 91.3287C98.8694 92.0382 97.8196 92.5952 96.8239 93.1948L91.6121 96.3097L90.3623 94.5145L98.6528 89.8528H98.6486Z" fill="#FEFEFE"/>
<path d="M64.5409 52.4635C64.6575 52.4458 64.7534 52.4493 64.8658 52.4529L70.4942 61.7408L77.7765 73.6256C78.1556 74.2713 79.0138 75.3179 79.143 76.0132L78.7305 76.3077L78.5556 76.3644C78.0265 75.9884 77.564 74.8602 77.2349 74.2748L75.2935 71.0287L67.8779 59.1155C66.6198 57.0897 65.2116 55.103 64.1201 52.9921C64.1659 52.6764 64.2743 52.6657 64.5326 52.4706L64.5409 52.4635Z" fill="#FEFEFE"/>
<path d="M53.7716 24.4473C53.9549 24.4011 54.0049 24.4047 54.1882 24.4331L58.7917 32.0216L71.994 53.7691C72.3607 54.3864 74.0188 56.7208 74.0188 57.2245L73.6605 57.4374L73.3522 57.5722L73.1689 57.48L69.0736 50.6152L58.0335 32.4119L54.6798 26.9342C54.2591 26.2353 53.6092 25.4087 53.4092 24.6388L53.7758 24.4473H53.7716Z" fill="#FEFEFE"/>
<path d="M96.0449 79.4297L96.3074 79.419C97.4072 81.1184 98.6779 83.0093 99.4653 84.847C99.8444 85.7339 100.04 86.855 99.5944 87.749C99.4653 88.0045 99.2944 88.267 99.0611 88.4515C98.2946 89.0546 97.2031 89.5406 96.349 90.0409L92.2704 92.4498C91.3372 93.0032 90.3624 93.6524 89.3167 93.9966C88.4835 94.2733 87.5878 94.1385 86.8087 93.7943C85.7839 93.1522 85.0881 91.4599 84.4965 90.4488L82.5635 87.153L96.0449 79.4297Z" fill="#FEFEFE"/>
<path d="M44.4894 5.21867C45.1184 5.62311 45.6892 6.13753 46.2683 6.60228L49.7594 9.39433L59.3289 16.9297L58.7207 22.4712C57.8458 22.1483 52.8465 20.6228 52.2383 20.8109L52.1549 21.194L51.4884 25.0681C51.4342 25.3768 51.4092 26.0721 51.2176 26.2743L44.7643 24.4331L40.8315 8.4258C40.8315 8.36904 40.8315 8.31228 40.8524 8.25906C40.9649 8.00363 42.9854 6.60228 43.3479 6.30072C43.7561 5.96724 44.1227 5.59473 44.4852 5.22222L44.4894 5.21867Z" fill="#FEFEFE"/>
<path d="M138.976 34.4695C139.493 34.4128 140.093 34.4128 140.609 34.4944C141.647 34.6647 142.58 35.1543 143.151 35.9951C143.78 36.921 143.884 37.9818 143.605 39.0248C142.788 42.0333 139.101 44.396 136.547 46.1451L127.611 51.8711C124.924 53.6556 122.366 55.7629 119.541 57.3487C120.333 56.4653 121.166 55.5394 121.495 54.4041L121.545 54.2267C121.92 52.8893 121.737 51.7895 121.016 50.5903C120.366 49.6786 119.441 49.0613 118.379 48.6143C114.988 47.181 111.663 48.9336 108.543 50.0192L110.784 48.6355C111.572 48.1247 112.334 47.5145 113.151 47.0533L116.733 45.2546L122.162 42.3845L129.523 38.3685C131.165 37.4815 132.794 36.5733 134.514 35.8212C135.977 35.1826 137.381 34.7179 138.976 34.466V34.4695Z" fill="#FEFEFE"/>
<path d="M135.114 20.825L135.851 21.1727C136.772 21.7013 137.339 22.5989 137.572 23.5639C137.964 25.1887 137.31 26.8171 136.231 28.0872C134.285 30.3719 131.648 32.0181 129.098 33.65L125.474 36.0944L116.929 42.1752L114.3 43.9029C112.121 45.4107 109.959 46.9504 107.664 48.3056C105.756 49.4338 103.689 50.4236 101.694 51.4169C99.3233 52.5912 96.9486 53.6662 94.4115 54.5034L92.8367 54.9717C92.1909 55.1314 91.0119 55.2485 90.6537 55.8196C90.4745 56.107 90.4537 56.4618 90.5703 56.7704C90.6578 56.9939 90.8995 57.1784 91.1328 57.2494C91.7368 57.4268 92.8742 57.0081 93.4783 56.8343C96.7986 55.8764 99.9898 54.5176 103.027 52.9531C103.693 54.6312 104.818 56.0219 106.401 57.0436C109.234 58.8742 112.842 59.8073 116.258 59.229C115.925 59.4844 115.45 59.6476 115.063 59.825L112.505 60.9922L99.1774 66.6934L95.7821 68.0131C95.0447 68.2969 94.2156 68.5382 93.5949 69.01C93.4491 69.3435 93.4658 69.6025 93.6157 69.9395C93.7324 70.2056 94.0115 70.5178 94.3365 70.571C94.5698 70.6065 94.9072 70.4823 95.1239 70.4149C95.9279 70.163 96.6986 69.8154 97.4819 69.5138L109.351 64.5718L116.7 61.1483C119.25 59.8321 121.524 58.1931 124.011 56.8095C125.674 55.8871 128.615 55.1456 130.527 55.66C131.215 55.8445 131.96 56.217 132.277 56.8449C132.606 57.4977 132.535 58.335 132.277 58.9949C129.273 66.7466 106.043 76.5063 97.9859 80.1711L73.252 37.8753L92.87 24.128C96.0154 21.8716 99.2358 19.6543 102.594 17.6782C105.797 15.7908 109.293 14.0276 113 13.1868C114.071 12.942 115.321 12.6972 116.421 12.864C117.733 13.0627 118.471 13.6338 119.208 14.6059C119.375 15.0529 119.516 15.468 119.591 15.9398L119.616 16.0818C119.816 17.3696 119.116 18.629 118.316 19.633C117.392 20.7931 115.975 21.8078 114.754 22.684L110.309 25.8309L102.727 31.4682C98.1151 34.9591 93.7574 38.6949 89.5121 42.5654L87.5916 44.2683C87.1083 44.6976 86.6042 45.0665 86.3918 45.6803C86.4334 45.9641 86.4709 46.1557 86.7209 46.3508C86.9042 46.4927 87.1208 46.514 87.3458 46.475C88.054 46.3473 88.9997 45.4674 89.583 45.0523L91.8701 43.502L95.9196 41.0399L112.384 31.3759L116.108 29.2438C116.708 28.8996 117.433 28.5555 117.946 28.1085C118.92 27.6792 119.845 27.0052 120.762 26.4695L125.89 23.5923C128.444 22.237 132.064 20.0587 135.122 20.8357L135.114 20.825Z" fill="#FEFEFE"/>
</g>
<defs>
<clipPath id="clip0_162_544">
<rect width="147" height="151.565" fill="white"/>
</clipPath>
</defs>
</svg>
