<svg width="168" height="152" viewBox="0 0 168 152" fill="none" xmlns="http://www.w3.org/2000/svg">
<g clip-path="url(#clip0_162_468)">
<path d="M12.8651 13.7714C13.0529 13.7312 13.2542 13.7446 13.4454 13.7446C13.7004 13.9257 13.7507 14.0431 13.8614 14.3148C13.8111 14.5462 13.7406 14.667 13.593 14.8548C13.3582 15.0024 13.3481 15.0057 13.0663 14.9923C12.8483 14.8347 12.6671 14.734 12.6235 14.4489C12.5766 14.1404 12.6738 14.0062 12.8617 13.7714H12.8651Z" fill="#231F20"/>
<path d="M9.75858 14.0398C9.94979 14.0498 10.1075 14.0733 10.2584 14.2008C10.5201 14.4188 10.4664 14.6938 10.4664 14.9889C10.292 15.2707 10.2685 15.2807 9.95315 15.4149C9.71497 15.3679 9.50027 15.2707 9.35938 15.0728C9.20507 14.8581 9.20171 14.7005 9.22184 14.449C9.40299 14.1672 9.45331 14.1672 9.75858 14.0431V14.0398Z" fill="#231F20"/>
<path d="M103.564 145.516C103.846 145.429 103.916 145.449 104.212 145.502C104.406 145.734 104.44 145.774 104.45 146.066C104.463 146.468 104.292 146.643 104.024 146.911C103.742 146.985 103.752 146.991 103.494 146.867C103.346 146.683 103.262 146.535 103.239 146.297C103.205 145.955 103.346 145.761 103.568 145.512L103.564 145.516Z" fill="#231F20"/>
<path d="M80.7996 149.215C81.0512 149.262 81.2156 149.369 81.3464 149.577C81.4806 149.789 81.5242 150.064 81.4303 150.299C81.3229 150.563 81.1586 150.641 80.9103 150.768L80.7896 150.761C80.5044 150.701 80.3434 150.537 80.2058 150.299C80.0918 150.104 80.0784 149.869 80.1891 149.668C80.34 149.39 80.5245 149.329 80.803 149.215H80.7996Z" fill="#231F20"/>
<path d="M108.388 145.154C108.522 145.143 108.653 145.174 108.787 145.19C108.928 145.291 109.049 145.365 109.13 145.519C109.244 145.74 109.267 145.824 109.167 146.056C109.049 146.327 108.908 146.428 108.647 146.555C108.358 146.539 108.207 146.525 107.992 146.324C107.768 146.116 107.754 145.885 107.748 145.603C107.949 145.365 108.1 145.274 108.392 145.15L108.388 145.154Z" fill="#231F20"/>
<path d="M99.5118 146.056C99.797 146.039 100.022 146.042 100.25 146.237C100.515 146.462 100.468 146.747 100.475 147.049C100.327 147.32 100.247 147.397 99.9681 147.548L99.8741 147.555C99.5789 147.555 99.3676 147.515 99.1831 147.27C99.059 147.102 98.9717 146.891 99.0221 146.686C99.0992 146.371 99.2569 146.244 99.5118 146.056Z" fill="#231F20"/>
<path d="M56.2773 14.6737L56.3981 14.6368C56.6464 14.5898 56.908 14.6267 57.0825 14.8078C57.2904 15.0191 57.4012 15.2874 57.3609 15.5759C57.3173 15.8677 57.163 15.9851 56.9416 16.1628L56.794 16.2031C56.5558 16.2467 56.3545 16.1897 56.1666 16.0488C55.9654 15.8979 55.8513 15.6396 55.8681 15.3981C55.8916 15.0258 56.0157 14.9118 56.2807 14.677L56.2773 14.6737Z" fill="#231F20"/>
<path d="M76.0597 149.759C76.3683 149.779 76.4958 149.789 76.7541 149.97C76.8983 150.185 77.0057 150.396 76.9721 150.664C76.9319 151.006 76.734 151.221 76.4689 151.432L76.2744 151.503C76.0463 151.479 75.8852 151.379 75.741 151.207C75.5498 150.979 75.4995 150.627 75.5733 150.349C75.6571 150.034 75.7846 149.933 76.0563 149.762L76.0597 149.759Z" fill="#231F20"/>
<path d="M37.1928 10.5214L37.3336 10.4778C37.6255 10.4309 37.8939 10.5416 38.1052 10.7361C38.283 10.9004 38.4071 11.1855 38.3937 11.427C38.3736 11.7188 38.226 11.7859 38.0213 11.967C37.9341 12.014 37.9039 12.0307 37.7999 12.0576C37.5114 12.1313 37.3672 12.0978 37.1156 11.967C36.8741 11.5377 36.8506 11.1822 36.9143 10.7026L37.1928 10.5214Z" fill="#231F20"/>
<path d="M12.2613 120.609C12.4693 120.539 12.6672 120.562 12.8819 120.572C13.4052 120.971 13.9822 121.431 14.0493 122.122C14.0728 122.377 14.009 122.407 13.8514 122.595C13.5394 122.682 13.3549 122.648 13.0697 122.504C12.7511 122.011 12.2982 121.468 12.1439 120.908C12.1103 120.78 12.1942 120.716 12.2613 120.609Z" fill="#231F20"/>
<path d="M153.998 18.5542L154.266 18.5106C154.813 18.7219 155.41 18.9601 155.876 19.3089C156.172 19.5302 156.484 19.8623 156.537 20.2245C156.45 20.4928 156.41 20.5297 156.192 20.7209L156.061 20.7477C155.621 20.8249 155.034 20.5197 154.689 20.2815C154.273 19.9964 153.713 19.5 153.619 19.007C153.719 18.7253 153.736 18.7219 153.998 18.5542Z" fill="#231F20"/>
<path d="M3.24064 117.064L3.58617 117.014C3.88808 117.014 4.02562 117.188 4.24032 117.362V117.587C3.78745 118.147 2.89511 118.218 2.19064 118.305L1.06348 118.486C0.724664 118.503 0.382492 118.543 0.114121 118.302C-0.0200645 118.181 0.0168365 118.067 0.00341797 117.902C0.405974 117.527 0.939361 117.517 1.47946 117.416L3.24399 117.064H3.24064Z" fill="#231F20"/>
<path d="M7.95393 121.964L8.21224 121.88C8.45377 121.981 8.48396 121.961 8.58125 122.189C8.48732 123.121 8.30281 124.047 8.10824 124.966C8.02102 125.372 8.01096 125.734 7.69227 126.039C7.47086 126.069 7.37693 126.063 7.1723 125.969C6.99115 125.721 6.93748 125.607 6.9576 125.301C6.99115 124.805 7.18907 124.275 7.31319 123.789C7.44403 123.269 7.5346 122.323 7.95393 121.964Z" fill="#231F20"/>
<path d="M15.5219 115.642C15.6897 115.625 15.8742 115.665 16.0419 115.685C16.27 115.86 16.2902 115.927 16.4009 116.192C16.3673 116.36 16.374 116.517 16.2533 116.651C15.8742 117.077 14.6497 117.077 14.0828 117.121L13.4018 117.144C13.2743 117.027 13.2072 116.997 13.1569 116.826C13.0865 116.571 13.1469 116.249 13.3112 116.041C13.5729 115.706 15.0724 115.682 15.5219 115.642Z" fill="#231F20"/>
<path d="M153.025 8.71699C153.166 8.6801 153.314 8.67675 153.461 8.66333L153.686 8.89475C153.699 9.09599 153.706 9.25698 153.619 9.44481C153.2 10.3235 151.643 11.5612 150.727 11.8764C150.523 11.853 150.328 11.7725 150.207 11.6014C150.039 11.3666 150.053 11.2291 150.13 10.9709C150.989 10.1156 151.935 9.28717 153.025 8.71364V8.71699Z" fill="#231F20"/>
<path d="M144.015 2.03922L144.179 1.98891C144.508 1.92853 144.716 1.96878 144.971 2.1499C145.132 2.63287 144.904 3.03199 144.85 3.52503C144.773 4.22601 144.783 5.66151 144.31 6.16126L144.115 6.22498C143.897 6.15119 143.847 6.15119 143.709 5.97679C143.146 5.26574 143.122 3.87384 143.273 3.02193C143.357 2.55908 143.646 2.31089 144.018 2.03922H144.015Z" fill="#231F20"/>
<path d="M103.568 0.0536637L103.974 0C104.044 0.0268318 104.128 0.0335398 104.185 0.0838495C104.39 0.268318 104.239 1.78767 104.275 2.13648C104.306 2.4048 104.413 2.66306 104.551 2.89784C105.017 3.69609 105.527 3.71621 106.382 3.9208L107.352 3.14603C107.764 2.88107 109.267 2.24046 109.744 2.39139C110.082 2.49871 110.29 2.71002 110.438 3.01187C110.424 3.18628 110.418 3.33721 110.334 3.49485C110.012 4.10527 109.23 4.43396 108.549 4.50439C108.157 4.54464 107.747 4.47756 107.368 4.62178C106.795 4.83644 106.486 5.14165 106.231 5.6481C106.248 5.81915 106.258 5.97008 106.245 6.14114L106.231 6.27865C106.778 7.00646 107.311 7.13391 108.029 7.60012C108.234 7.73428 108.261 7.86173 108.304 8.08309C108.17 8.34805 108.167 8.39501 107.902 8.53923C107.412 8.4252 106.996 8.28768 106.573 8.01936L106.144 7.75775C105.597 7.49279 105.174 7.6303 104.631 7.81142L104.52 7.85167C103.252 8.67674 103.299 9.85735 102.739 11.0648C102.625 11.3096 102.534 11.3767 102.276 11.4572L102.041 11.3163C101.682 10.2934 102.243 9.0155 102.051 7.93551C101.994 7.60682 101.759 7.28149 101.548 7.02659C100.699 5.99692 99.1596 6.282 97.9352 6.09753C97.6266 6.05058 97.271 6.03381 97.006 5.86611C96.8986 5.6045 96.9456 5.57767 97.0395 5.30935C97.3515 5.10811 97.7171 5.15171 98.0794 5.15842C98.8409 5.16848 99.683 5.28923 100.438 5.21544C101.964 5.06786 102.669 3.23659 102.947 1.99562C103.088 1.37178 103.121 0.546699 103.571 0.0570176L103.568 0.0536637Z" fill="#231F20"/>
<path d="M103.574 3.50155C104.128 4.03148 104.765 4.43396 105.386 4.8901L105.248 5.25233C105.087 5.64139 105 5.903 104.997 6.32896V6.44299L104.54 6.69119C104.094 6.92597 103.756 7.2077 103.38 7.52968C103.269 7.64372 103.249 7.67055 103.088 7.72086C102.786 6.88572 102.437 6.49666 101.719 5.95331C102.591 5.18525 103.058 4.52116 103.574 3.4982V3.50155Z" fill="#FEFEFE"/>
<path d="M29.3094 10.3336C30.4902 10.29 31.6073 10.4376 32.7747 10.5717C33.1907 10.6187 33.6737 10.5952 34.0595 10.7529C34.2541 10.9642 34.3816 11.1319 34.3715 11.4237C34.3614 11.7121 34.301 11.9905 34.0427 12.1682C33.5261 12.5238 32.3486 12.4131 31.7012 12.4567C26.5384 12.8055 21.3723 12.7686 16.2028 12.5405L14.7603 12.45C13.868 12.3795 13.0092 12.2722 12.1303 12.1012C11.721 12.0207 11.3117 12.014 11.0266 11.692C11.0098 11.4438 10.9964 11.4404 11.1507 11.2392C12.563 10.8937 14.2605 10.9742 15.7197 10.9038C20.2451 10.6824 24.7907 10.7529 29.306 10.3303L29.3094 10.3336Z" fill="#231F20"/>
<path d="M9.1549 110.594C9.46688 110.544 9.46017 110.564 9.73525 110.722C9.89627 111.154 9.57758 111.798 9.53733 112.271C9.48701 112.855 9.49707 113.505 9.57758 114.086C9.58429 114.136 9.6279 114.488 9.64803 114.512C9.7017 114.565 10.1512 114.679 10.2552 114.716C10.6242 114.85 10.9832 115.025 11.2918 115.266C11.9996 115.82 12.325 116.745 12.3854 117.591C12.4525 118.483 12.3653 119.593 11.7212 120.29C10.7618 121.323 9.71848 121.548 8.34308 121.625C7.88014 121.562 7.43397 121.451 7.00793 121.263C6.11895 120.871 5.27359 120.15 4.93477 119.254L4.8878 119.123C4.7033 118.617 4.69323 117.651 4.93477 117.161L4.99515 117.047L5.26688 116.568C5.98477 115.494 7.29643 115.021 8.54771 114.763L8.65506 114.743C8.54435 114.052 8.47055 113.388 8.47726 112.687C8.48733 111.879 8.51416 111.194 9.1549 110.594Z" fill="#231F20"/>
<path d="M8.65824 115.608C9.13124 115.578 9.92964 115.538 10.3356 115.803C10.7851 116.098 11.1138 116.658 11.2312 117.161C11.4359 118.023 11.4895 118.808 10.9427 119.586C10.4228 120.331 9.66798 120.508 8.81255 120.68C8.33955 120.68 7.9437 120.633 7.50424 120.462C6.81654 120.193 6.30328 119.834 6.02149 119.153C5.76654 118.536 5.7699 117.815 6.08859 117.218C6.59178 116.279 7.68204 115.927 8.65824 115.608Z" fill="#FEFEFE"/>
<path d="M107.137 148.491L114.494 148.471C115.393 148.471 116.61 148.31 117.459 148.538C117.811 148.632 118.133 148.809 118.308 149.125C118.257 149.366 118.194 149.527 118.023 149.715C117.774 149.987 117.382 150.168 117.01 150.218C116.51 150.285 115.986 150.231 115.483 150.262C114.993 150.292 114.51 150.389 114.021 150.416L109.257 150.547L95.929 151.07L88.3576 151.288C87.6532 151.298 86.6937 151.429 86.0161 151.271C85.6873 151.194 85.3787 151.073 85.1875 150.795C85.2143 150.503 85.2244 150.392 85.4324 150.158C85.9893 149.893 86.7071 149.956 87.3244 149.879C93.8894 149.068 100.522 148.759 107.134 148.491H107.137Z" fill="#231F20"/>
<path d="M50.7825 14.3986C51.3461 14.3651 52.1478 14.3282 52.5873 14.734C52.7651 14.8984 52.8523 15.0929 52.849 15.3243C52.849 15.6128 52.7483 15.8576 52.5236 16.0589C51.8493 16.6626 49.9841 16.5519 49.0851 16.6156C43.2715 17.0248 37.4948 16.8873 31.6712 16.8571L24.3815 16.8772C23.8347 16.8202 22.6371 16.9342 22.1876 16.6961C22.1675 16.3641 22.2547 16.1226 22.4996 15.871C22.8518 15.5055 23.3751 15.2573 23.8783 15.1466C24.6835 14.9722 25.6228 14.9889 26.4547 14.9219C30.0106 14.6435 33.5028 14.6401 37.0688 14.6368L43.352 14.4624L50.7791 14.3919L50.7825 14.3986Z" fill="#231F20"/>
<path d="M130.365 7.89862C132.512 7.73092 134.635 8.08645 136.675 8.70358C139.855 9.66952 142.575 11.7054 144.108 14.563C146.148 18.3697 146.544 22.1363 145.142 26.1979C143.468 31.0377 139.58 35.0189 135.189 37.7591C133.857 38.5909 132.401 39.2852 130.982 39.9727C130.043 40.4289 129.063 40.9118 128.077 41.264C127.818 41.3579 127.409 41.5223 127.134 41.482C126.664 41.4183 126.064 41.1634 125.604 41.0192L128.211 63.0414L141.901 58.4833C144.169 57.7421 146.45 56.8298 148.751 56.206C148.986 56.1423 149.338 56.0416 149.58 56.1154C149.815 56.1859 149.966 56.2999 150.093 56.4978C150.425 57.0177 150.214 57.3363 150.016 57.8494L148.647 61.2504C146.544 67.0092 144.763 72.8451 143.511 78.8319L142.3 85.456C142.089 86.8412 141.988 88.3237 141.66 89.6821L141.619 89.8397C141.693 90.0309 141.774 90.2187 141.78 90.4266C141.79 90.6748 141.653 90.9297 141.502 91.1209C140.878 91.9192 139.982 92.6302 139.264 93.3647L135.363 97.5639L142.81 97.4901C143.29 97.4767 143.894 97.5807 144.353 97.4767C145.075 97.3124 145.96 97.4063 146.705 97.3727C147.695 97.3291 148.735 97.2252 149.714 97.0944C154.551 96.4403 159.342 95.3235 163.824 93.4318C164.505 93.1434 165.048 92.6805 165.692 92.3988C165.994 92.2646 166.216 92.3317 166.504 92.4323C166.762 92.6604 166.9 92.8516 167.041 93.1568C167.001 93.7907 166.581 94.3072 166.256 94.8472L164.907 97.148L156.373 112.348L154.216 116.286C153.951 116.765 153.709 117.386 153.347 117.802C153.169 118.003 152.908 118.141 152.639 118.184C152.176 118.261 151.643 118.231 151.173 118.245L148.443 118.332L141.062 118.634L134.232 118.962L134.789 124.714C134.913 126.432 134.877 128.209 134.736 129.926C134.477 133.052 133.863 136.376 131.626 138.804C130.358 140.18 128.476 141.146 126.664 141.696C123.491 142.662 120.177 142.91 116.886 143.232L108.046 143.98L96.5767 144.942L75.0433 146.539L65.1505 147.25C57.9246 147.739 50.6551 148.642 43.4024 148.243C39.9169 148.048 35.9853 147.632 32.9124 145.935C32.7112 145.824 32.5233 145.714 32.3421 145.573C30.4468 144.077 28.8835 141.615 28.0381 139.432C27.2196 137.319 26.6695 135.055 26.1428 132.861L24.1132 123.168L20.5674 101.706L18.9035 88.3136L16.3439 72.5365L14.415 54.4217L13.8279 45.1144C13.5797 42.0388 14.1734 38.6144 16.3338 36.2096C18.0346 34.3179 19.9367 33.2581 22.4594 32.6745C23.4524 32.443 24.4889 32.3994 25.502 32.2955L31.7282 31.7354L50.0177 30.1925L86.3383 27.2175L101.173 25.9397L108.918 25.4567C109.029 25.45 109.687 25.4299 109.747 25.3896C109.834 25.3259 109.784 25.185 109.804 25.0844C110.398 21.9518 111.813 18.9332 113.991 16.5116C118.298 11.7155 123.618 8.39166 130.344 7.89191L130.365 7.89862Z" fill="#231F20"/>
<path d="M120.012 23.0653L120.143 23.0553C120.317 23.1928 120.324 23.2196 120.394 23.4242C120.196 23.9306 119.656 24.4036 119.338 24.8664C119.2 24.9737 119.284 24.9402 119.089 24.957C119.187 24.2023 119.509 23.6422 120.009 23.062L120.012 23.0653Z" fill="#FEFEFE"/>
<path d="M114.474 23.2464C114.574 23.4477 114.504 23.9508 114.604 24.2459L114.635 24.3298C114.551 24.6719 114.49 25.0173 114.316 25.3293L113.836 25.3225L113.554 25.232C113.789 24.5578 114.118 23.8669 114.477 23.2464H114.474Z" fill="#FEFEFE"/>
<path d="M130.569 36.2431C129.989 37.0481 129.137 37.7457 128.493 38.5238L127.61 38.6043L127.503 38.5305C127.738 38.1884 128.228 37.9201 128.566 37.6685C129.234 37.1789 129.865 36.6858 130.569 36.2397V36.2431Z" fill="#FEFEFE"/>
<path d="M117.684 21.8009L117.714 21.9384L116.637 24.1654C116.449 24.5746 116.302 25.1314 116.003 25.4735L115.627 25.4534L115.527 25.3259C116.05 24.0078 116.711 22.8708 117.684 21.8009Z" fill="#FEFEFE"/>
<path d="M126.825 29.3809L128.127 29.5519L126.198 31.4536C126.007 31.6079 125.782 31.7152 125.564 31.8326L125.43 31.7521L126.825 29.3809Z" fill="#FEFEFE"/>
<path d="M118.513 18.4637L118.691 18.4335L118.778 18.5073C118.385 19.0909 117.842 19.5906 117.409 20.1541C116.782 20.9657 116.262 21.8411 115.722 22.7031L115.514 22.7936L115.621 22.2201C115.95 20.8282 117.251 19.2082 118.513 18.4637Z" fill="#FEFEFE"/>
<path d="M121.911 26.2181L123.172 27.885L122.041 28.7L121.77 28.6899C121.337 28.2975 120.978 27.8883 120.616 27.4356L121.911 26.2214V26.2181Z" fill="#FEFEFE"/>
<path d="M129.556 29.7431C130.093 29.6257 130.619 29.78 131.146 29.7934C131.481 29.8035 131.797 29.7297 132.132 29.8001C132.753 29.9343 133.756 29.7297 134.242 30.1489C134.215 30.2227 134.205 30.3099 134.158 30.3736C134.001 30.5916 133.551 30.8767 133.33 31.0545L131.663 32.4531C130.348 33.6002 129.2 34.8847 127.946 36.0888C127.271 36.7361 126.493 37.2795 125.889 37.9905C125.779 38.1213 125.859 38.0777 125.664 38.1079C125.524 37.8933 125.514 37.6551 125.48 37.4103C125.567 37.2325 125.517 37.2761 125.661 37.1722C126.735 36.4142 127.718 35.522 128.731 34.6902L132.451 31.467C132.572 31.3564 133.055 30.9908 133.102 30.86C133.139 30.7627 133.118 30.6554 133.129 30.5548C132.988 30.3569 132.884 30.1791 132.656 30.0651L131.948 30.4474C131.716 30.1825 131.518 30.0718 131.193 29.9242C130.623 30.0148 129.529 31.239 129.056 31.6381C128.1 32.4497 127.087 33.305 126.064 34.0362L127.587 32.3558C128.07 31.8561 129.281 30.9304 129.418 30.2797L129.556 29.7431Z" fill="#FEFEFE"/>
<path d="M143.24 27.667L143.407 27.7173C142.891 28.8207 141.911 29.9276 141.059 30.8164C138.483 33.5063 135.48 35.6058 131.961 37.0514H131.881C132.045 36.7261 132.485 36.4611 132.777 36.2263L134.944 34.5292C136.517 33.3084 138.124 32.0875 139.573 30.7325C139.979 30.3535 140.378 29.9678 140.747 29.5519C141.036 29.2266 141.314 28.8275 141.656 28.5591C142.102 28.2103 142.733 27.9454 143.24 27.6636V27.667Z" fill="#FEFEFE"/>
<path d="M29.3866 33.892L29.4671 33.9087L29.5141 33.9825C28.8297 34.328 28.1622 34.7003 27.5784 35.19C25.1698 37.2191 24.1769 39.9627 23.9554 42.9444L16.0553 43.813L16.0184 43.5011C15.7668 41.7336 16.6155 39.208 17.7192 37.7926C20.527 34.1905 25.1832 34.4353 29.3933 33.892H29.3866Z" fill="#FEFEFE"/>
<path d="M130.489 8.80084C132.032 8.77401 133.659 8.81761 135.158 9.21673C138.315 10.0586 141.267 11.6987 142.944 14.4758C144.89 17.6922 145.346 21.8243 144.367 25.3963C143.505 25.7519 142.71 26.2952 141.894 26.7413C140.868 27.3047 139.68 27.8112 138.54 28.1097C137.654 28.3411 136.675 28.5793 135.759 28.6229C134.668 28.6698 133.555 28.4183 132.475 28.3009C130.395 28.0695 128.218 28.1466 126.342 27.1236C124.641 26.1979 123.249 24.8698 122.739 23.0217L122.491 21.9619C122.283 20.9154 122.35 19.8656 122.219 18.8125C122.129 18.0847 121.807 16.5049 121.065 16.1192C120.767 15.9649 120.22 16.0622 119.922 16.1762C119.378 16.3842 118.858 16.7364 118.372 17.0483C115.329 19.007 113.652 22.2369 112.243 25.3628C111.807 25.3695 111.256 25.4399 110.837 25.336C111.666 21.7573 113.098 19.1479 115.567 16.3506C119.321 12.0978 124.675 9.28046 130.489 8.80084Z" fill="#FEFEFE"/>
<path d="M18.5915 44.4436C18.8599 44.4234 19.0343 44.3664 19.2725 44.4939L32.1207 132.043L32.5468 134.344C32.6139 134.679 32.6675 135.162 32.8554 135.454C32.8957 135.514 33.0198 135.655 33.0835 135.679C33.5397 135.85 37.6022 135.209 37.7129 135.303C37.7599 135.343 38.3436 137.852 38.4342 138.144C39.3969 141.203 41.0239 144.241 43.7714 146.146C43.238 146.24 42.4597 146.083 41.9062 146.036C38.8703 145.791 34.6937 145.17 32.3623 143.094C31.2552 142.105 30.5776 141.045 30.0677 139.69C29.598 138.446 29.2995 137.114 28.9976 135.823L27.6624 129.578L23.8918 108.495L21.0437 90.5071L19.4905 80.898L17.9877 67.3177L17.0349 59.5298L16.307 49.4041L16.0151 44.6985L18.5848 44.4335L18.5915 44.4436Z" fill="#FEFEFE"/>
<path d="M24.5089 101.572L24.9081 101.525C25.1295 101.683 25.163 101.783 25.2301 102.041C25.4314 102.826 25.5052 103.661 25.6327 104.46L26.2902 108.31L27.1792 113.18C27.3301 113.982 27.5415 114.797 27.6387 115.605C27.6857 116.007 27.7193 116.47 27.4911 116.822L27.3402 116.806C27.1926 116.665 27.1859 116.631 27.1255 116.443C26.4982 114.475 26.3137 112.291 25.9245 110.265C25.4448 107.767 24.794 105.268 24.4653 102.742C24.4149 102.353 24.311 101.917 24.5055 101.569L24.5089 101.572Z" fill="#231F20"/>
<path d="M18.4069 58.1681L18.682 58.1379C18.9504 58.3425 19.0141 58.4129 19.098 58.7315C19.514 60.2945 19.6683 61.9681 19.9232 63.5646L21.2718 72.3956C21.5267 74.3041 21.9863 76.2494 22.1608 78.1578C22.1977 78.5703 22.2581 78.9896 22.0299 79.3451L21.6542 79.3216C21.5268 79.1908 21.4764 79.117 21.4328 78.9393C21.1175 77.7218 20.9867 76.3869 20.7854 75.1426L19.4301 66.1136C19.0678 63.6921 18.4304 61.2504 18.2426 58.8053C18.2157 58.4666 18.2057 58.4565 18.4103 58.1647L18.4069 58.1681Z" fill="#231F20"/>
<path d="M163.069 95.8869L163.21 95.9372C162.992 96.6516 162.398 97.3794 162.009 98.0301L160.536 100.629L151.811 116.236L114.4 117.929L114.205 117.839L122.937 100.311C122.988 100.203 123.195 99.7071 123.269 99.6601C123.457 99.5394 125.862 99.5528 126.265 99.5495L137.463 99.4623L146.45 99.4052C152.19 99.1134 157.745 97.9664 163.069 95.8903V95.8869Z" fill="#FEFEFE"/>
<path d="M139.475 112.489C139.757 112.435 139.751 112.409 139.985 112.56C140.116 112.875 140.234 113.183 140.15 113.525C140.029 114.005 139.821 114.317 139.378 114.565C139.234 114.589 139.076 114.589 138.932 114.595C138.664 114.334 138.586 114.277 138.597 113.888C138.61 113.398 139.11 112.791 139.475 112.489Z" fill="#231F20"/>
<path d="M136.101 111.768C136.359 111.701 136.399 111.698 136.658 111.768C136.788 112.016 136.768 112.033 136.708 112.308C136.242 112.818 135.661 113.193 135.111 113.616C134.491 114.092 133.897 114.622 133.212 115.015L132.941 115.052C132.702 114.927 132.659 114.938 132.565 114.699C132.796 114.277 133.323 113.918 133.706 113.616L136.104 111.768H136.101Z" fill="#231F20"/>
<path d="M127.093 102.474C127.275 102.404 127.204 102.41 127.389 102.417C127.583 102.427 127.607 102.521 127.727 102.652C127.714 102.856 127.687 103.044 127.566 103.222C127.15 103.846 126.352 104.466 125.778 104.963C124.779 105.825 123.772 106.673 122.89 107.646L122.608 107.75C122.39 107.619 122.357 107.616 122.266 107.388C122.437 106.633 123.269 106.046 123.829 105.543C124.889 104.597 126.104 103.665 127.006 102.575L127.093 102.467V102.474Z" fill="#231F20"/>
<path d="M134.534 107.887L134.783 107.851C135.001 108.018 134.974 108.025 135.014 108.293C134.736 108.863 133.887 109.353 133.377 109.746L130.613 111.916L128.831 113.445C128.493 113.764 128.157 114.086 127.849 114.431C127.58 114.73 127.352 115.109 126.956 115.246C126.668 115.219 126.664 115.206 126.45 115.015L126.463 114.881C126.544 114.347 127.339 113.72 127.735 113.341C129.818 111.352 132.189 109.575 134.538 107.887H134.534Z" fill="#231F20"/>
<path d="M132.988 103.467L133.3 103.45L133.525 103.692C133.535 103.933 133.558 104.014 133.39 104.215C132.998 104.678 132.287 105.13 131.814 105.543L129.308 107.69C127.355 109.222 125.306 110.641 123.434 112.264C122.444 113.123 121.606 114.019 120.817 115.048C120.623 115.045 120.556 115.008 120.385 114.927C120.254 114.72 120.21 114.679 120.281 114.431C120.401 114.012 120.968 113.495 121.274 113.183C123.578 110.822 126.316 109.071 128.852 106.975L131.371 104.798C131.891 104.339 132.397 103.839 132.988 103.467Z" fill="#231F20"/>
<path d="M110.864 27.4825C111.176 27.4054 111.646 27.4389 111.974 27.4255C113.866 27.3584 115.55 27.5328 117.292 28.2942C118.868 28.9851 120.324 30.5682 121.099 32.0305C121.525 32.8288 121.817 33.7108 122.149 34.5493L35.4754 41.851L24.9888 42.8672C25.123 40.4423 26.022 38.2622 27.7698 36.4913C29.1619 35.0793 30.9936 34.177 32.9795 33.7746C34.0396 33.5599 35.1567 33.4794 36.2335 33.3788L41.8458 32.8925L61.3295 31.2993L87.6533 29.1561L110.867 27.4825H110.864Z" fill="#FEFEFE"/>
<path d="M37.3673 35.9211C37.7296 35.9111 38.0986 35.9211 38.4508 36.0117C38.9003 36.1257 39.266 36.451 39.4773 36.8401C39.7055 37.256 39.7994 37.7792 39.6417 38.2354C39.4203 38.8827 38.9372 39.2047 38.3166 39.483C38.0114 39.53 37.7464 39.5434 37.4444 39.4763C36.9513 39.3657 36.5622 39.0806 36.3206 38.658C36.0288 38.1515 35.9751 37.5746 36.1697 37.0313C36.3642 36.4879 36.854 36.166 37.3673 35.9211Z" fill="#231F20"/>
<path d="M43.5968 35.579L43.7041 35.5891C43.9624 35.6092 44.2274 35.6159 44.479 35.683C45.0091 35.8239 45.3848 36.166 45.623 36.6355C45.8511 37.085 45.898 37.6585 45.7068 38.128C45.4485 38.772 44.9889 39.0269 44.3616 39.2885C44.0631 39.3221 43.7175 39.3321 43.4324 39.2281C42.9258 39.047 42.4495 38.5674 42.265 38.0844C42.0637 37.5545 42.1643 36.8703 42.4428 36.384C42.7212 35.8976 43.06 35.74 43.5968 35.579Z" fill="#231F20"/>
<path d="M31.906 36.3739C32.218 36.3404 32.6105 36.3169 32.9124 36.3907C33.6203 36.5584 34.0496 37.3063 34.4019 37.8564C34.375 38.2152 34.3683 38.6009 34.2543 38.9498C34.0698 39.5132 33.5431 39.805 33.0265 40.0633C32.6541 40.1069 32.3287 40.1438 31.9631 40.0331L31.8423 39.9928C31.4263 39.8553 31.1244 39.6642 30.8829 39.3019C30.6111 38.8927 30.5273 38.2924 30.6413 37.8295C30.8292 37.0849 31.2519 36.7496 31.9027 36.3806L31.906 36.3739Z" fill="#231F20"/>
<path d="M147.171 58.8892L147.218 58.9294C147.289 59.3084 146.893 60.0094 146.759 60.3917L145.45 64.2287L144.555 67.197C142.347 74.6629 140.673 82.3402 139.684 90.0443L99.5053 105C99.4851 104.966 99.4449 104.936 99.4449 104.899C99.4415 104.778 99.5791 104.47 99.6193 104.346L100.062 103.004L100.82 100.157L108.429 71.9932C109.831 71.2989 111.414 70.8528 112.89 70.3296L123.491 66.7643L147.171 58.8892Z" fill="#FEFEFE"/>
<path d="M119.606 70.618L119.874 70.5442C119.995 70.6147 120.072 70.6113 120.092 70.7589C120.146 71.1714 119.871 71.6376 119.639 71.9697H119.421C119.267 71.7886 119.183 71.7316 119.18 71.4867C119.173 71.148 119.384 70.8595 119.606 70.6147V70.618Z" fill="#231F20"/>
<path d="M112.488 73.3281C112.602 73.2979 112.726 73.2878 112.843 73.271L113.041 73.4622C113.051 73.6064 113.054 73.7238 113.031 73.868C112.944 74.3443 112.732 75.0554 112.326 75.3404C112.199 75.317 112.092 75.2532 111.974 75.1996C111.82 74.9916 111.749 74.8944 111.773 74.6361C111.817 74.1196 112.105 73.6702 112.494 73.3281H112.488Z" fill="#231F20"/>
<path d="M115.661 71.6108C115.923 71.5706 115.956 71.5638 116.195 71.6645C116.48 72.0737 116.48 72.4057 116.372 72.8853C116.295 73.2308 116.228 73.3146 115.913 73.5058L115.537 73.5427L115.255 73.271C115.185 73.0664 115.118 72.8618 115.134 72.6438C115.168 72.2145 115.312 71.8758 115.664 71.6108H115.661Z" fill="#231F20"/>
<path d="M123.535 69.1758C123.803 69.1188 123.833 69.1121 124.088 69.206C124.41 69.6756 124.42 69.9338 124.296 70.4805C124.205 70.8729 124.095 71.0037 123.746 71.2184C123.632 71.2419 123.528 71.2318 123.41 71.2285C123.139 71.0037 122.944 70.7891 122.921 70.4302C122.89 69.9908 123.266 69.5012 123.538 69.1758H123.535Z" fill="#231F20"/>
<path d="M121.33 35.5287L122.451 35.4415L126.359 63.5747C124.339 64.3863 122.179 65.027 120.106 65.7078L110.7 68.9109L108.543 69.6387C108.036 69.7997 107.449 69.9405 106.993 70.2122C106.664 70.4101 106.466 70.5979 106.375 70.9702L99.958 94.5252L83.9799 96.0613L79.2633 96.4101C78.438 96.4638 77.5558 96.4135 76.754 96.6047C76.3212 96.7086 76.1602 96.6885 75.8549 97.0139C75.8281 97.3291 75.8248 97.3258 76.016 97.5874C76.4219 97.7249 76.6768 97.6276 77.0827 97.5371C78.5286 97.2184 80.1958 97.2788 81.6853 97.1916L87.9081 96.7053L96.3283 95.8634C97.3649 95.7595 98.7302 95.4677 99.75 95.5784L97.9016 102.444C97.7137 103.048 97.5192 103.648 97.2743 104.235C97.0596 104.751 96.5765 105.533 96.6268 106.09C96.6839 106.72 96.8751 106.995 97.3145 107.465C97.8614 108.048 98.5524 108.525 99.1831 109.018L101.582 110.94L112.977 119.965C113.118 119.965 113.249 119.965 113.387 119.938C114.229 119.791 115.138 119.814 115.997 119.774L121.33 119.556L132.122 119.039L132.297 120.072C132.837 124.305 133.152 128.9 132.136 133.083C131.793 134.491 131.32 135.883 130.364 137.034C129.22 138.405 127.416 139.318 125.685 139.834C122.035 140.924 117.925 141.099 114.135 141.451L97.9888 142.782L90.555 143.332L48.8367 146.495C46.7099 146.515 44.6602 145.761 43.154 144.315C41.0137 142.262 39.9302 139.492 39.1485 136.752C38.1589 133.277 37.5685 129.578 36.9546 126.026L34.5997 112.036L30.0306 81.0892L28.3936 67.7336L26.5921 51.8693L26.0521 46.9926C25.9279 45.9093 25.7535 44.8796 25.7602 43.7896L121.327 35.5287H121.33Z" fill="#FEFEFE"/>
<path d="M67.9985 110.775C68.1226 110.775 68.24 110.822 68.3574 110.852C68.5252 111.054 68.5688 111.148 68.5889 111.406C68.4145 111.657 68.3608 111.677 68.0723 111.808C67.757 111.761 67.7234 111.708 67.4953 111.51L67.4785 111.181C67.6395 110.933 67.7268 110.886 67.9985 110.775Z" fill="#231F20"/>
<path d="M67.2839 99.4052L67.5086 99.4254C67.7502 99.583 67.8173 99.5763 67.8911 99.858C67.626 100.894 66.8645 101.984 66.415 102.981C66.0594 103.765 65.7944 104.718 65.365 105.452C65.2946 105.57 65.2141 105.637 65.1067 105.724C64.8954 105.717 64.7914 105.714 64.6069 105.6C64.4391 105.496 64.4693 105.446 64.4224 105.275C64.8115 103.826 65.5462 102.353 66.2204 101.012C66.4989 100.458 66.7505 99.7809 67.2805 99.4086L67.2839 99.4052Z" fill="#231F20"/>
<path d="M47.8471 81.6292C48.0484 81.6057 48.1189 81.6224 48.3067 81.6727C48.4979 81.8572 48.5516 81.9545 48.5885 82.2161C48.8435 84.1212 48.8602 86.1 49.0548 88.0185C49.1588 89.0515 49.4406 90.0812 49.5312 91.1041C49.5647 91.4664 49.4909 91.5636 49.246 91.8252C49.1286 91.8521 48.9978 91.8588 48.877 91.8756L48.773 91.7816C48.4543 91.4496 48.4074 90.4702 48.3269 90.0107C47.9914 88.042 47.8002 86.0631 47.6559 84.0742C47.609 83.4369 47.4848 82.7058 47.5519 82.0719C47.5821 81.7968 47.6291 81.7935 47.8471 81.6292Z" fill="#231F20"/>
<path d="M48.0954 65.0236L48.2229 65.0068C48.498 65.0068 48.5752 65.0907 48.7798 65.2483C48.8871 65.738 48.0451 66.7073 47.7835 67.1802C46.8375 68.8706 45.3849 71.7684 46.0827 73.6836C46.2101 74.0324 46.445 74.3745 46.2772 74.7468C46.1967 74.9212 46.0726 74.9212 45.9015 74.995C45.6533 74.9648 45.5694 74.9883 45.4084 74.7837C44.7676 73.9586 44.771 72.7746 44.9287 71.812C45.244 69.8466 46.0558 67.8611 47.1696 66.1841C47.448 65.7648 47.6694 65.3288 48.0954 65.027V65.0236Z" fill="#231F20"/>
<path d="M49.4842 99.7675C49.5614 99.7507 49.6486 99.7306 49.7258 99.7373C49.9573 99.7574 50.125 99.8278 50.2223 100.036C50.3196 100.244 50.2491 100.878 50.2525 101.133L50.3028 104.909C50.3229 105.503 50.4034 106.127 50.4839 106.714C50.7624 108.776 51.3494 111.369 53.7748 111.932C54.3216 112.06 54.8886 112.026 55.2475 112.476C55.2643 112.801 55.2643 112.798 55.0597 113.056L54.5397 113.073C53.3488 113.026 52.0606 112.56 51.2589 111.701C48.9777 109.266 49.0012 103.571 49.1555 100.472C49.1723 100.103 49.2025 100.016 49.4876 99.7641L49.4842 99.7675Z" fill="#231F20"/>
<path d="M73.6108 70.7924C73.8691 70.7421 74.2214 70.7723 74.4897 70.7656C74.7715 70.9031 74.842 71.0037 74.9996 71.2519C75.0164 71.537 75.0399 71.7517 74.9158 72.02C74.6877 72.2313 74.4797 72.3353 74.161 72.3789C73.1278 72.5197 71.957 72.456 70.907 72.4828L64.6372 72.7579L65.3383 78.4596C65.402 79.0097 65.5731 79.553 65.5664 80.1064V80.1836L65.3819 80.4553C65.0867 80.5626 65.0464 80.5458 64.7345 80.4821C64.3923 80.083 63.9461 75.4813 63.8354 74.569C63.7717 74.0458 63.8052 73.3549 63.5704 72.882L63.4832 72.6975C63.4194 72.4627 63.5201 72.3453 63.661 72.1709C64.4694 71.8657 65.6436 71.8724 66.5158 71.7483C68.8674 71.423 71.2424 70.9803 73.6075 70.7924H73.6108Z" fill="#231F20"/>
<path d="M91.2124 66.0097C91.6888 65.9761 92.135 65.9359 92.6113 66.0097C92.8965 66.231 92.977 66.3585 93.0776 66.6939C93.0474 67.0058 93.0005 67.1165 92.8092 67.368C92.6885 67.4485 92.5643 67.5357 92.4167 67.5659C92.0444 67.6464 91.5412 67.6028 91.1487 67.6364L85.2949 67.9818L73.7918 68.8069L66.6364 69.1926L65.1972 69.2396C64.9289 69.1993 64.8752 69.0953 64.7175 68.9042C64.7746 68.599 64.8416 68.5587 65.0563 68.3373C66.898 68.4849 68.9343 68.1059 70.7928 67.9818L79.8335 67.2943L91.2158 66.0097H91.2124Z" fill="#231F20"/>
<path d="M84.4696 134.843C84.9426 134.83 85.5364 134.753 85.9926 134.874L86.0932 134.904C86.9856 135.155 87.9215 135.621 88.4247 136.4C88.8071 136.993 89.0285 137.815 88.8273 138.506L88.7937 138.613C88.6193 139.193 88.3442 139.73 87.9852 140.227C87.2774 141.206 86.5092 141.541 85.3116 141.753C84.2817 141.813 83.2854 141.602 82.4165 141.048C81.6617 140.565 81.0378 139.797 80.8801 138.929C80.7157 138.03 81.2726 136.93 81.8161 136.239C82.4635 135.417 83.4263 134.998 84.4629 134.843H84.4696Z" fill="#231F20"/>
<path d="M84.9025 139.177L86.1135 140.166C85.929 140.351 85.6506 140.374 85.3956 140.441C84.8958 140.505 84.4698 140.441 83.98 140.361C84.2618 139.935 84.5637 139.562 84.9025 139.18V139.177Z" fill="#FEFEFE"/>
<path d="M84.4362 135.93C84.9427 135.863 85.4426 135.913 85.9525 135.954C85.5768 136.544 85.2078 137.097 84.7247 137.61C84.3355 137.252 83.5539 136.856 83.3191 136.447L83.4499 136.215C83.7787 136.051 84.0705 135.99 84.4362 135.927V135.93Z" fill="#FEFEFE"/>
<path d="M82.3864 137.305C83.0339 137.382 83.6075 138.057 84.0738 138.462L83.2217 139.74L83.0909 139.952L82.9332 139.982C82.4971 139.723 82.1046 139.355 81.9637 138.865C81.8329 138.412 82.1348 137.688 82.3831 137.305H82.3864Z" fill="#FEFEFE"/>
<path d="M86.9151 136.44C87.2707 136.695 87.7672 137.124 87.8611 137.553C87.9819 138.093 87.6363 138.791 87.3478 139.237C87.1902 139.479 87.0996 139.676 86.8077 139.737C86.4823 139.21 86.063 138.888 85.5732 138.506C85.9087 137.728 86.3817 137.101 86.9151 136.437V136.44Z" fill="#FEFEFE"/>
<path d="M123.474 127.733C123.494 127.713 123.87 127.709 123.93 127.706L124.212 127.961C124.262 128.229 124.282 128.26 124.162 128.504C123.987 128.622 123.853 128.659 123.648 128.682L117.54 129.282L104.067 130.584L57.3005 135.226C54.1807 135.541 50.977 135.692 47.8874 136.202L47.7398 136.215C47.3808 136.242 47.2634 136.215 47.0051 135.994C47.0118 135.658 47.0051 135.642 47.2232 135.38C47.8572 135.155 48.5483 135.128 49.2158 135.061L52.4162 134.746L62.1781 133.763L90.9139 130.963L123.474 127.73V127.733Z" fill="#231F20"/>
<path d="M82.5743 79.1908C82.7521 79.1271 82.9064 79.0902 83.0977 79.1338C83.574 79.2411 84.0671 79.5228 84.52 79.7174C85.986 80.3446 87.4251 81.0757 88.975 81.4916C89.2132 81.5554 89.4983 81.599 89.6929 81.7532C89.9277 81.9411 89.8941 82.0283 89.9143 82.3033C89.5889 82.9372 88.5456 83.5879 87.9753 84.0708C86.6401 85.1978 85.3117 86.4455 83.8793 87.4516C83.5371 87.4349 83.5002 87.4013 83.2285 87.2236C82.9165 86.7004 83.2352 85.9524 83.3794 85.4091C82.1382 85.8417 81.0614 86.4924 79.9745 87.1867C76.3146 89.5278 73.0472 92.7006 70.4205 96.068C70.1152 96.4739 69.8569 96.8864 69.4175 97.1681C69.0921 97.1782 69.1055 97.1748 68.8539 96.9736C68.713 96.3632 69.3369 95.7024 69.6691 95.1893C71.6315 92.1573 74.0804 89.3634 76.7507 86.8815L79.5954 84.3928C80.0751 83.9803 80.7024 83.561 81.0379 83.0311L80.9473 82.897C80.1959 82.5548 78.3341 82.7863 77.5088 83.0412C77.1163 83.1619 76.5259 83.5141 76.1267 83.4906C75.9288 83.4805 75.8382 83.3128 75.7108 83.1753C75.6839 82.9573 75.6168 82.9037 75.7711 82.7225C76.7607 81.5587 81.2996 81.2602 82.836 81.1126C82.8729 80.8007 82.2724 80.2976 82.2523 79.8717C82.2355 79.553 82.3663 79.4155 82.5743 79.1942V79.1908Z" fill="#231F20"/>
<path d="M114.235 60.7003C114.829 60.6534 115.953 60.4722 116.476 60.7674C116.788 60.9452 116.842 60.9921 116.943 61.3242L116.798 61.522C116.302 61.4449 115.698 61.5489 115.195 61.5891L111.683 61.9178L95.3422 63.4975L74.3019 65.2852L58.1426 66.6201L63.2115 104.701L63.4027 105.811C63.3021 105.929 63.2215 106.026 63.0706 106.086C62.8156 106.19 62.7989 106.18 62.564 106.08C62.4802 105.956 62.4265 105.862 62.3929 105.714C62.0105 104.037 61.9166 102.239 61.6717 100.536L59.9374 87.7971L57.9782 72.8719C57.7065 70.7656 57.2469 68.5822 57.106 66.4759C57.0926 66.2981 57.1262 66.1002 57.2469 65.956C57.2805 65.9191 57.418 65.7615 57.4851 65.7346C57.6394 65.6743 58.1225 65.7011 58.3137 65.691L60.6552 65.53L70.6856 64.6681L114.239 60.697L114.235 60.7003Z" fill="#231F20"/>
<path d="M113.987 42.6425C115.379 42.5586 116.728 42.998 117.758 43.9103C119.294 45.272 119.442 47.4085 119.539 49.28C119.609 50.6786 119.254 52.2416 118.234 53.2947C117.429 54.1265 116.483 54.6833 115.299 54.8711C114.165 55.0489 112.917 55.0321 111.763 55.1059L105.111 55.5385L94.8925 56.1255L86.1537 56.6487L48.6086 60.2475L37.5786 61.133C36.3407 61.0827 35.0626 60.697 34.1099 59.9088C32.6037 58.6611 31.8388 57.0914 31.7281 55.1998C31.6409 53.7073 32.134 52.2215 33.184 51.1079C34.2072 50.028 35.6396 49.7026 37.0754 49.4444C37.8302 49.3102 38.6085 49.2733 39.3733 49.1962L44.6736 48.6964L63.9058 46.9289L97.9486 43.8164L113.984 42.6425H113.987Z" fill="#231F20"/>
<path d="M110.129 46.9557C110.411 46.9557 110.733 46.9758 111.002 47.0463C111.283 47.1201 111.448 47.385 111.595 47.6097C111.662 48.1329 111.649 48.4549 111.303 48.8842C110.887 49.4041 110.341 49.5215 109.697 49.6121C109.452 49.6121 109.173 49.5819 108.938 49.5014C108.667 49.4108 108.449 49.1257 108.365 48.8742C108.261 48.5623 108.355 48.2168 108.516 47.9384C108.844 47.3716 109.505 47.1066 110.126 46.9557H110.129Z" fill="#FEFEFE"/>
<path d="M92.7221 48.1296C92.9972 48.1095 93.1482 48.0491 93.383 48.2001C93.4434 48.7836 93.3494 49.384 93.2958 49.9642L88.3376 50.625L88.2705 50.635C88.0122 50.6451 87.8109 50.6753 87.6097 50.5143L87.5862 48.9547C88.1162 48.7836 88.7167 48.7266 89.2702 48.6461L92.7288 48.1263L92.7221 48.1296Z" fill="#FEFEFE"/>
<path d="M48.3838 53.828C48.669 53.7676 49.038 53.7911 49.3332 53.7744L49.199 55.6291L44.5596 56.2194L43.6538 56.3469L43.6639 54.4217L48.3838 53.8314V53.828Z" fill="#FEFEFE"/>
<path d="M70.3937 50.7658L70.5514 50.8262C70.6923 51.3997 70.6286 52.0974 70.6353 52.691L65.241 53.335C65.0666 53.2847 65.1572 53.3249 64.9727 53.2042L64.9995 51.3763L70.3904 50.7692L70.3937 50.7658Z" fill="#FEFEFE"/>
</g>
<defs>
<clipPath id="clip0_162_468">
<rect width="167.057" height="151.496" fill="white"/>
</clipPath>
</defs>
</svg>
