<svg width="59" height="59" viewBox="0 0 59 59" fill="none" xmlns="http://www.w3.org/2000/svg">
<path d="M26.9647 39.6432C26.9657 40.0343 26.9915 40.4249 27.042 40.8128C27.0886 41.1904 27.1942 41.5586 27.3551 41.9043C27.5123 42.264 27.7808 42.5655 28.1221 42.7658C28.4634 42.9661 28.8602 43.0551 29.2558 43.0199C29.8703 43.0235 30.4641 42.8007 30.9208 42.3952C31.0163 42.6415 31.0957 42.8937 31.1584 43.1501C31.2136 43.3974 31.2402 43.65 31.2376 43.9032C31.2364 44.4616 31.1382 45.0157 30.9472 45.5413C30.7525 46.0811 30.4367 46.5706 30.0232 46.9731C29.5615 47.4139 29.0145 47.7586 28.4148 47.9865C27.6479 48.2667 26.8337 48.3992 26.0162 48.377C23.9056 48.377 22.2713 47.7528 21.1136 46.5045C19.9558 45.2562 19.3756 43.54 19.3731 41.3557V17.0696C19.3731 15.613 19.5856 14.4515 20.0105 13.585C20.3796 12.7818 20.9803 12.1034 21.7377 11.6345C22.4865 11.1926 23.3163 10.9006 24.1796 10.7754C25.1025 10.6357 26.0348 10.5661 26.9685 10.5672L26.9647 39.6432ZM32.0277 19.3586C32.0267 18.9669 32.0009 18.5756 31.9504 18.1871C31.9038 17.8095 31.7982 17.4413 31.6374 17.0956C31.4802 16.7363 31.212 16.435 30.8711 16.2347C30.5302 16.0344 30.1338 15.9452 29.7385 15.98C29.1212 15.9641 28.5224 16.1886 28.0716 16.6047C27.8771 16.1244 27.7704 15.6138 27.7567 15.0967C27.7571 14.5383 27.8553 13.9841 28.0471 13.4586C28.2404 12.9191 28.5557 12.4301 28.9692 12.0287C29.4306 11.587 29.9777 11.2417 30.5776 11.0134C31.3451 10.7331 32.1599 10.6005 32.978 10.6229C35.0875 10.6229 36.7217 11.2471 37.8807 12.4954C39.0398 13.7437 39.6218 15.4587 39.6268 17.6405V41.9303C39.6268 43.3856 39.4144 44.5472 38.9895 45.4149C38.621 46.218 38.0209 46.8963 37.2641 47.3654C36.5129 47.8093 35.6796 48.1014 34.8128 48.2245C33.89 48.3651 32.9576 48.4348 32.0239 48.4328L32.0277 19.3586Z" fill="black"/>
<path d="M29.5 4.89872e-08C23.6656 8.77154e-08 17.9622 1.73006 13.111 4.97141C8.25986 8.21276 4.47878 12.8198 2.24589 18.2101C0.0130069 23.6003 -0.571389 29.5316 0.566599 35.2539C1.70459 40.9763 4.51385 46.2327 8.63916 50.3584C12.7645 54.4842 18.0205 57.2941 23.7428 58.4327C29.465 59.5714 35.3963 58.9877 40.7868 56.7554C46.1773 54.5232 50.7848 50.7426 54.0267 45.8918C57.2686 41.041 58.9993 35.3378 59 29.5034C59.0007 25.6291 58.2381 21.7925 56.7559 18.2129C55.2736 14.6333 53.1008 11.3808 50.3614 8.64105C47.6219 5.90132 44.3696 3.72807 40.7902 2.24542C37.2108 0.762777 33.3743 -0.000223224 29.5 4.89872e-08ZM29.5 56.3658C24.1859 56.3658 18.9912 54.7899 14.5727 51.8374C10.1543 48.885 6.71061 44.6885 4.67722 39.7789C2.64384 34.8692 2.11207 29.4668 3.14917 24.2548C4.18627 19.0429 6.74566 14.2556 10.5036 10.4983C14.2616 6.74105 19.0494 4.18257 24.2616 3.14646C29.4737 2.11035 34.876 2.64314 39.7853 4.67746C44.6946 6.71178 48.8903 10.1562 51.842 14.5752C54.7936 18.9942 56.3685 24.1893 56.3675 29.5034C56.3666 36.6283 53.5354 43.4611 48.4969 48.4988C43.4583 53.5364 36.625 56.3662 29.5 56.3658Z" fill="black"/>
</svg>
