<svg width="246" height="158" viewBox="0 0 246 158" fill="none" xmlns="http://www.w3.org/2000/svg">
<rect width="246" height="158" rx="69" fill="#E2A257"/>
<path d="M48.6429 87.68V99H46.0429V88.5L47.2429 89.68H37.9229L39.1229 88.5V99H36.5229V87.68H48.6429ZM57.6657 99.28C56.2923 99.28 55.0857 99.0333 54.0457 98.54C53.019 98.0333 52.2123 97.3333 51.6257 96.44C51.0523 95.5467 50.7657 94.5133 50.7657 93.34C50.7657 92.1533 51.0523 91.12 51.6257 90.24C52.2123 89.3467 53.019 88.6533 54.0457 88.16C55.0857 87.6533 56.2923 87.4 57.6657 87.4C59.039 87.4 60.239 87.6533 61.2657 88.16C62.3057 88.6533 63.1123 89.3467 63.6857 90.24C64.2723 91.12 64.5657 92.1533 64.5657 93.34C64.5657 94.5133 64.2723 95.5467 63.6857 96.44C63.1123 97.3333 62.3057 98.0333 61.2657 98.54C60.239 99.0333 59.039 99.28 57.6657 99.28ZM57.6657 97.24C58.5457 97.24 59.299 97.08 59.9257 96.76C60.5657 96.44 61.059 95.9933 61.4057 95.42C61.7523 94.8333 61.9257 94.14 61.9257 93.34C61.9257 92.54 61.7523 91.8533 61.4057 91.28C61.059 90.6933 60.5657 90.24 59.9257 89.92C59.299 89.6 58.5457 89.44 57.6657 89.44C56.799 89.44 56.0457 89.6 55.4057 89.92C54.7657 90.24 54.2723 90.6933 53.9257 91.28C53.579 91.8533 53.4057 92.54 53.4057 93.34C53.4057 94.14 53.579 94.8333 53.9257 95.42C54.2723 95.9933 54.7657 96.44 55.4057 96.76C56.0457 97.08 56.799 97.24 57.6657 97.24ZM79.1791 94.54C79.0458 95.4733 78.6791 96.3 78.0791 97.02C77.4791 97.7267 76.7124 98.28 75.7791 98.68C74.8458 99.08 73.8058 99.28 72.6591 99.28C71.3524 99.28 70.1991 99.0333 69.1991 98.54C68.2124 98.0333 67.4391 97.3333 66.8791 96.44C66.3191 95.5467 66.0391 94.5133 66.0391 93.34C66.0391 92.1667 66.3191 91.1333 66.8791 90.24C67.4391 89.3467 68.2124 88.6533 69.1991 88.16C70.1991 87.6533 71.3524 87.4 72.6591 87.4C73.8058 87.4 74.8458 87.6 75.7791 88C76.7124 88.4 77.4791 88.96 78.0791 89.68C78.6791 90.3867 79.0458 91.2133 79.1791 92.16H76.5591C76.3724 91.3067 75.9258 90.64 75.2191 90.16C74.5124 89.68 73.6591 89.44 72.6591 89.44C71.8591 89.44 71.1591 89.6 70.5591 89.92C69.9591 90.2267 69.4924 90.6733 69.1591 91.26C68.8391 91.8333 68.6791 92.5267 68.6791 93.34C68.6791 94.14 68.8391 94.8333 69.1591 95.42C69.4924 96.0067 69.9591 96.46 70.5591 96.78C71.1591 97.0867 71.8591 97.24 72.6591 97.24C73.6724 97.24 74.5324 96.9933 75.2391 96.5C75.9458 96.0067 76.3858 95.3533 76.5591 94.54H79.1791ZM81.1518 99V87.68H85.0118L89.7718 97.76H88.7518L93.4718 87.68H97.3318V99H94.8918V88.54H95.5718L90.5118 99H87.9718L82.9118 88.58L83.5918 88.56V99H81.1518ZM106.357 99.28C104.984 99.28 103.777 99.0333 102.737 98.54C101.71 98.0333 100.904 97.3333 100.317 96.44C99.7437 95.5467 99.4571 94.5133 99.4571 93.34C99.4571 92.1533 99.7437 91.12 100.317 90.24C100.904 89.3467 101.71 88.6533 102.737 88.16C103.777 87.6533 104.984 87.4 106.357 87.4C107.73 87.4 108.93 87.6533 109.957 88.16C110.997 88.6533 111.804 89.3467 112.377 90.24C112.964 91.12 113.257 92.1533 113.257 93.34C113.257 94.5133 112.964 95.5467 112.377 96.44C111.804 97.3333 110.997 98.0333 109.957 98.54C108.93 99.0333 107.73 99.28 106.357 99.28ZM106.357 97.24C107.237 97.24 107.99 97.08 108.617 96.76C109.257 96.44 109.75 95.9933 110.097 95.42C110.444 94.8333 110.617 94.14 110.617 93.34C110.617 92.54 110.444 91.8533 110.097 91.28C109.75 90.6933 109.257 90.24 108.617 89.92C107.99 89.6 107.237 89.44 106.357 89.44C105.49 89.44 104.737 89.6 104.097 89.92C103.457 90.24 102.964 90.6933 102.617 91.28C102.27 91.8533 102.097 92.54 102.097 93.34C102.097 94.14 102.27 94.8333 102.617 95.42C102.964 95.9933 103.457 96.44 104.097 96.76C104.737 97.08 105.49 97.24 106.357 97.24ZM118.462 88.58H121.062V99H118.462V88.58ZM113.762 87.68H125.762V89.72H113.762V87.68ZM127.402 87.68H130.002V91.62L129.882 92.02V94.3L130.002 95V102.3H127.402V87.68ZM129.002 93.34C129.255 92.14 129.675 91.1 130.262 90.22C130.848 89.3267 131.568 88.6333 132.422 88.14C133.288 87.6467 134.248 87.4 135.302 87.4C136.408 87.4 137.388 87.6533 138.242 88.16C139.095 88.6533 139.762 89.3467 140.242 90.24C140.722 91.12 140.962 92.1533 140.962 93.34C140.962 94.5133 140.722 95.5467 140.242 96.44C139.762 97.3333 139.095 98.0333 138.242 98.54C137.388 99.0333 136.408 99.28 135.302 99.28C134.248 99.28 133.295 99.0333 132.442 98.54C131.588 98.0467 130.862 97.3533 130.262 96.46C129.675 95.5667 129.255 94.5267 129.002 93.34ZM138.322 93.34C138.322 92.58 138.162 91.9133 137.842 91.34C137.535 90.7533 137.108 90.3 136.562 89.98C136.015 89.6467 135.388 89.48 134.682 89.48C133.975 89.48 133.308 89.6467 132.682 89.98C132.068 90.3 131.528 90.7533 131.062 91.34C130.595 91.9133 130.215 92.58 129.922 93.34C130.215 94.1 130.595 94.7733 131.062 95.36C131.528 95.9333 132.068 96.3867 132.682 96.72C133.308 97.04 133.975 97.2 134.682 97.2C135.388 97.2 136.015 97.04 136.562 96.72C137.108 96.3867 137.535 95.9333 137.842 95.36C138.162 94.7733 138.322 94.1 138.322 93.34ZM149.304 99.28C147.984 99.28 146.811 99.0333 145.784 98.54C144.758 98.0333 143.951 97.3333 143.364 96.44C142.778 95.5467 142.484 94.5067 142.484 93.32C142.484 92.1467 142.758 91.12 143.304 90.24C143.864 89.3467 144.631 88.6533 145.604 88.16C146.591 87.6533 147.718 87.4 148.984 87.4C150.251 87.4 151.344 87.6867 152.264 88.26C153.198 88.82 153.918 89.6133 154.424 90.64C154.931 91.6667 155.184 92.8733 155.184 94.26H144.524V92.28H153.884L152.584 93.02C152.544 92.2733 152.364 91.6333 152.044 91.1C151.738 90.5667 151.318 90.16 150.784 89.88C150.264 89.5867 149.644 89.44 148.924 89.44C148.164 89.44 147.498 89.5933 146.924 89.9C146.364 90.2067 145.924 90.64 145.604 91.2C145.284 91.7467 145.124 92.4 145.124 93.16C145.124 94 145.311 94.7267 145.684 95.34C146.071 95.9533 146.611 96.4267 147.304 96.76C148.011 97.08 148.844 97.24 149.804 97.24C150.671 97.24 151.558 97.1067 152.464 96.84C153.371 96.56 154.171 96.1733 154.864 95.68V97.56C154.171 98.0933 153.324 98.5133 152.324 98.82C151.338 99.1267 150.331 99.28 149.304 99.28ZM160.376 88.58H162.976V99H160.376V88.58ZM155.676 87.68H167.676V89.72H155.676V87.68ZM169.316 99V87.68H171.916V98.28L170.996 97.08H175.836C176.542 97.08 177.096 96.9067 177.496 96.56C177.896 96.2 178.096 95.7133 178.096 95.1C178.096 94.4733 177.896 93.9867 177.496 93.64C177.096 93.28 176.542 93.1 175.836 93.1H171.076V91.24H176.176C177.096 91.24 177.896 91.4067 178.576 91.74C179.256 92.06 179.782 92.5133 180.156 93.1C180.542 93.6733 180.736 94.3467 180.736 95.12C180.736 95.8933 180.542 96.5733 180.156 97.16C179.782 97.7467 179.256 98.2 178.576 98.52C177.896 98.84 177.102 99 176.196 99H169.316ZM48.6429 113.68V125H46.0429V114.5L47.2429 115.68H37.9229L39.1229 114.5V125H36.5229V113.68H48.6429ZM57.6657 125.28C56.2923 125.28 55.0857 125.033 54.0457 124.54C53.019 124.033 52.2123 123.333 51.6257 122.44C51.0523 121.547 50.7657 120.513 50.7657 119.34C50.7657 118.153 51.0523 117.12 51.6257 116.24C52.2123 115.347 53.019 114.653 54.0457 114.16C55.0857 113.653 56.2923 113.4 57.6657 113.4C59.039 113.4 60.239 113.653 61.2657 114.16C62.3057 114.653 63.1123 115.347 63.6857 116.24C64.2723 117.12 64.5657 118.153 64.5657 119.34C64.5657 120.513 64.2723 121.547 63.6857 122.44C63.1123 123.333 62.3057 124.033 61.2657 124.54C60.239 125.033 59.039 125.28 57.6657 125.28ZM57.6657 123.24C58.5457 123.24 59.299 123.08 59.9257 122.76C60.5657 122.44 61.059 121.993 61.4057 121.42C61.7523 120.833 61.9257 120.14 61.9257 119.34C61.9257 118.54 61.7523 117.853 61.4057 117.28C61.059 116.693 60.5657 116.24 59.9257 115.92C59.299 115.6 58.5457 115.44 57.6657 115.44C56.799 115.44 56.0457 115.6 55.4057 115.92C54.7657 116.24 54.2723 116.693 53.9257 117.28C53.579 117.853 53.4057 118.54 53.4057 119.34C53.4057 120.14 53.579 120.833 53.9257 121.42C54.2723 121.993 54.7657 122.44 55.4057 122.76C56.0457 123.08 56.799 123.24 57.6657 123.24ZM66.6791 113.68H69.2791V117.62L69.1591 118.02V120.3L69.2791 121V128.3H66.6791V113.68ZM68.2791 119.34C68.5324 118.14 68.9524 117.1 69.5391 116.22C70.1258 115.327 70.8458 114.633 71.6991 114.14C72.5658 113.647 73.5258 113.4 74.5791 113.4C75.6858 113.4 76.6658 113.653 77.5191 114.16C78.3724 114.653 79.0391 115.347 79.5191 116.24C79.9991 117.12 80.2391 118.153 80.2391 119.34C80.2391 120.513 79.9991 121.547 79.5191 122.44C79.0391 123.333 78.3724 124.033 77.5191 124.54C76.6658 125.033 75.6858 125.28 74.5791 125.28C73.5258 125.28 72.5724 125.033 71.7191 124.54C70.8658 124.047 70.1391 123.353 69.5391 122.46C68.9524 121.567 68.5324 120.527 68.2791 119.34ZM77.5991 119.34C77.5991 118.58 77.4391 117.913 77.1191 117.34C76.8124 116.753 76.3858 116.3 75.8391 115.98C75.2924 115.647 74.6658 115.48 73.9591 115.48C73.2524 115.48 72.5858 115.647 71.9591 115.98C71.3458 116.3 70.8058 116.753 70.3391 117.34C69.8724 117.913 69.4924 118.58 69.1991 119.34C69.4924 120.1 69.8724 120.773 70.3391 121.36C70.8058 121.933 71.3458 122.387 71.9591 122.72C72.5858 123.04 73.2524 123.2 73.9591 123.2C74.6658 123.2 75.2924 123.04 75.8391 122.72C76.3858 122.387 76.8124 121.933 77.1191 121.36C77.4391 120.773 77.5991 120.1 77.5991 119.34ZM85.513 114.58H88.113V125H85.513V114.58ZM80.813 113.68H92.813V115.72H80.813V113.68ZM104.004 128.3V121.58L104.244 120.66V117.9L104.004 116.96V109.6H106.564V116.98L106.324 117.9V120.64L106.564 121.58V128.3H104.004ZM105.564 119.34C105.817 118.14 106.224 117.1 106.784 116.22C107.344 115.327 108.037 114.633 108.864 114.14C109.704 113.647 110.644 113.4 111.684 113.4C112.777 113.4 113.737 113.653 114.564 114.16C115.39 114.653 116.037 115.347 116.504 116.24C116.97 117.12 117.204 118.153 117.204 119.34C117.204 120.513 116.97 121.547 116.504 122.44C116.037 123.333 115.39 124.033 114.564 124.54C113.737 125.033 112.777 125.28 111.684 125.28C110.644 125.28 109.704 125.033 108.864 124.54C108.037 124.047 107.344 123.353 106.784 122.46C106.224 121.567 105.817 120.527 105.564 119.34ZM114.564 119.34C114.564 118.58 114.41 117.913 114.104 117.34C113.81 116.753 113.404 116.3 112.884 115.98C112.364 115.647 111.757 115.48 111.064 115.48C110.01 115.48 109.084 115.84 108.284 116.56C107.484 117.267 106.87 118.193 106.444 119.34C106.87 120.473 107.484 121.407 108.284 122.14C109.084 122.86 110.01 123.22 111.064 123.22C111.757 123.22 112.364 123.053 112.884 122.72C113.404 122.387 113.81 121.933 114.104 121.36C114.41 120.773 114.564 120.1 114.564 119.34ZM105.004 119.34C104.764 120.527 104.357 121.567 103.784 122.46C103.224 123.353 102.53 124.047 101.704 124.54C100.877 125.033 99.9438 125.28 98.9038 125.28C97.8105 125.28 96.8505 125.033 96.0238 124.54C95.1971 124.033 94.5505 123.333 94.0838 122.44C93.6171 121.547 93.3838 120.513 93.3838 119.34C93.3838 118.153 93.6171 117.12 94.0838 116.24C94.5505 115.347 95.1971 114.653 96.0238 114.16C96.8505 113.653 97.8105 113.4 98.9038 113.4C99.9438 113.4 100.877 113.647 101.704 114.14C102.53 114.633 103.224 115.327 103.784 116.22C104.357 117.1 104.764 118.14 105.004 119.34ZM96.0238 119.34C96.0238 120.1 96.1705 120.773 96.4638 121.36C96.7571 121.933 97.1638 122.387 97.6838 122.72C98.2171 123.053 98.8238 123.22 99.5038 123.22C100.57 123.22 101.497 122.86 102.284 122.14C103.084 121.407 103.704 120.473 104.144 119.34C103.704 118.193 103.084 117.267 102.284 116.56C101.497 115.84 100.57 115.48 99.5038 115.48C98.8238 115.48 98.2171 115.647 97.6838 115.98C97.1638 116.3 96.7571 116.753 96.4638 117.34C96.1705 117.913 96.0238 118.58 96.0238 119.34ZM125.615 125.28C124.242 125.28 123.035 125.033 121.995 124.54C120.968 124.033 120.162 123.333 119.575 122.44C119.002 121.547 118.715 120.513 118.715 119.34C118.715 118.153 119.002 117.12 119.575 116.24C120.162 115.347 120.968 114.653 121.995 114.16C123.035 113.653 124.242 113.4 125.615 113.4C126.988 113.4 128.188 113.653 129.215 114.16C130.255 114.653 131.062 115.347 131.635 116.24C132.222 117.12 132.515 118.153 132.515 119.34C132.515 120.513 132.222 121.547 131.635 122.44C131.062 123.333 130.255 124.033 129.215 124.54C128.188 125.033 126.988 125.28 125.615 125.28ZM125.615 123.24C126.495 123.24 127.248 123.08 127.875 122.76C128.515 122.44 129.008 121.993 129.355 121.42C129.702 120.833 129.875 120.14 129.875 119.34C129.875 118.54 129.702 117.853 129.355 117.28C129.008 116.693 128.515 116.24 127.875 115.92C127.248 115.6 126.495 115.44 125.615 115.44C124.748 115.44 123.995 115.6 123.355 115.92C122.715 116.24 122.222 116.693 121.875 117.28C121.528 117.853 121.355 118.54 121.355 119.34C121.355 120.14 121.528 120.833 121.875 121.42C122.222 121.993 122.715 122.44 123.355 122.76C123.995 123.08 124.748 123.24 125.615 123.24ZM136.218 113.68H147.358V125H144.758V114.48L145.958 115.68H137.518L138.638 114.76C138.704 115.587 138.758 116.373 138.798 117.12C138.851 117.853 138.878 118.513 138.878 119.1C138.878 121.233 138.578 122.787 137.978 123.76C137.378 124.733 136.411 125.22 135.078 125.22C134.718 125.22 134.371 125.18 134.038 125.1C133.704 125.02 133.384 124.893 133.078 124.72V122.78C133.318 122.873 133.551 122.947 133.778 123C134.018 123.053 134.238 123.08 134.438 123.08C135.171 123.08 135.698 122.74 136.018 122.06C136.351 121.38 136.518 120.273 136.518 118.74C136.518 118.073 136.491 117.313 136.438 116.46C136.398 115.607 136.324 114.68 136.218 113.68ZM150.117 125V113.68H152.677V123.7L151.897 123.52L159.637 113.68H162.997V125H160.437V114.84L161.237 115.04L153.397 125H150.117ZM172.021 125.28C170.648 125.28 169.441 125.033 168.401 124.54C167.374 124.033 166.568 123.333 165.981 122.44C165.408 121.547 165.121 120.513 165.121 119.34C165.121 118.153 165.408 117.12 165.981 116.24C166.568 115.347 167.374 114.653 168.401 114.16C169.441 113.653 170.648 113.4 172.021 113.4C173.394 113.4 174.594 113.653 175.621 114.16C176.661 114.653 177.468 115.347 178.041 116.24C178.628 117.12 178.921 118.153 178.921 119.34C178.921 120.513 178.628 121.547 178.041 122.44C177.468 123.333 176.661 124.033 175.621 124.54C174.594 125.033 173.394 125.28 172.021 125.28ZM172.021 123.24C172.901 123.24 173.654 123.08 174.281 122.76C174.921 122.44 175.414 121.993 175.761 121.42C176.108 120.833 176.281 120.14 176.281 119.34C176.281 118.54 176.108 117.853 175.761 117.28C175.414 116.693 174.921 116.24 174.281 115.92C173.654 115.6 172.901 115.44 172.021 115.44C171.154 115.44 170.401 115.6 169.761 115.92C169.121 116.24 168.628 116.693 168.281 117.28C167.934 117.853 167.761 118.54 167.761 119.34C167.761 120.14 167.934 120.833 168.281 121.42C168.628 121.993 169.121 122.44 169.761 122.76C170.401 123.08 171.154 123.24 172.021 123.24Z" fill="white"/>
<path d="M58.3992 73C71.2433 73 81.6555 62.9264 81.6555 50.5C81.6555 38.0736 71.2433 28 58.3992 28C45.5551 28 35.1429 38.0736 35.1429 50.5C35.1429 62.9264 45.5551 73 58.3992 73Z" stroke="white" stroke-width="2" stroke-linecap="round" stroke-linejoin="round"/>
<path d="M66.7542 46.6667L70.1134 43.4167M70.1134 43.4167L66.7542 40.1667M70.1134 43.4167L63.3949 43.4167M59.4758 41.25H54.213C52.3317 41.25 51.391 41.25 50.6724 41.6042C50.0403 41.9158 49.5264 42.413 49.2044 43.0245C48.8382 43.7197 48.8382 44.6298 48.8382 46.45V55.55C48.8382 57.3702 48.8382 58.2803 49.2044 58.9755C49.5264 59.587 50.0403 60.0842 50.6724 60.3958C51.391 60.75 52.3317 60.75 54.213 60.75H64.5147C65.556 60.75 66.0767 60.75 66.5039 60.6393C67.6631 60.3387 68.5686 59.4627 68.8792 58.3412C68.9937 57.9279 68.9937 57.4241 68.9937 56.4167M57.2363 47.2083C57.2363 48.4049 56.2337 49.375 54.9968 49.375C53.76 49.375 52.7573 48.4049 52.7573 47.2083C52.7573 46.0117 53.76 45.0417 54.9968 45.0417C56.2337 45.0417 57.2363 46.0117 57.2363 47.2083ZM62.264 50.9113L52.7922 59.242C52.2595 59.7106 51.9931 59.9449 51.9695 60.1479C51.9491 60.3238 52.0188 60.4983 52.1562 60.6152C52.3148 60.75 52.6748 60.75 53.3948 60.75H63.9055C65.517 60.75 66.3228 60.75 66.9557 60.4881C67.7501 60.1593 68.3831 59.5469 68.723 58.7782C68.9937 58.166 68.9937 57.3864 68.9937 55.8273C68.9937 55.3027 68.9937 55.0404 68.9344 54.7962C68.8599 54.4892 68.7171 54.2016 68.5158 53.9536C68.3557 53.7562 68.144 53.5924 67.7206 53.2647L64.5884 50.8404C64.1646 50.5124 63.9528 50.3484 63.7194 50.2905C63.5138 50.2395 63.2974 50.2461 63.0955 50.3096C62.8664 50.3816 62.6656 50.5582 62.264 50.9113Z" stroke="white" stroke-width="2" stroke-linecap="round" stroke-linejoin="round"/>
</svg>
